%TF.GenerationSoftware,KiCad,Pcbnew,9.0.3*%
%TF.CreationDate,2025-07-15T20:34:28+12:00*%
%TF.ProjectId,LED_Dimmer,4c45445f-4469-46d6-9d65-722e6b696361,rev?*%
%TF.SameCoordinates,Original*%
%TF.FileFunction,Soldermask,Bot*%
%TF.FilePolarity,Negative*%
%FSLAX46Y46*%
G04 Gerber Fmt 4.6, Leading zero omitted, Abs format (unit mm)*
G04 Created by KiCad (PCBNEW 9.0.3) date 2025-07-15 20:34:28*
%MOMM*%
%LPD*%
G01*
G04 APERTURE LIST*
G04 APERTURE END LIST*
G36*
X88429199Y-53840070D02*
G01*
X88707167Y-53914552D01*
X88973035Y-54024678D01*
X89222255Y-54168565D01*
X89450561Y-54343750D01*
X89654048Y-54547237D01*
X89829233Y-54775543D01*
X89973120Y-55024763D01*
X90083246Y-55290631D01*
X90157728Y-55568599D01*
X90195290Y-55853911D01*
X90195290Y-56141685D01*
X90157728Y-56426997D01*
X90083246Y-56704965D01*
X89973120Y-56970833D01*
X89829233Y-57220053D01*
X89654048Y-57448359D01*
X89450561Y-57651846D01*
X89222255Y-57827031D01*
X88973035Y-57970918D01*
X88707167Y-58081044D01*
X88429199Y-58155526D01*
X88143887Y-58193088D01*
X87856113Y-58193088D01*
X87570801Y-58155526D01*
X87292833Y-58081044D01*
X87026965Y-57970918D01*
X86777745Y-57827031D01*
X86549439Y-57651846D01*
X86345952Y-57448359D01*
X86170767Y-57220053D01*
X86026880Y-56970833D01*
X85916754Y-56704965D01*
X85842272Y-56426997D01*
X85804710Y-56141685D01*
X85804710Y-55853911D01*
X85842272Y-55568599D01*
X85916754Y-55290631D01*
X86026880Y-55024763D01*
X86170767Y-54775543D01*
X86345952Y-54547237D01*
X86549439Y-54343750D01*
X86777745Y-54168565D01*
X87026965Y-54024678D01*
X87292833Y-53914552D01*
X87570801Y-53840070D01*
X87856113Y-53802508D01*
X88143887Y-53802508D01*
X88429199Y-53840070D01*
G37*
G36*
X116929199Y-53840070D02*
G01*
X117207167Y-53914552D01*
X117473035Y-54024678D01*
X117722255Y-54168565D01*
X117950561Y-54343750D01*
X118154048Y-54547237D01*
X118329233Y-54775543D01*
X118473120Y-55024763D01*
X118583246Y-55290631D01*
X118657728Y-55568599D01*
X118695290Y-55853911D01*
X118695290Y-56141685D01*
X118657728Y-56426997D01*
X118583246Y-56704965D01*
X118473120Y-56970833D01*
X118329233Y-57220053D01*
X118154048Y-57448359D01*
X117950561Y-57651846D01*
X117722255Y-57827031D01*
X117473035Y-57970918D01*
X117207167Y-58081044D01*
X116929199Y-58155526D01*
X116643887Y-58193088D01*
X116356113Y-58193088D01*
X116070801Y-58155526D01*
X115792833Y-58081044D01*
X115526965Y-57970918D01*
X115277745Y-57827031D01*
X115049439Y-57651846D01*
X114845952Y-57448359D01*
X114670767Y-57220053D01*
X114526880Y-56970833D01*
X114416754Y-56704965D01*
X114342272Y-56426997D01*
X114304710Y-56141685D01*
X114304710Y-55853911D01*
X114342272Y-55568599D01*
X114416754Y-55290631D01*
X114526880Y-55024763D01*
X114670767Y-54775543D01*
X114845952Y-54547237D01*
X115049439Y-54343750D01*
X115277745Y-54168565D01*
X115526965Y-54024678D01*
X115792833Y-53914552D01*
X116070801Y-53840070D01*
X116356113Y-53802508D01*
X116643887Y-53802508D01*
X116929199Y-53840070D01*
G37*
G36*
X97014017Y-52227925D02*
G01*
X97206285Y-52266170D01*
X97387397Y-52341189D01*
X97550393Y-52450100D01*
X97689010Y-52588717D01*
X97797921Y-52751713D01*
X97872940Y-52932825D01*
X97911185Y-53125093D01*
X97911185Y-53321127D01*
X97872940Y-53513395D01*
X97797921Y-53694507D01*
X97689010Y-53857503D01*
X97550393Y-53996120D01*
X97387397Y-54105031D01*
X97206285Y-54180050D01*
X97014017Y-54218295D01*
X96916000Y-54223110D01*
X96914522Y-54223110D01*
X94717478Y-54223110D01*
X94716000Y-54223110D01*
X94617983Y-54218295D01*
X94425715Y-54180050D01*
X94244603Y-54105031D01*
X94081607Y-53996120D01*
X93942990Y-53857503D01*
X93834079Y-53694507D01*
X93759060Y-53513395D01*
X93720815Y-53321127D01*
X93720815Y-53125093D01*
X93759060Y-52932825D01*
X93834079Y-52751713D01*
X93942990Y-52588717D01*
X94081607Y-52450100D01*
X94244603Y-52341189D01*
X94425715Y-52266170D01*
X94617983Y-52227925D01*
X94716000Y-52223110D01*
X96916000Y-52223110D01*
X97014017Y-52227925D01*
G37*
G36*
X112673513Y-52476719D02*
G01*
X112817714Y-52505403D01*
X112953548Y-52561667D01*
X113075795Y-52643350D01*
X113179758Y-52747313D01*
X113261441Y-52869560D01*
X113317705Y-53005394D01*
X113346389Y-53149595D01*
X113346389Y-53296621D01*
X113317705Y-53440822D01*
X113261441Y-53576656D01*
X113179758Y-53698903D01*
X113075795Y-53802866D01*
X112953548Y-53884549D01*
X112817714Y-53940813D01*
X112673513Y-53969497D01*
X112600000Y-53973108D01*
X112598522Y-53973108D01*
X110401478Y-53973108D01*
X110400000Y-53973108D01*
X110326487Y-53969497D01*
X110182286Y-53940813D01*
X110046452Y-53884549D01*
X109924205Y-53802866D01*
X109820242Y-53698903D01*
X109738559Y-53576656D01*
X109682295Y-53440822D01*
X109653611Y-53296621D01*
X109653611Y-53149595D01*
X109682295Y-53005394D01*
X109738559Y-52869560D01*
X109820242Y-52747313D01*
X109924205Y-52643350D01*
X110046452Y-52561667D01*
X110182286Y-52505403D01*
X110326487Y-52476719D01*
X110400000Y-52473108D01*
X112600000Y-52473108D01*
X112673513Y-52476719D01*
G37*
G36*
X99716000Y-50723110D02*
G01*
X97716000Y-50723110D01*
X97716000Y-46123110D01*
X99716000Y-46123110D01*
X99716000Y-50723110D01*
G37*
G36*
X106574001Y-50723109D02*
G01*
X104574001Y-50723109D01*
X104574001Y-46123109D01*
X106574001Y-46123109D01*
X106574001Y-50723109D01*
G37*
G36*
X118350001Y-50548109D02*
G01*
X116650001Y-50548109D01*
X116650001Y-48848109D01*
X118350001Y-48848109D01*
X118350001Y-50548109D01*
G37*
G36*
X87246742Y-48874711D02*
G01*
X87400687Y-48938477D01*
X87539234Y-49031051D01*
X87657059Y-49148876D01*
X87749633Y-49287423D01*
X87813399Y-49441368D01*
X87845907Y-49604795D01*
X87845907Y-49771425D01*
X87813399Y-49934852D01*
X87749633Y-50088797D01*
X87657059Y-50227344D01*
X87539234Y-50345169D01*
X87400687Y-50437743D01*
X87246742Y-50501509D01*
X87083315Y-50534017D01*
X86916685Y-50534017D01*
X86753258Y-50501509D01*
X86599313Y-50437743D01*
X86460766Y-50345169D01*
X86342941Y-50227344D01*
X86250367Y-50088797D01*
X86186601Y-49934852D01*
X86154093Y-49771425D01*
X86154093Y-49604795D01*
X86186601Y-49441368D01*
X86250367Y-49287423D01*
X86342941Y-49148876D01*
X86460766Y-49031051D01*
X86599313Y-48938477D01*
X86753258Y-48874711D01*
X86916685Y-48842203D01*
X87083315Y-48842203D01*
X87246742Y-48874711D01*
G37*
G36*
X112164287Y-46366170D02*
G01*
X112345399Y-46441189D01*
X112508395Y-46550100D01*
X112647012Y-46688717D01*
X112755923Y-46851713D01*
X112830942Y-47032825D01*
X112869187Y-47225093D01*
X112874002Y-47323110D01*
X112874002Y-49523110D01*
X112869187Y-49621127D01*
X112830942Y-49813395D01*
X112755923Y-49994507D01*
X112647012Y-50157503D01*
X112508395Y-50296120D01*
X112345399Y-50405031D01*
X112164287Y-50480050D01*
X111972019Y-50518295D01*
X111775985Y-50518295D01*
X111583717Y-50480050D01*
X111402605Y-50405031D01*
X111239609Y-50296120D01*
X111100992Y-50157503D01*
X110992081Y-49994507D01*
X110917062Y-49813395D01*
X110878817Y-49621127D01*
X110874002Y-49523110D01*
X110874002Y-47323110D01*
X110878817Y-47225093D01*
X110917062Y-47032825D01*
X110992081Y-46851713D01*
X111100992Y-46688717D01*
X111239609Y-46550100D01*
X111402605Y-46441189D01*
X111583717Y-46366170D01*
X111775985Y-46327925D01*
X111972019Y-46327925D01*
X112164287Y-46366170D01*
G37*
G36*
X92706284Y-46366169D02*
G01*
X92887396Y-46441188D01*
X93050392Y-46550099D01*
X93189009Y-46688716D01*
X93297920Y-46851712D01*
X93372939Y-47032824D01*
X93411184Y-47225092D01*
X93415999Y-47323109D01*
X93415999Y-49523109D01*
X93411184Y-49621126D01*
X93372939Y-49813394D01*
X93297920Y-49994506D01*
X93189009Y-50157502D01*
X93050392Y-50296119D01*
X92887396Y-50405030D01*
X92706284Y-50480049D01*
X92514016Y-50518294D01*
X92317982Y-50518294D01*
X92125714Y-50480049D01*
X91944602Y-50405030D01*
X91781606Y-50296119D01*
X91642989Y-50157502D01*
X91534078Y-49994506D01*
X91459059Y-49813394D01*
X91420814Y-49621126D01*
X91415999Y-49523109D01*
X91415999Y-47323109D01*
X91420814Y-47225092D01*
X91459059Y-47032824D01*
X91534078Y-46851712D01*
X91642989Y-46688716D01*
X91781606Y-46550099D01*
X91944602Y-46441188D01*
X92125714Y-46366169D01*
X92317982Y-46327924D01*
X92514016Y-46327924D01*
X92706284Y-46366169D01*
G37*
G36*
X96150000Y-50473110D02*
G01*
X94650000Y-50473110D01*
X94650000Y-46373110D01*
X96150000Y-46373110D01*
X96150000Y-50473110D01*
G37*
G36*
X109350000Y-50473109D02*
G01*
X107850000Y-50473109D01*
X107850000Y-46373109D01*
X109350000Y-46373109D01*
X109350000Y-50473109D01*
G37*
G36*
X115117715Y-46605405D02*
G01*
X115253549Y-46661669D01*
X115375796Y-46743352D01*
X115479759Y-46847315D01*
X115561442Y-46969562D01*
X115617706Y-47105396D01*
X115646390Y-47249597D01*
X115650001Y-47323110D01*
X115650001Y-49523110D01*
X115646390Y-49596623D01*
X115617706Y-49740824D01*
X115561442Y-49876658D01*
X115479759Y-49998905D01*
X115375796Y-50102868D01*
X115253549Y-50184551D01*
X115117715Y-50240815D01*
X114973514Y-50269499D01*
X114826488Y-50269499D01*
X114682287Y-50240815D01*
X114546453Y-50184551D01*
X114424206Y-50102868D01*
X114320243Y-49998905D01*
X114238560Y-49876658D01*
X114182296Y-49740824D01*
X114153612Y-49596623D01*
X114150001Y-49523110D01*
X114150001Y-47323110D01*
X114153612Y-47249597D01*
X114182296Y-47105396D01*
X114238560Y-46969562D01*
X114320243Y-46847315D01*
X114424206Y-46743352D01*
X114546453Y-46661669D01*
X114682287Y-46605405D01*
X114826488Y-46576721D01*
X114973514Y-46576721D01*
X115117715Y-46605405D01*
G37*
G36*
X89317713Y-46605404D02*
G01*
X89453547Y-46661668D01*
X89575794Y-46743351D01*
X89679757Y-46847314D01*
X89761440Y-46969561D01*
X89817704Y-47105395D01*
X89846388Y-47249596D01*
X89849999Y-47323109D01*
X89849999Y-49523109D01*
X89846388Y-49596622D01*
X89817704Y-49740823D01*
X89761440Y-49876657D01*
X89679757Y-49998904D01*
X89575794Y-50102867D01*
X89453547Y-50184550D01*
X89317713Y-50240814D01*
X89173512Y-50269498D01*
X89026486Y-50269498D01*
X88882285Y-50240814D01*
X88746451Y-50184550D01*
X88624204Y-50102867D01*
X88520241Y-49998904D01*
X88438558Y-49876657D01*
X88382294Y-49740823D01*
X88353610Y-49596622D01*
X88349999Y-49523109D01*
X88349999Y-47323109D01*
X88353610Y-47249596D01*
X88382294Y-47105395D01*
X88438558Y-46969561D01*
X88520241Y-46847314D01*
X88624204Y-46743351D01*
X88746451Y-46661668D01*
X88882285Y-46605404D01*
X89026486Y-46576720D01*
X89173512Y-46576720D01*
X89317713Y-46605404D01*
G37*
G36*
X117746743Y-46344710D02*
G01*
X117900688Y-46408476D01*
X118039235Y-46501050D01*
X118157060Y-46618875D01*
X118249634Y-46757422D01*
X118313400Y-46911367D01*
X118345908Y-47074794D01*
X118345908Y-47241424D01*
X118313400Y-47404851D01*
X118249634Y-47558796D01*
X118157060Y-47697343D01*
X118039235Y-47815168D01*
X117900688Y-47907742D01*
X117746743Y-47971508D01*
X117583316Y-48004016D01*
X117416686Y-48004016D01*
X117253259Y-47971508D01*
X117099314Y-47907742D01*
X116960767Y-47815168D01*
X116842942Y-47697343D01*
X116750368Y-47558796D01*
X116686602Y-47404851D01*
X116654094Y-47241424D01*
X116654094Y-47074794D01*
X116686602Y-46911367D01*
X116750368Y-46757422D01*
X116842942Y-46618875D01*
X116960767Y-46501050D01*
X117099314Y-46408476D01*
X117253259Y-46344710D01*
X117416686Y-46312202D01*
X117583316Y-46312202D01*
X117746743Y-46344710D01*
G37*
G36*
X87850000Y-47998110D02*
G01*
X86150000Y-47998110D01*
X86150000Y-46298110D01*
X87850000Y-46298110D01*
X87850000Y-47998110D01*
G37*
G36*
X109672018Y-42627924D02*
G01*
X109864286Y-42666169D01*
X110045398Y-42741188D01*
X110208394Y-42850099D01*
X110347011Y-42988716D01*
X110455922Y-43151712D01*
X110530941Y-43332824D01*
X110569186Y-43525092D01*
X110569186Y-43721126D01*
X110530941Y-43913394D01*
X110455922Y-44094506D01*
X110347011Y-44257502D01*
X110208394Y-44396119D01*
X110045398Y-44505030D01*
X109864286Y-44580049D01*
X109672018Y-44618294D01*
X109574001Y-44623109D01*
X109572523Y-44623109D01*
X107375479Y-44623109D01*
X107374001Y-44623109D01*
X107275984Y-44618294D01*
X107083716Y-44580049D01*
X106902604Y-44505030D01*
X106739608Y-44396119D01*
X106600991Y-44257502D01*
X106492080Y-44094506D01*
X106417061Y-43913394D01*
X106378816Y-43721126D01*
X106378816Y-43525092D01*
X106417061Y-43332824D01*
X106492080Y-43151712D01*
X106600991Y-42988716D01*
X106739608Y-42850099D01*
X106902604Y-42741188D01*
X107083716Y-42666169D01*
X107275984Y-42627924D01*
X107374001Y-42623109D01*
X109574001Y-42623109D01*
X109672018Y-42627924D01*
G37*
G36*
X93673513Y-42876722D02*
G01*
X93817714Y-42905406D01*
X93953548Y-42961670D01*
X94075795Y-43043353D01*
X94179758Y-43147316D01*
X94261441Y-43269563D01*
X94317705Y-43405397D01*
X94346389Y-43549598D01*
X94346389Y-43696624D01*
X94317705Y-43840825D01*
X94261441Y-43976659D01*
X94179758Y-44098906D01*
X94075795Y-44202869D01*
X93953548Y-44284552D01*
X93817714Y-44340816D01*
X93673513Y-44369500D01*
X93600000Y-44373111D01*
X93598522Y-44373111D01*
X91401478Y-44373111D01*
X91400000Y-44373111D01*
X91326487Y-44369500D01*
X91182286Y-44340816D01*
X91046452Y-44284552D01*
X90924205Y-44202869D01*
X90820242Y-44098906D01*
X90738559Y-43976659D01*
X90682295Y-43840825D01*
X90653611Y-43696624D01*
X90653611Y-43549598D01*
X90682295Y-43405397D01*
X90738559Y-43269563D01*
X90820242Y-43147316D01*
X90924205Y-43043353D01*
X91046452Y-42961670D01*
X91182286Y-42905406D01*
X91326487Y-42876722D01*
X91400000Y-42873111D01*
X93600000Y-42873111D01*
X93673513Y-42876722D01*
G37*
G36*
X92343588Y-38158039D02*
G01*
X92596286Y-38225750D01*
X92837984Y-38325865D01*
X93064547Y-38456671D01*
X93272099Y-38615930D01*
X93457087Y-38800918D01*
X93616346Y-39008470D01*
X93747152Y-39235033D01*
X93847267Y-39476731D01*
X93914978Y-39729429D01*
X93949125Y-39988804D01*
X93949125Y-40250416D01*
X93914978Y-40509791D01*
X93847267Y-40762489D01*
X93747152Y-41004187D01*
X93616346Y-41230750D01*
X93457087Y-41438302D01*
X93272099Y-41623290D01*
X93064547Y-41782549D01*
X92837984Y-41913355D01*
X92596286Y-42013470D01*
X92343588Y-42081181D01*
X92084213Y-42115328D01*
X91822601Y-42115328D01*
X91563226Y-42081181D01*
X91310528Y-42013470D01*
X91068830Y-41913355D01*
X90842267Y-41782549D01*
X90634715Y-41623290D01*
X90449727Y-41438302D01*
X90290468Y-41230750D01*
X90159662Y-41004187D01*
X90059547Y-40762489D01*
X89991836Y-40509791D01*
X89957689Y-40250416D01*
X89957689Y-39988804D01*
X89991836Y-39729429D01*
X90059547Y-39476731D01*
X90159662Y-39235033D01*
X90290468Y-39008470D01*
X90449727Y-38800918D01*
X90634715Y-38615930D01*
X90842267Y-38456671D01*
X91068830Y-38325865D01*
X91310528Y-38225750D01*
X91563226Y-38158039D01*
X91822601Y-38123892D01*
X92084213Y-38123892D01*
X92343588Y-38158039D01*
G37*
G36*
X99214658Y-37358366D02*
G01*
X99377659Y-37425883D01*
X99524356Y-37523903D01*
X99649111Y-37648658D01*
X99747131Y-37795355D01*
X99814648Y-37958356D01*
X99849068Y-38131397D01*
X99849068Y-38307827D01*
X99814648Y-38480868D01*
X99747131Y-38643869D01*
X99649111Y-38790566D01*
X99524356Y-38915321D01*
X99377659Y-39013341D01*
X99214658Y-39080858D01*
X99041617Y-39115278D01*
X98865187Y-39115278D01*
X98692146Y-39080858D01*
X98529145Y-39013341D01*
X98382448Y-38915321D01*
X98257693Y-38790566D01*
X98159673Y-38643869D01*
X98092156Y-38480868D01*
X98057736Y-38307827D01*
X98057736Y-38131397D01*
X98092156Y-37958356D01*
X98159673Y-37795355D01*
X98257693Y-37648658D01*
X98382448Y-37523903D01*
X98529145Y-37425883D01*
X98692146Y-37358366D01*
X98865187Y-37323946D01*
X99041617Y-37323946D01*
X99214658Y-37358366D01*
G37*
G36*
X99214658Y-34858366D02*
G01*
X99377659Y-34925883D01*
X99524356Y-35023903D01*
X99649111Y-35148658D01*
X99747131Y-35295355D01*
X99814648Y-35458356D01*
X99849068Y-35631397D01*
X99849068Y-35807827D01*
X99814648Y-35980868D01*
X99747131Y-36143869D01*
X99649111Y-36290566D01*
X99524356Y-36415321D01*
X99377659Y-36513341D01*
X99214658Y-36580858D01*
X99041617Y-36615278D01*
X98865187Y-36615278D01*
X98692146Y-36580858D01*
X98529145Y-36513341D01*
X98382448Y-36415321D01*
X98257693Y-36290566D01*
X98159673Y-36143869D01*
X98092156Y-35980868D01*
X98057736Y-35807827D01*
X98057736Y-35631397D01*
X98092156Y-35458356D01*
X98159673Y-35295355D01*
X98257693Y-35148658D01*
X98382448Y-35023903D01*
X98529145Y-34925883D01*
X98692146Y-34858366D01*
X98865187Y-34823946D01*
X99041617Y-34823946D01*
X99214658Y-34858366D01*
G37*
G36*
X99214658Y-32358366D02*
G01*
X99377659Y-32425883D01*
X99524356Y-32523903D01*
X99649111Y-32648658D01*
X99747131Y-32795355D01*
X99814648Y-32958356D01*
X99849068Y-33131397D01*
X99849068Y-33307827D01*
X99814648Y-33480868D01*
X99747131Y-33643869D01*
X99649111Y-33790566D01*
X99524356Y-33915321D01*
X99377659Y-34013341D01*
X99214658Y-34080858D01*
X99041617Y-34115278D01*
X98865187Y-34115278D01*
X98692146Y-34080858D01*
X98529145Y-34013341D01*
X98382448Y-33915321D01*
X98257693Y-33790566D01*
X98159673Y-33643869D01*
X98092156Y-33480868D01*
X98057736Y-33307827D01*
X98057736Y-33131397D01*
X98092156Y-32958356D01*
X98159673Y-32795355D01*
X98257693Y-32648658D01*
X98382448Y-32523903D01*
X98529145Y-32425883D01*
X98692146Y-32358366D01*
X98865187Y-32323946D01*
X99041617Y-32323946D01*
X99214658Y-32358366D01*
G37*
G36*
X92343582Y-29358041D02*
G01*
X92596280Y-29425752D01*
X92837978Y-29525867D01*
X93064541Y-29656673D01*
X93272093Y-29815932D01*
X93457081Y-30000920D01*
X93616340Y-30208472D01*
X93747146Y-30435035D01*
X93847261Y-30676733D01*
X93914972Y-30929431D01*
X93949119Y-31188806D01*
X93949119Y-31450418D01*
X93914972Y-31709793D01*
X93847261Y-31962491D01*
X93747146Y-32204189D01*
X93616340Y-32430752D01*
X93457081Y-32638304D01*
X93272093Y-32823292D01*
X93064541Y-32982551D01*
X92837978Y-33113357D01*
X92596280Y-33213472D01*
X92343582Y-33281183D01*
X92084207Y-33315330D01*
X91822595Y-33315330D01*
X91563220Y-33281183D01*
X91310522Y-33213472D01*
X91068824Y-33113357D01*
X90842261Y-32982551D01*
X90634709Y-32823292D01*
X90449721Y-32638304D01*
X90290462Y-32430752D01*
X90159656Y-32204189D01*
X90059541Y-31962491D01*
X89991830Y-31709793D01*
X89957683Y-31450418D01*
X89957683Y-31188806D01*
X89991830Y-30929431D01*
X90059541Y-30676733D01*
X90159656Y-30435035D01*
X90290462Y-30208472D01*
X90449721Y-30000920D01*
X90634709Y-29815932D01*
X90842261Y-29656673D01*
X91068824Y-29525867D01*
X91310522Y-29425752D01*
X91563220Y-29358041D01*
X91822595Y-29323894D01*
X92084207Y-29323894D01*
X92343582Y-29358041D01*
G37*
G36*
X88429199Y-24090070D02*
G01*
X88707167Y-24164552D01*
X88973035Y-24274678D01*
X89222255Y-24418565D01*
X89450561Y-24593750D01*
X89654048Y-24797237D01*
X89829233Y-25025543D01*
X89973120Y-25274763D01*
X90083246Y-25540631D01*
X90157728Y-25818599D01*
X90195290Y-26103911D01*
X90195290Y-26391685D01*
X90157728Y-26676997D01*
X90083246Y-26954965D01*
X89973120Y-27220833D01*
X89829233Y-27470053D01*
X89654048Y-27698359D01*
X89450561Y-27901846D01*
X89222255Y-28077031D01*
X88973035Y-28220918D01*
X88707167Y-28331044D01*
X88429199Y-28405526D01*
X88143887Y-28443088D01*
X87856113Y-28443088D01*
X87570801Y-28405526D01*
X87292833Y-28331044D01*
X87026965Y-28220918D01*
X86777745Y-28077031D01*
X86549439Y-27901846D01*
X86345952Y-27698359D01*
X86170767Y-27470053D01*
X86026880Y-27220833D01*
X85916754Y-26954965D01*
X85842272Y-26676997D01*
X85804710Y-26391685D01*
X85804710Y-26103911D01*
X85842272Y-25818599D01*
X85916754Y-25540631D01*
X86026880Y-25274763D01*
X86170767Y-25025543D01*
X86345952Y-24797237D01*
X86549439Y-24593750D01*
X86777745Y-24418565D01*
X87026965Y-24274678D01*
X87292833Y-24164552D01*
X87570801Y-24090070D01*
X87856113Y-24052508D01*
X88143887Y-24052508D01*
X88429199Y-24090070D01*
G37*
G36*
X116929199Y-24090070D02*
G01*
X117207167Y-24164552D01*
X117473035Y-24274678D01*
X117722255Y-24418565D01*
X117950561Y-24593750D01*
X118154048Y-24797237D01*
X118329233Y-25025543D01*
X118473120Y-25274763D01*
X118583246Y-25540631D01*
X118657728Y-25818599D01*
X118695290Y-26103911D01*
X118695290Y-26391685D01*
X118657728Y-26676997D01*
X118583246Y-26954965D01*
X118473120Y-27220833D01*
X118329233Y-27470053D01*
X118154048Y-27698359D01*
X117950561Y-27901846D01*
X117722255Y-28077031D01*
X117473035Y-28220918D01*
X117207167Y-28331044D01*
X116929199Y-28405526D01*
X116643887Y-28443088D01*
X116356113Y-28443088D01*
X116070801Y-28405526D01*
X115792833Y-28331044D01*
X115526965Y-28220918D01*
X115277745Y-28077031D01*
X115049439Y-27901846D01*
X114845952Y-27698359D01*
X114670767Y-27470053D01*
X114526880Y-27220833D01*
X114416754Y-26954965D01*
X114342272Y-26676997D01*
X114304710Y-26391685D01*
X114304710Y-26103911D01*
X114342272Y-25818599D01*
X114416754Y-25540631D01*
X114526880Y-25274763D01*
X114670767Y-25025543D01*
X114845952Y-24797237D01*
X115049439Y-24593750D01*
X115277745Y-24418565D01*
X115526965Y-24274678D01*
X115792833Y-24164552D01*
X116070801Y-24090070D01*
X116356113Y-24052508D01*
X116643887Y-24052508D01*
X116929199Y-24090070D01*
G37*
M02*
