%TF.GenerationSoftware,KiCad,Pcbnew,9.0.3*%
%TF.CreationDate,2025-07-15T20:34:28+12:00*%
%TF.ProjectId,LED_Dimmer,4c45445f-4469-46d6-9d65-722e6b696361,rev?*%
%TF.SameCoordinates,Original*%
%TF.FileFunction,Copper,L1,Top*%
%TF.FilePolarity,Positive*%
%FSLAX46Y46*%
G04 Gerber Fmt 4.6, Leading zero omitted, Abs format (unit mm)*
G04 Created by KiCad (PCBNEW 9.0.3) date 2025-07-15 20:34:28*
%MOMM*%
%LPD*%
G01*
G04 APERTURE LIST*
G04 Aperture macros list*
%AMRoundRect*
0 Rectangle with rounded corners*
0 $1 Rounding radius*
0 $2 $3 $4 $5 $6 $7 $8 $9 X,Y pos of 4 corners*
0 Add a 4 corners polygon primitive as box body*
4,1,4,$2,$3,$4,$5,$6,$7,$8,$9,$2,$3,0*
0 Add four circle primitives for the rounded corners*
1,1,$1+$1,$2,$3*
1,1,$1+$1,$4,$5*
1,1,$1+$1,$6,$7*
1,1,$1+$1,$8,$9*
0 Add four rect primitives between the rounded corners*
20,1,$1+$1,$2,$3,$4,$5,0*
20,1,$1+$1,$4,$5,$6,$7,0*
20,1,$1+$1,$6,$7,$8,$9,0*
20,1,$1+$1,$8,$9,$2,$3,0*%
G04 Aperture macros list end*
%TA.AperFunction,SMDPad,CuDef*%
%ADD10RoundRect,0.250000X0.475000X-0.337500X0.475000X0.337500X-0.475000X0.337500X-0.475000X-0.337500X0*%
%TD*%
%TA.AperFunction,ComponentPad*%
%ADD11R,1.700000X1.700000*%
%TD*%
%TA.AperFunction,ComponentPad*%
%ADD12C,1.700000*%
%TD*%
%TA.AperFunction,SMDPad,CuDef*%
%ADD13RoundRect,0.150000X-0.150000X0.512500X-0.150000X-0.512500X0.150000X-0.512500X0.150000X0.512500X0*%
%TD*%
%TA.AperFunction,SMDPad,CuDef*%
%ADD14RoundRect,0.150000X-0.825000X-0.150000X0.825000X-0.150000X0.825000X0.150000X-0.825000X0.150000X0*%
%TD*%
%TA.AperFunction,ComponentPad*%
%ADD15C,4.400000*%
%TD*%
%TA.AperFunction,ComponentPad*%
%ADD16R,1.500000X4.100000*%
%TD*%
%TA.AperFunction,ComponentPad*%
%ADD17O,1.500000X3.700000*%
%TD*%
%TA.AperFunction,ComponentPad*%
%ADD18O,3.700000X1.500000*%
%TD*%
%TA.AperFunction,SMDPad,CuDef*%
%ADD19RoundRect,0.250000X0.350000X0.450000X-0.350000X0.450000X-0.350000X-0.450000X0.350000X-0.450000X0*%
%TD*%
%TA.AperFunction,SMDPad,CuDef*%
%ADD20RoundRect,0.225000X0.225000X0.375000X-0.225000X0.375000X-0.225000X-0.375000X0.225000X-0.375000X0*%
%TD*%
%TA.AperFunction,ComponentPad*%
%ADD21C,1.800000*%
%TD*%
%TA.AperFunction,ComponentPad*%
%ADD22C,4.000000*%
%TD*%
%TA.AperFunction,SMDPad,CuDef*%
%ADD23RoundRect,0.225000X-0.225000X-0.375000X0.225000X-0.375000X0.225000X0.375000X-0.225000X0.375000X0*%
%TD*%
%TA.AperFunction,ComponentPad*%
%ADD24R,2.000000X4.600000*%
%TD*%
%TA.AperFunction,ComponentPad*%
%ADD25O,2.000000X4.200000*%
%TD*%
%TA.AperFunction,ComponentPad*%
%ADD26O,4.200000X2.000000*%
%TD*%
%TA.AperFunction,ViaPad*%
%ADD27C,0.600000*%
%TD*%
%TA.AperFunction,Conductor*%
%ADD28C,0.300000*%
%TD*%
%TA.AperFunction,Conductor*%
%ADD29C,0.304800*%
%TD*%
%TA.AperFunction,Conductor*%
%ADD30C,1.000000*%
%TD*%
%TA.AperFunction,Conductor*%
%ADD31C,1.700000*%
%TD*%
%TA.AperFunction,Conductor*%
%ADD32C,2.000000*%
%TD*%
%TA.AperFunction,Conductor*%
%ADD33C,0.254000*%
%TD*%
%TA.AperFunction,Conductor*%
%ADD34C,0.508000*%
%TD*%
G04 APERTURE END LIST*
D10*
%TO.P,C2,1*%
%TO.N,/THRESH*%
X101804915Y-35175191D03*
%TO.P,C2,2*%
%TO.N,GND*%
X101804915Y-33100191D03*
%TD*%
D11*
%TO.P,J2,1,Pin_1*%
%TO.N,12V*%
X117500001Y-49698109D03*
D12*
%TO.P,J2,2,Pin_2*%
%TO.N,/SwitchGND*%
X117500001Y-47158109D03*
%TD*%
D13*
%TO.P,Q1,1,D*%
%TO.N,/SwitchGND*%
X104237998Y-41111443D03*
%TO.P,Q1,2,G*%
%TO.N,/PWM*%
X102337998Y-41111441D03*
%TO.P,Q1,3,S*%
%TO.N,GND*%
X103288000Y-43386442D03*
%TD*%
D14*
%TO.P,U1,1,GND*%
%TO.N,GND*%
X104873914Y-33306565D03*
%TO.P,U1,2,TR*%
%TO.N,/THRESH*%
X104873913Y-34576567D03*
%TO.P,U1,3,Q*%
%TO.N,/PWM*%
X104873909Y-35846573D03*
%TO.P,U1,4,R*%
%TO.N,12V_RPP*%
X104873916Y-37116568D03*
%TO.P,U1,5,CV*%
%TO.N,Net-(U1-CV)*%
X109823912Y-37116569D03*
%TO.P,U1,6,THR*%
%TO.N,/THRESH*%
X109823913Y-35846567D03*
%TO.P,U1,7,DIS*%
%TO.N,/DISCH*%
X109823917Y-34576561D03*
%TO.P,U1,8,VCC*%
%TO.N,12V_RPP*%
X109823910Y-33306566D03*
%TD*%
D15*
%TO.P,MH2,1,1*%
%TO.N,GND*%
X116500000Y-26247798D03*
%TD*%
D11*
%TO.P,J1,1,Pin_1*%
%TO.N,12V*%
X87000000Y-47148110D03*
D12*
%TO.P,J1,2,Pin_2*%
%TO.N,GND*%
X87000000Y-49688110D03*
%TD*%
D15*
%TO.P,MH3,1,1*%
%TO.N,GND*%
X88000000Y-26247798D03*
%TD*%
%TO.P,MH1,1,1*%
%TO.N,GND*%
X88000000Y-55997798D03*
%TD*%
%TO.P,MH4,1,1*%
%TO.N,GND*%
X116500000Y-55997798D03*
%TD*%
D16*
%TO.P,J_PS1,1*%
%TO.N,12V*%
X98716000Y-48423110D03*
D17*
%TO.P,J_PS1,2*%
%TO.N,GND*%
X92415999Y-48423109D03*
D18*
%TO.P,J_PS1,3*%
%TO.N,unconnected-(J_PS1-Pad3)*%
X95816000Y-53223110D03*
%TD*%
D10*
%TO.P,C1,1*%
%TO.N,GND*%
X112443516Y-39325000D03*
%TO.P,C1,2*%
%TO.N,Net-(U1-CV)*%
X112443516Y-37250000D03*
%TD*%
D19*
%TO.P,R1,1*%
%TO.N,12V_RPP*%
X109778396Y-31500000D03*
%TO.P,R1,2*%
%TO.N,/DISCH*%
X107778396Y-31500000D03*
%TD*%
D16*
%TO.P,J_LED1,1*%
%TO.N,12V*%
X105574001Y-48423109D03*
D17*
%TO.P,J_LED1,2*%
%TO.N,/SwitchGND*%
X111874002Y-48423110D03*
D18*
%TO.P,J_LED1,3*%
%TO.N,unconnected-(J_LED1-Pad3)*%
X108474001Y-43623109D03*
%TD*%
D20*
%TO.P,D2,1,K*%
%TO.N,/DISCH*%
X104967401Y-28480607D03*
%TO.P,D2,2,A*%
%TO.N,Net-(D2-A)*%
X101667397Y-28480613D03*
%TD*%
%TO.P,D3,1,K*%
%TO.N,12V_RPP*%
X104266589Y-38915628D03*
%TO.P,D3,2,A*%
%TO.N,12V*%
X100966587Y-38915634D03*
%TD*%
D21*
%TO.P,PT1,1,1*%
%TO.N,Net-(D1-K)*%
X98953402Y-33219612D03*
%TO.P,PT1,2,2*%
%TO.N,/THRESH*%
X98953402Y-35719612D03*
%TO.P,PT1,3,3*%
%TO.N,Net-(D2-A)*%
X98953402Y-38219612D03*
D22*
%TO.P,PT1,MP,MountPin*%
%TO.N,GND*%
X91953407Y-40119610D03*
X91953401Y-31319612D03*
%TD*%
D23*
%TO.P,D1,1,K*%
%TO.N,Net-(D1-K)*%
X101667393Y-31020613D03*
%TO.P,D1,2,A*%
%TO.N,/DISCH*%
X104967397Y-31020607D03*
%TD*%
D24*
%TO.P,J_PS2,1*%
%TO.N,GND*%
X95400000Y-48423110D03*
D25*
%TO.P,J_PS2,2*%
%TO.N,12V*%
X89099999Y-48423109D03*
D26*
%TO.P,J_PS2,3*%
%TO.N,unconnected-(J_PS2-Pad3)*%
X92500000Y-43623111D03*
%TD*%
D24*
%TO.P,J_LED2,1*%
%TO.N,/SwitchGND*%
X108600000Y-48423109D03*
D25*
%TO.P,J_LED2,2*%
%TO.N,12V*%
X114900001Y-48423110D03*
D26*
%TO.P,J_LED2,3*%
%TO.N,unconnected-(J_LED2-Pad3)*%
X111500000Y-53223108D03*
%TD*%
D27*
%TO.N,GND*%
X92408086Y-45596315D03*
X87000000Y-42000000D03*
X90000000Y-45000000D03*
X108000000Y-27000000D03*
X99000000Y-27000000D03*
X105000000Y-57000000D03*
X111000000Y-27000000D03*
X103191248Y-33096547D03*
X87000000Y-51000000D03*
X104750000Y-43417833D03*
X114000000Y-39000000D03*
X117000000Y-42000000D03*
X96000000Y-45000000D03*
X99000000Y-57000000D03*
X96000000Y-27000000D03*
X114000000Y-42000000D03*
X93000000Y-27000000D03*
X87000000Y-36000000D03*
X117000000Y-33000000D03*
X102000000Y-43381791D03*
X87000000Y-30000000D03*
X102000000Y-51000000D03*
X102000000Y-27000000D03*
X93000000Y-36000000D03*
X104865307Y-32567641D03*
X96000000Y-57000000D03*
X114000000Y-57000000D03*
X111000000Y-39000000D03*
X93000000Y-57000000D03*
X114000000Y-33000000D03*
X114000000Y-36000000D03*
X90659826Y-48407694D03*
X105000000Y-54000000D03*
X108000000Y-57000000D03*
X90000000Y-54000000D03*
X99000000Y-30000000D03*
X105000000Y-27000000D03*
X87000000Y-33000000D03*
X87000000Y-45000000D03*
X90000000Y-36000000D03*
X99000000Y-54000000D03*
X102000000Y-54000000D03*
X103287999Y-44667833D03*
X93000000Y-54000000D03*
X87000000Y-39000000D03*
X96000000Y-36000000D03*
X117000000Y-30000000D03*
X102000000Y-44667833D03*
X108000000Y-30000000D03*
X111000000Y-57000000D03*
X114000000Y-30000000D03*
X111000000Y-30000000D03*
X117000000Y-39000000D03*
X108000000Y-54000000D03*
X96000000Y-30000000D03*
X96000000Y-33000000D03*
X104750000Y-44667833D03*
X114000000Y-54000000D03*
X108000000Y-39000000D03*
X100279841Y-34256258D03*
X117000000Y-36000000D03*
X96000000Y-42000000D03*
X90000000Y-51000000D03*
X96000000Y-39000000D03*
X102000000Y-57000000D03*
X112443516Y-40500000D03*
%TD*%
D28*
%TO.N,Net-(U1-CV)*%
X112254624Y-37402800D02*
X112443516Y-37591692D01*
X109823912Y-37250000D02*
X109936544Y-37137368D01*
X112141992Y-37137368D02*
X112254624Y-37250000D01*
X109936544Y-37137368D02*
X112141992Y-37137368D01*
D29*
%TO.N,Net-(D1-K)*%
X98953402Y-33219612D02*
X101152395Y-31020615D01*
X101152395Y-31020615D02*
X101667398Y-31020613D01*
%TO.N,Net-(D2-A)*%
X98953399Y-38219610D02*
X97699999Y-36966211D01*
X97700000Y-32448010D02*
X101667396Y-28480614D01*
X97699999Y-36966211D02*
X97700000Y-32448010D01*
D30*
%TO.N,12V*%
X105574001Y-50099110D02*
X105574001Y-48423109D01*
X98716000Y-47123110D02*
X98716000Y-48423110D01*
X96924688Y-51424110D02*
X98716000Y-49632798D01*
X98716000Y-49632798D02*
X98716000Y-48423110D01*
X112999002Y-51424109D02*
X106899000Y-51424109D01*
D29*
X98716000Y-48423110D02*
X98716000Y-41531798D01*
D30*
X106899000Y-51424109D02*
X105574001Y-50099110D01*
X114900001Y-48423110D02*
X114900001Y-49523110D01*
D31*
X115000000Y-49698109D02*
X115000000Y-49247798D01*
D30*
X89099999Y-48423109D02*
X89099999Y-48612686D01*
D29*
X98716000Y-41531798D02*
X100966587Y-39281211D01*
D30*
X89099999Y-48612686D02*
X91911423Y-51424110D01*
X114900001Y-49523110D02*
X112999002Y-51424109D01*
X91911423Y-51424110D02*
X96924688Y-51424110D01*
D29*
X100966587Y-39281211D02*
X100966587Y-39247801D01*
D31*
X87000000Y-47148110D02*
X88900312Y-47148110D01*
X88900312Y-47148110D02*
X89000000Y-47247798D01*
X117500001Y-49698109D02*
X115000000Y-49698109D01*
D29*
%TO.N,/PWM*%
X104873909Y-35846573D02*
X103901225Y-35846573D01*
X102337998Y-37409800D02*
X102337998Y-41443608D01*
X103901225Y-35846573D02*
X102337998Y-37409800D01*
%TO.N,/THRESH*%
X99250000Y-35497798D02*
X99000000Y-35747798D01*
X106907393Y-35175191D02*
X106458876Y-34726674D01*
D28*
X109823913Y-35846567D02*
X107578769Y-35846567D01*
D29*
X101482308Y-35497798D02*
X99250000Y-35497798D01*
D28*
X107578769Y-35846567D02*
X106907393Y-35175191D01*
D29*
X101804915Y-35175191D02*
X101482308Y-35497798D01*
X99000000Y-35747798D02*
X98981588Y-35747798D01*
X102253432Y-34726674D02*
X101804915Y-35175191D01*
X98981588Y-35747798D02*
X98953402Y-35719612D01*
X106458876Y-34726674D02*
X102253432Y-34726674D01*
%TO.N,/DISCH*%
X107508398Y-31909611D02*
X106287899Y-33130109D01*
X108020582Y-34862792D02*
X109823917Y-34862792D01*
X106287899Y-33130109D02*
X108020582Y-34862792D01*
X104967400Y-31809607D02*
X106287899Y-33130109D01*
X104967399Y-28480607D02*
X104967400Y-31809607D01*
X107778399Y-31909612D02*
X107508398Y-31909611D01*
D31*
%TO.N,/SwitchGND*%
X111735000Y-46982798D02*
X112000000Y-47247798D01*
D32*
X111874002Y-48423110D02*
X108600000Y-48423109D01*
X111874002Y-44747798D02*
X111874002Y-42810426D01*
D31*
X116500000Y-45747798D02*
X115500000Y-44747798D01*
D32*
X111874002Y-49534282D02*
X111874002Y-44747798D01*
X111874002Y-42810426D02*
X110587797Y-41524221D01*
D31*
X115500000Y-44747798D02*
X111874002Y-44747798D01*
X117500001Y-46747799D02*
X116500000Y-45747798D01*
D32*
X110587797Y-41524221D02*
X110572750Y-41524221D01*
X111867629Y-49540655D02*
X111874002Y-49534282D01*
D31*
X117500001Y-47158109D02*
X117500001Y-46747799D01*
D33*
%TO.N,12V_RPP*%
X108755202Y-36499000D02*
X110723394Y-36499000D01*
X111250000Y-34081494D02*
X110475072Y-33306566D01*
X110723394Y-36499000D02*
X111250000Y-35972394D01*
D34*
X109778396Y-33261052D02*
X109823910Y-33306566D01*
D29*
X109812393Y-31943606D02*
X109778396Y-31909610D01*
D34*
X109778396Y-31909612D02*
X109778396Y-33261052D01*
X104383432Y-37116568D02*
X104873916Y-37116568D01*
X104266589Y-37233411D02*
X104383432Y-37116568D01*
D33*
X111250000Y-35972394D02*
X111250000Y-34081494D01*
X110475072Y-33306566D02*
X109823910Y-33306566D01*
D34*
X104266589Y-39247795D02*
X104266589Y-37233411D01*
D33*
X105160147Y-37116568D02*
X108137634Y-37116568D01*
X108137634Y-37116568D02*
X108755202Y-36499000D01*
%TD*%
%TA.AperFunction,Conductor*%
%TO.N,/SwitchGND*%
G36*
X110515360Y-40550428D02*
G01*
X110561331Y-40603044D01*
X110572749Y-40655017D01*
X110572749Y-42141799D01*
X110553064Y-42208838D01*
X110500260Y-42254593D01*
X110448749Y-42265799D01*
X103920000Y-42265799D01*
X103852961Y-42246114D01*
X103807206Y-42193310D01*
X103796000Y-42141799D01*
X103796000Y-40681774D01*
X103815685Y-40614735D01*
X103868489Y-40568980D01*
X103919487Y-40557775D01*
X110448241Y-40531018D01*
X110515360Y-40550428D01*
G37*
%TD.AperFunction*%
%TD*%
%TA.AperFunction,Conductor*%
%TO.N,12V*%
G36*
X106297881Y-46367114D02*
G01*
X106343852Y-46419730D01*
X106355270Y-46471703D01*
X106355270Y-50367417D01*
X106335585Y-50434456D01*
X106282781Y-50480211D01*
X106231270Y-50491417D01*
X98082969Y-50491417D01*
X98015930Y-50471732D01*
X97970175Y-50418928D01*
X97958969Y-50367417D01*
X97958969Y-46505097D01*
X97978654Y-46438058D01*
X98031458Y-46392303D01*
X98082456Y-46381098D01*
X106230762Y-46347704D01*
X106297881Y-46367114D01*
G37*
%TD.AperFunction*%
%TD*%
%TA.AperFunction,Conductor*%
%TO.N,GND*%
G36*
X116425920Y-23750448D02*
G01*
X116426053Y-23749439D01*
X116434107Y-23750499D01*
X116434109Y-23750500D01*
X116496250Y-23750500D01*
X116503737Y-23750726D01*
X116793797Y-23768271D01*
X116808660Y-23770076D01*
X117090798Y-23821780D01*
X117105335Y-23825363D01*
X117379183Y-23910698D01*
X117393164Y-23916000D01*
X117654735Y-24033724D01*
X117667989Y-24040680D01*
X117913465Y-24189075D01*
X117925776Y-24197573D01*
X118151572Y-24374473D01*
X118151573Y-24374474D01*
X118162781Y-24384404D01*
X118365596Y-24587218D01*
X118375526Y-24598426D01*
X118495481Y-24751538D01*
X118552422Y-24824217D01*
X118560928Y-24836541D01*
X118709319Y-25082012D01*
X118716277Y-25095269D01*
X118833994Y-25356823D01*
X118839304Y-25370825D01*
X118924635Y-25644664D01*
X118928219Y-25659202D01*
X118979923Y-25941340D01*
X118981728Y-25956205D01*
X118999274Y-26246263D01*
X118999500Y-26253750D01*
X118999500Y-55996249D01*
X118999274Y-56003736D01*
X118981728Y-56293794D01*
X118979923Y-56308659D01*
X118928219Y-56590798D01*
X118924635Y-56605336D01*
X118839306Y-56879167D01*
X118833997Y-56893168D01*
X118716275Y-57154736D01*
X118709316Y-57167995D01*
X118560928Y-57413459D01*
X118552422Y-57425782D01*
X118375526Y-57651573D01*
X118365596Y-57662781D01*
X118162781Y-57865596D01*
X118151573Y-57875526D01*
X117925782Y-58052422D01*
X117913459Y-58060928D01*
X117667995Y-58209316D01*
X117654736Y-58216275D01*
X117393168Y-58333997D01*
X117379167Y-58339306D01*
X117105336Y-58424635D01*
X117090798Y-58428219D01*
X116808659Y-58479923D01*
X116793794Y-58481728D01*
X116538939Y-58497144D01*
X116531461Y-58497370D01*
X88003756Y-58499499D01*
X87996260Y-58499273D01*
X87706205Y-58481728D01*
X87691340Y-58479923D01*
X87409201Y-58428219D01*
X87394663Y-58424635D01*
X87120832Y-58339306D01*
X87106831Y-58333997D01*
X86845263Y-58216275D01*
X86832004Y-58209316D01*
X86586540Y-58060928D01*
X86574217Y-58052422D01*
X86348426Y-57875526D01*
X86337218Y-57865596D01*
X86134403Y-57662781D01*
X86124473Y-57651573D01*
X85947573Y-57425776D01*
X85939075Y-57413465D01*
X85790680Y-57167989D01*
X85783727Y-57154743D01*
X85666000Y-56893163D01*
X85660693Y-56879167D01*
X85575364Y-56605336D01*
X85571780Y-56590798D01*
X85520076Y-56308659D01*
X85518271Y-56293794D01*
X85500726Y-56003736D01*
X85500500Y-55996249D01*
X85500500Y-53134414D01*
X93815500Y-53134414D01*
X93815500Y-53311805D01*
X93850103Y-53485768D01*
X93850106Y-53485777D01*
X93917983Y-53649650D01*
X93917990Y-53649663D01*
X94016535Y-53797144D01*
X94016538Y-53797148D01*
X94141961Y-53922571D01*
X94141965Y-53922574D01*
X94289446Y-54021119D01*
X94289459Y-54021126D01*
X94412363Y-54072033D01*
X94453334Y-54089004D01*
X94453336Y-54089004D01*
X94453341Y-54089006D01*
X94627304Y-54123609D01*
X94627307Y-54123610D01*
X94627309Y-54123610D01*
X97004693Y-54123610D01*
X97004694Y-54123609D01*
X97062682Y-54112074D01*
X97178658Y-54089006D01*
X97178661Y-54089004D01*
X97178666Y-54089004D01*
X97342547Y-54021123D01*
X97490035Y-53922574D01*
X97615464Y-53797145D01*
X97714013Y-53649657D01*
X97781894Y-53485776D01*
X97816500Y-53311801D01*
X97816500Y-53134419D01*
X97816500Y-53134416D01*
X97816499Y-53134414D01*
X97781896Y-52960451D01*
X97781893Y-52960442D01*
X97714016Y-52796569D01*
X97714009Y-52796556D01*
X97615464Y-52649075D01*
X97615461Y-52649071D01*
X97490038Y-52523648D01*
X97490034Y-52523645D01*
X97342553Y-52425100D01*
X97342540Y-52425093D01*
X97178667Y-52357216D01*
X97178658Y-52357213D01*
X97004694Y-52322610D01*
X97004691Y-52322610D01*
X94627309Y-52322610D01*
X94627306Y-52322610D01*
X94453341Y-52357213D01*
X94453332Y-52357216D01*
X94289459Y-52425093D01*
X94289446Y-52425100D01*
X94141965Y-52523645D01*
X94141961Y-52523648D01*
X94016538Y-52649071D01*
X94016535Y-52649075D01*
X93917990Y-52796556D01*
X93917983Y-52796569D01*
X93850106Y-52960442D01*
X93850103Y-52960451D01*
X93815500Y-53134414D01*
X85500500Y-53134414D01*
X85500500Y-49601538D01*
X85900000Y-49601538D01*
X85900000Y-49774681D01*
X85927085Y-49945694D01*
X85980592Y-50110369D01*
X86059196Y-50264635D01*
X86063709Y-50270846D01*
X86063709Y-50270847D01*
X86517037Y-49817519D01*
X86534075Y-49881103D01*
X86599901Y-49995117D01*
X86692993Y-50088209D01*
X86807007Y-50154035D01*
X86870589Y-50171072D01*
X86417261Y-50624399D01*
X86417262Y-50624400D01*
X86423471Y-50628911D01*
X86577742Y-50707518D01*
X86742415Y-50761024D01*
X86913429Y-50788110D01*
X87086571Y-50788110D01*
X87257584Y-50761024D01*
X87422257Y-50707518D01*
X87576525Y-50628913D01*
X87582736Y-50624399D01*
X87582737Y-50624399D01*
X87129410Y-50171072D01*
X87192993Y-50154035D01*
X87307007Y-50088209D01*
X87400099Y-49995117D01*
X87465925Y-49881103D01*
X87482962Y-49817519D01*
X87936289Y-50270846D01*
X87940803Y-50264635D01*
X87962646Y-50221766D01*
X88010620Y-50170969D01*
X88078441Y-50154173D01*
X88144576Y-50176709D01*
X88173450Y-50205174D01*
X88222440Y-50272603D01*
X88222444Y-50272608D01*
X88350499Y-50400663D01*
X88350504Y-50400667D01*
X88466137Y-50484678D01*
X88497005Y-50507105D01*
X88602483Y-50560849D01*
X88658359Y-50589320D01*
X88658362Y-50589321D01*
X88712254Y-50606831D01*
X88830590Y-50645280D01*
X88913428Y-50658400D01*
X89009448Y-50673609D01*
X89009453Y-50673609D01*
X89190550Y-50673609D01*
X89283875Y-50658827D01*
X89369408Y-50645280D01*
X89541638Y-50589320D01*
X89702993Y-50507105D01*
X89849500Y-50400662D01*
X89849503Y-50400658D01*
X89851310Y-50399346D01*
X89917117Y-50375866D01*
X89985171Y-50391691D01*
X90011877Y-50411983D01*
X91424011Y-51824117D01*
X91424012Y-51824118D01*
X91511414Y-51911520D01*
X91511417Y-51911523D01*
X91511420Y-51911524D01*
X91614190Y-51980193D01*
X91647638Y-51994047D01*
X91728388Y-52027496D01*
X91849610Y-52051608D01*
X91849615Y-52051609D01*
X91849619Y-52051610D01*
X91849620Y-52051610D01*
X96986492Y-52051610D01*
X96986493Y-52051609D01*
X97107723Y-52027496D01*
X97188472Y-51994047D01*
X97221921Y-51980193D01*
X97324696Y-51911521D01*
X97412099Y-51824118D01*
X97412100Y-51824117D01*
X98552981Y-50683236D01*
X98614304Y-50649751D01*
X98640662Y-50646917D01*
X105183027Y-50646917D01*
X105250066Y-50666602D01*
X105270708Y-50683236D01*
X106411589Y-51824117D01*
X106498992Y-51911520D01*
X106498994Y-51911522D01*
X106498996Y-51911523D01*
X106601756Y-51980185D01*
X106601758Y-51980186D01*
X106601767Y-51980192D01*
X106626772Y-51990549D01*
X106649071Y-51999786D01*
X106685000Y-52014668D01*
X106715966Y-52027495D01*
X106812900Y-52046776D01*
X106837192Y-52051608D01*
X106837196Y-52051609D01*
X109673448Y-52051609D01*
X109740487Y-52071294D01*
X109786242Y-52124098D01*
X109796186Y-52193256D01*
X109767161Y-52256812D01*
X109746333Y-52275927D01*
X109650505Y-52345549D01*
X109650500Y-52345553D01*
X109522445Y-52473608D01*
X109522441Y-52473613D01*
X109416006Y-52620110D01*
X109333788Y-52781468D01*
X109333787Y-52781471D01*
X109277829Y-52953697D01*
X109249500Y-53132556D01*
X109249500Y-53313659D01*
X109277829Y-53492518D01*
X109333787Y-53664744D01*
X109333788Y-53664747D01*
X109416006Y-53826105D01*
X109522441Y-53972602D01*
X109522445Y-53972607D01*
X109650500Y-54100662D01*
X109650505Y-54100666D01*
X109778287Y-54193504D01*
X109797006Y-54207104D01*
X109902484Y-54260848D01*
X109958360Y-54289319D01*
X109958363Y-54289320D01*
X110044476Y-54317299D01*
X110130591Y-54345279D01*
X110213429Y-54358399D01*
X110309449Y-54373608D01*
X110309454Y-54373608D01*
X112690551Y-54373608D01*
X112777259Y-54359873D01*
X112869409Y-54345279D01*
X113041639Y-54289319D01*
X113202994Y-54207104D01*
X113349501Y-54100661D01*
X113477553Y-53972609D01*
X113583996Y-53826102D01*
X113666211Y-53664747D01*
X113722171Y-53492517D01*
X113736765Y-53400367D01*
X113750500Y-53313659D01*
X113750500Y-53132556D01*
X113723239Y-52960444D01*
X113722171Y-52953699D01*
X113671117Y-52796569D01*
X113666212Y-52781471D01*
X113666211Y-52781468D01*
X113598750Y-52649071D01*
X113583996Y-52620114D01*
X113513910Y-52523648D01*
X113477558Y-52473613D01*
X113477554Y-52473608D01*
X113349499Y-52345553D01*
X113349494Y-52345549D01*
X113202993Y-52239111D01*
X113198842Y-52236567D01*
X113199573Y-52235373D01*
X113191517Y-52227764D01*
X113175970Y-52219982D01*
X113166648Y-52204273D01*
X113153367Y-52191727D01*
X113149188Y-52174846D01*
X113140316Y-52159894D01*
X113140967Y-52141638D01*
X113136577Y-52123904D01*
X113142187Y-52107446D01*
X113142807Y-52090069D01*
X113153225Y-52075062D01*
X113159120Y-52057771D01*
X113172864Y-52046776D01*
X113182654Y-52032676D01*
X113213003Y-52014668D01*
X113213003Y-52014667D01*
X113262786Y-51994046D01*
X113296235Y-51980192D01*
X113399010Y-51911520D01*
X113486413Y-51824117D01*
X114615836Y-50694692D01*
X114616625Y-50694261D01*
X114617070Y-50693474D01*
X114647265Y-50677530D01*
X114677157Y-50661209D01*
X114678321Y-50661133D01*
X114678857Y-50660851D01*
X114684639Y-50660726D01*
X114714093Y-50658827D01*
X114718505Y-50659204D01*
X114809455Y-50673610D01*
X114886761Y-50673610D01*
X114892040Y-50674062D01*
X114894070Y-50674852D01*
X114897643Y-50675203D01*
X114897662Y-50675012D01*
X114903724Y-50675609D01*
X114903725Y-50675609D01*
X116532313Y-50675609D01*
X116578370Y-50689133D01*
X116579999Y-50685203D01*
X116591276Y-50689874D01*
X116591279Y-50689876D01*
X116591282Y-50689876D01*
X116591283Y-50689877D01*
X116635178Y-50698609D01*
X116635181Y-50698609D01*
X118364823Y-50698609D01*
X118408718Y-50689877D01*
X118408718Y-50689876D01*
X118408723Y-50689876D01*
X118458505Y-50656613D01*
X118491768Y-50606831D01*
X118500501Y-50562929D01*
X118500501Y-48833289D01*
X118500501Y-48833286D01*
X118491769Y-48789391D01*
X118491768Y-48789390D01*
X118491768Y-48789387D01*
X118458505Y-48739605D01*
X118458504Y-48739604D01*
X118408725Y-48706343D01*
X118408718Y-48706340D01*
X118364823Y-48697609D01*
X118364821Y-48697609D01*
X116635181Y-48697609D01*
X116635179Y-48697609D01*
X116591283Y-48706340D01*
X116579999Y-48711015D01*
X116578284Y-48706876D01*
X116534645Y-48720587D01*
X116532313Y-48720609D01*
X116174501Y-48720609D01*
X116107462Y-48700924D01*
X116061707Y-48648120D01*
X116050501Y-48596609D01*
X116050501Y-47232558D01*
X116022172Y-47053700D01*
X116002178Y-46992167D01*
X115988612Y-46950415D01*
X115986618Y-46880575D01*
X116022698Y-46820742D01*
X116085399Y-46789914D01*
X116154814Y-46797879D01*
X116194225Y-46824417D01*
X116463182Y-47093374D01*
X116496667Y-47154697D01*
X116499501Y-47181055D01*
X116499501Y-47256650D01*
X116499501Y-47256652D01*
X116499500Y-47256652D01*
X116537948Y-47449938D01*
X116537951Y-47449948D01*
X116613365Y-47632016D01*
X116613372Y-47632029D01*
X116722861Y-47795890D01*
X116722864Y-47795894D01*
X116862215Y-47935245D01*
X116862219Y-47935248D01*
X117026080Y-48044737D01*
X117026093Y-48044744D01*
X117208161Y-48120158D01*
X117208166Y-48120160D01*
X117208170Y-48120160D01*
X117208171Y-48120161D01*
X117401457Y-48158609D01*
X117401460Y-48158609D01*
X117598544Y-48158609D01*
X117764437Y-48125610D01*
X117791836Y-48120160D01*
X117973915Y-48044741D01*
X118137783Y-47935248D01*
X118277140Y-47795891D01*
X118386633Y-47632023D01*
X118462052Y-47449944D01*
X118474633Y-47386691D01*
X118500501Y-47256652D01*
X118500501Y-47059565D01*
X118479884Y-46955920D01*
X118477501Y-46931728D01*
X118477501Y-46651522D01*
X118477500Y-46651520D01*
X118462004Y-46573615D01*
X118455350Y-46540159D01*
X118439937Y-46462672D01*
X118429857Y-46438337D01*
X118366253Y-46284782D01*
X118366252Y-46284781D01*
X118366251Y-46284778D01*
X118259275Y-46124679D01*
X118259272Y-46124675D01*
X117123120Y-44988524D01*
X116123123Y-43988526D01*
X116123119Y-43988523D01*
X116036174Y-43930428D01*
X115963021Y-43881548D01*
X115963018Y-43881546D01*
X115963017Y-43881546D01*
X115963016Y-43881545D01*
X115785133Y-43807864D01*
X115785129Y-43807862D01*
X115785127Y-43807862D01*
X115785123Y-43807861D01*
X115785119Y-43807860D01*
X115596279Y-43770298D01*
X115596275Y-43770298D01*
X113125502Y-43770298D01*
X113058463Y-43750613D01*
X113012708Y-43697809D01*
X113001502Y-43646298D01*
X113001502Y-42721690D01*
X112973739Y-42546403D01*
X112949763Y-42472611D01*
X112939487Y-42440984D01*
X112918900Y-42377622D01*
X112918898Y-42377616D01*
X112890995Y-42322856D01*
X112838326Y-42219487D01*
X112824998Y-42201142D01*
X112734016Y-42075915D01*
X112734012Y-42075910D01*
X111322312Y-40664210D01*
X111322307Y-40664206D01*
X111178739Y-40559899D01*
X111178738Y-40559898D01*
X111178736Y-40559897D01*
X111065488Y-40502194D01*
X111020604Y-40479324D01*
X110851823Y-40424484D01*
X110693630Y-40399429D01*
X110676533Y-40396721D01*
X110676532Y-40396721D01*
X110561162Y-40396721D01*
X110526715Y-40391840D01*
X110491440Y-40381639D01*
X110491437Y-40381638D01*
X110491435Y-40381638D01*
X110447604Y-40375519D01*
X110447603Y-40375519D01*
X104665114Y-40399217D01*
X104597995Y-40379807D01*
X104576925Y-40362899D01*
X104560763Y-40346737D01*
X104457990Y-40301358D01*
X104432863Y-40298443D01*
X104043141Y-40298443D01*
X104043115Y-40298445D01*
X104018010Y-40301356D01*
X104018006Y-40301358D01*
X103915232Y-40346736D01*
X103868846Y-40393122D01*
X103836786Y-40416266D01*
X103766659Y-40451460D01*
X103713856Y-40497214D01*
X103708376Y-40502196D01*
X103666486Y-40570919D01*
X103666483Y-40570925D01*
X103646799Y-40637961D01*
X103646797Y-40637971D01*
X103640500Y-40681770D01*
X103640500Y-42141807D01*
X103644054Y-42174854D01*
X103655260Y-42226365D01*
X103689685Y-42295138D01*
X103691865Y-42298401D01*
X103692777Y-42301315D01*
X103693159Y-42302078D01*
X103693035Y-42302139D01*
X103712739Y-42365080D01*
X103694251Y-42432459D01*
X103642270Y-42479147D01*
X103573300Y-42490320D01*
X103569362Y-42489760D01*
X103538000Y-42484792D01*
X103538000Y-43136442D01*
X103837999Y-43136442D01*
X103837999Y-42842462D01*
X103823164Y-42748792D01*
X103823162Y-42748786D01*
X103765643Y-42635900D01*
X103765636Y-42635891D01*
X103750501Y-42620756D01*
X103717016Y-42559433D01*
X103722000Y-42489741D01*
X103763872Y-42433808D01*
X103829336Y-42409391D01*
X103873119Y-42414098D01*
X103876189Y-42415000D01*
X103920000Y-42421299D01*
X109838987Y-42421299D01*
X109906026Y-42440984D01*
X109926668Y-42457618D01*
X110060949Y-42591899D01*
X110094434Y-42653222D01*
X110089450Y-42722914D01*
X110047578Y-42778847D01*
X109982114Y-42803264D01*
X109925816Y-42794141D01*
X109836668Y-42757215D01*
X109836659Y-42757212D01*
X109662695Y-42722609D01*
X109662692Y-42722609D01*
X107285310Y-42722609D01*
X107285307Y-42722609D01*
X107111342Y-42757212D01*
X107111333Y-42757215D01*
X106947460Y-42825092D01*
X106947447Y-42825099D01*
X106799966Y-42923644D01*
X106799962Y-42923647D01*
X106674539Y-43049070D01*
X106674536Y-43049074D01*
X106575991Y-43196555D01*
X106575984Y-43196568D01*
X106508107Y-43360441D01*
X106508104Y-43360450D01*
X106473501Y-43534413D01*
X106473501Y-43711804D01*
X106508104Y-43885767D01*
X106508107Y-43885776D01*
X106575984Y-44049649D01*
X106575991Y-44049662D01*
X106674536Y-44197143D01*
X106674539Y-44197147D01*
X106799962Y-44322570D01*
X106799966Y-44322573D01*
X106947447Y-44421118D01*
X106947460Y-44421125D01*
X107070364Y-44472032D01*
X107111335Y-44489003D01*
X107111337Y-44489003D01*
X107111342Y-44489005D01*
X107285305Y-44523608D01*
X107285308Y-44523609D01*
X107285310Y-44523609D01*
X109662694Y-44523609D01*
X109662695Y-44523608D01*
X109720683Y-44512073D01*
X109836659Y-44489005D01*
X109836662Y-44489003D01*
X109836667Y-44489003D01*
X110000548Y-44421122D01*
X110148036Y-44322573D01*
X110273465Y-44197144D01*
X110372014Y-44049656D01*
X110439895Y-43885775D01*
X110440737Y-43881546D01*
X110462965Y-43769791D01*
X110474501Y-43711800D01*
X110474501Y-43534418D01*
X110474501Y-43534415D01*
X110474500Y-43534413D01*
X110439897Y-43360450D01*
X110439894Y-43360441D01*
X110402968Y-43271293D01*
X110395499Y-43201824D01*
X110426774Y-43139345D01*
X110486863Y-43103693D01*
X110556689Y-43106187D01*
X110605210Y-43136160D01*
X110710183Y-43241133D01*
X110743668Y-43302456D01*
X110746502Y-43328814D01*
X110746502Y-47171609D01*
X110726817Y-47238648D01*
X110674013Y-47284403D01*
X110622502Y-47295609D01*
X109874500Y-47295609D01*
X109807461Y-47275924D01*
X109761706Y-47223120D01*
X109750500Y-47171609D01*
X109750500Y-46108286D01*
X109741768Y-46064391D01*
X109741767Y-46064390D01*
X109741767Y-46064387D01*
X109708504Y-46014605D01*
X109708503Y-46014604D01*
X109658724Y-45981343D01*
X109658717Y-45981340D01*
X109614822Y-45972609D01*
X109614820Y-45972609D01*
X107585180Y-45972609D01*
X107585178Y-45972609D01*
X107541282Y-45981340D01*
X107541275Y-45981343D01*
X107491496Y-46014604D01*
X107491495Y-46014605D01*
X107458234Y-46064384D01*
X107458231Y-46064391D01*
X107449500Y-46108286D01*
X107449500Y-50672609D01*
X107446949Y-50681294D01*
X107448238Y-50690256D01*
X107437259Y-50714296D01*
X107429815Y-50739648D01*
X107422974Y-50745575D01*
X107419213Y-50753812D01*
X107396978Y-50768101D01*
X107377011Y-50785403D01*
X107366496Y-50787690D01*
X107360435Y-50791586D01*
X107325500Y-50796609D01*
X107210281Y-50796609D01*
X107143242Y-50776924D01*
X107122600Y-50760290D01*
X106547089Y-50184779D01*
X106513604Y-50123456D01*
X106510770Y-50097098D01*
X106510770Y-46471702D01*
X106510473Y-46468970D01*
X106507148Y-46438337D01*
X106495730Y-46386364D01*
X106477506Y-46350236D01*
X106466601Y-46318576D01*
X106465768Y-46314387D01*
X106465767Y-46314385D01*
X106432505Y-46264605D01*
X106382726Y-46231344D01*
X106382725Y-46231343D01*
X106382718Y-46231340D01*
X106375529Y-46229910D01*
X106349109Y-46219666D01*
X106348529Y-46220994D01*
X106341080Y-46217735D01*
X106273956Y-46198323D01*
X106230125Y-46192205D01*
X106230124Y-46192205D01*
X99120408Y-46221341D01*
X99053289Y-46201931D01*
X99007318Y-46149315D01*
X98995900Y-46097342D01*
X98995900Y-43930421D01*
X102738001Y-43930421D01*
X102752835Y-44024091D01*
X102752837Y-44024097D01*
X102810356Y-44136983D01*
X102810363Y-44136992D01*
X102899949Y-44226578D01*
X102899954Y-44226581D01*
X103012854Y-44284107D01*
X103037998Y-44288089D01*
X103038000Y-44288088D01*
X103538000Y-44288088D01*
X103538001Y-44288089D01*
X103563145Y-44284107D01*
X103676045Y-44226581D01*
X103676050Y-44226578D01*
X103765636Y-44136992D01*
X103765639Y-44136988D01*
X103823166Y-44024086D01*
X103838000Y-43930428D01*
X103838000Y-43636442D01*
X103538000Y-43636442D01*
X103538000Y-44288088D01*
X103038000Y-44288088D01*
X103038000Y-43636442D01*
X102738001Y-43636442D01*
X102738001Y-43930421D01*
X98995900Y-43930421D01*
X98995900Y-42842455D01*
X102738000Y-42842455D01*
X102738000Y-43136442D01*
X103038000Y-43136442D01*
X103038000Y-42484793D01*
X103012856Y-42488775D01*
X102899953Y-42546302D01*
X102899949Y-42546305D01*
X102810363Y-42635891D01*
X102810360Y-42635895D01*
X102752833Y-42748797D01*
X102738000Y-42842455D01*
X98995900Y-42842455D01*
X98995900Y-41699098D01*
X99015585Y-41632059D01*
X99032219Y-41611417D01*
X100089564Y-40554072D01*
X101887498Y-40554072D01*
X101887498Y-41668797D01*
X101887500Y-41668823D01*
X101890411Y-41693928D01*
X101890413Y-41693932D01*
X101935791Y-41796705D01*
X101935792Y-41796706D01*
X102015233Y-41876147D01*
X102118007Y-41921526D01*
X102143133Y-41924441D01*
X102532862Y-41924440D01*
X102532877Y-41924438D01*
X102532880Y-41924438D01*
X102557985Y-41921527D01*
X102557986Y-41921526D01*
X102557989Y-41921526D01*
X102660763Y-41876147D01*
X102740204Y-41796706D01*
X102785583Y-41693932D01*
X102788498Y-41668806D01*
X102788497Y-40554077D01*
X102787081Y-40541863D01*
X102785584Y-40528953D01*
X102785583Y-40528951D01*
X102785583Y-40528950D01*
X102740204Y-40426176D01*
X102660763Y-40346735D01*
X102654217Y-40340189D01*
X102620732Y-40278866D01*
X102617898Y-40252508D01*
X102617898Y-39710344D01*
X111468516Y-39710344D01*
X111474917Y-39769872D01*
X111474919Y-39769879D01*
X111525161Y-39904586D01*
X111525165Y-39904593D01*
X111611325Y-40019687D01*
X111611328Y-40019690D01*
X111726422Y-40105850D01*
X111726429Y-40105854D01*
X111861136Y-40156096D01*
X111861143Y-40156098D01*
X111920671Y-40162499D01*
X111920688Y-40162500D01*
X112193516Y-40162500D01*
X112693516Y-40162500D01*
X112966344Y-40162500D01*
X112966360Y-40162499D01*
X113025888Y-40156098D01*
X113025895Y-40156096D01*
X113160602Y-40105854D01*
X113160609Y-40105850D01*
X113275703Y-40019690D01*
X113275706Y-40019687D01*
X113361866Y-39904593D01*
X113361870Y-39904586D01*
X113412112Y-39769879D01*
X113412114Y-39769872D01*
X113418515Y-39710344D01*
X113418516Y-39710327D01*
X113418516Y-39575000D01*
X112693516Y-39575000D01*
X112693516Y-40162500D01*
X112193516Y-40162500D01*
X112193516Y-39575000D01*
X111468516Y-39575000D01*
X111468516Y-39710344D01*
X102617898Y-39710344D01*
X102617898Y-37577099D01*
X102637583Y-37510060D01*
X102654212Y-37489423D01*
X103829063Y-36314571D01*
X103890384Y-36281088D01*
X103960076Y-36286072D01*
X103966830Y-36288821D01*
X103978913Y-36294156D01*
X103978918Y-36294158D01*
X104004044Y-36297073D01*
X105743773Y-36297072D01*
X105743788Y-36297070D01*
X105743791Y-36297070D01*
X105768896Y-36294159D01*
X105768897Y-36294158D01*
X105768900Y-36294158D01*
X105871674Y-36248779D01*
X105951115Y-36169338D01*
X105996494Y-36066564D01*
X105999409Y-36041438D01*
X105999408Y-35651709D01*
X105997818Y-35637995D01*
X105996495Y-35626585D01*
X105996494Y-35626583D01*
X105996494Y-35626582D01*
X105951115Y-35523808D01*
X105871674Y-35444367D01*
X105869946Y-35443604D01*
X105768901Y-35398988D01*
X105743774Y-35396073D01*
X104004052Y-35396073D01*
X104004026Y-35396075D01*
X103978921Y-35398986D01*
X103978917Y-35398988D01*
X103876144Y-35444366D01*
X103796705Y-35523805D01*
X103796701Y-35523810D01*
X103777557Y-35567168D01*
X103735382Y-35617096D01*
X103735808Y-35617651D01*
X103733266Y-35619601D01*
X103732470Y-35620544D01*
X103730244Y-35621919D01*
X103729362Y-35622596D01*
X102166136Y-37185824D01*
X102114023Y-37237936D01*
X102114021Y-37237939D01*
X102077173Y-37301762D01*
X102077173Y-37301763D01*
X102058603Y-37371068D01*
X102058098Y-37372951D01*
X102058098Y-40252508D01*
X102038413Y-40319547D01*
X102021779Y-40340189D01*
X101935792Y-40426175D01*
X101890413Y-40528947D01*
X101890413Y-40528949D01*
X101887498Y-40554072D01*
X100089564Y-40554072D01*
X100941183Y-39702453D01*
X101002506Y-39668968D01*
X101028864Y-39666134D01*
X101227217Y-39666134D01*
X101227223Y-39666134D01*
X101300212Y-39655500D01*
X101357705Y-39627393D01*
X101412797Y-39600461D01*
X101501414Y-39511844D01*
X101531505Y-39450290D01*
X101556453Y-39399259D01*
X101567087Y-39326270D01*
X101567087Y-38504998D01*
X101556453Y-38432009D01*
X101554105Y-38427206D01*
X101501414Y-38319423D01*
X101412797Y-38230806D01*
X101300215Y-38175769D01*
X101300213Y-38175768D01*
X101300212Y-38175768D01*
X101227223Y-38165134D01*
X100705951Y-38165134D01*
X100632962Y-38175768D01*
X100632960Y-38175768D01*
X100632958Y-38175769D01*
X100520376Y-38230806D01*
X100431759Y-38319423D01*
X100376722Y-38432005D01*
X100376721Y-38432007D01*
X100376721Y-38432009D01*
X100366087Y-38504998D01*
X100366087Y-39326270D01*
X100371550Y-39363767D01*
X100377413Y-39404013D01*
X100367598Y-39473189D01*
X100342389Y-39509569D01*
X98544138Y-41307822D01*
X98492025Y-41359934D01*
X98492023Y-41359937D01*
X98455175Y-41423760D01*
X98436100Y-41494949D01*
X98436100Y-46098610D01*
X98416415Y-46165649D01*
X98363611Y-46211404D01*
X98312100Y-46222610D01*
X97951178Y-46222610D01*
X97907282Y-46231341D01*
X97907275Y-46231344D01*
X97857496Y-46264605D01*
X97857495Y-46264606D01*
X97824234Y-46314385D01*
X97824231Y-46314392D01*
X97815500Y-46358287D01*
X97815500Y-46423935D01*
X97810477Y-46458869D01*
X97809770Y-46461276D01*
X97809766Y-46461294D01*
X97803469Y-46505093D01*
X97803469Y-49606548D01*
X97783784Y-49673587D01*
X97767150Y-49694229D01*
X96861681Y-50599698D01*
X96800358Y-50633183D01*
X96730666Y-50628199D01*
X96674733Y-50586327D01*
X96650316Y-50520863D01*
X96650000Y-50512017D01*
X96650000Y-48673110D01*
X95900000Y-48673110D01*
X95900000Y-48173110D01*
X96650000Y-48173110D01*
X96650000Y-46098483D01*
X96649999Y-46098481D01*
X96635496Y-46025569D01*
X96635494Y-46025565D01*
X96580239Y-45942870D01*
X96497544Y-45887615D01*
X96497540Y-45887613D01*
X96424627Y-45873110D01*
X95650000Y-45873110D01*
X95650000Y-46690098D01*
X95592993Y-46657185D01*
X95465826Y-46623110D01*
X95334174Y-46623110D01*
X95207007Y-46657185D01*
X95150000Y-46690098D01*
X95150000Y-45873110D01*
X94375373Y-45873110D01*
X94302459Y-45887613D01*
X94302455Y-45887615D01*
X94219760Y-45942870D01*
X94164505Y-46025565D01*
X94164503Y-46025569D01*
X94150000Y-46098481D01*
X94150000Y-48173110D01*
X94900000Y-48173110D01*
X94900000Y-48673110D01*
X94150000Y-48673110D01*
X94150000Y-50672610D01*
X94130315Y-50739649D01*
X94077511Y-50785404D01*
X94026000Y-50796610D01*
X92222704Y-50796610D01*
X92155665Y-50776925D01*
X92135023Y-50760291D01*
X92082682Y-50707950D01*
X92049197Y-50646627D01*
X92054181Y-50576935D01*
X92096053Y-50521002D01*
X92161517Y-50496585D01*
X92161591Y-50496589D01*
X92165999Y-50492972D01*
X92165999Y-49956121D01*
X92223006Y-49989034D01*
X92350173Y-50023109D01*
X92481825Y-50023109D01*
X92608992Y-49989034D01*
X92665999Y-49956121D01*
X92665999Y-50492971D01*
X92707689Y-50484678D01*
X92707691Y-50484678D01*
X92889670Y-50409301D01*
X92889683Y-50409294D01*
X93053461Y-50299860D01*
X93053465Y-50299857D01*
X93192747Y-50160575D01*
X93192750Y-50160571D01*
X93302184Y-49996793D01*
X93302191Y-49996780D01*
X93377568Y-49814802D01*
X93377571Y-49814790D01*
X93415998Y-49621604D01*
X93415999Y-49621601D01*
X93415999Y-48673109D01*
X92915999Y-48673109D01*
X92915999Y-48173109D01*
X93415999Y-48173109D01*
X93415999Y-47224617D01*
X93415998Y-47224613D01*
X93377571Y-47031427D01*
X93377568Y-47031415D01*
X93302191Y-46849437D01*
X93302184Y-46849424D01*
X93192750Y-46685646D01*
X93192747Y-46685642D01*
X93053465Y-46546360D01*
X93053461Y-46546357D01*
X92889683Y-46436923D01*
X92889670Y-46436916D01*
X92707690Y-46361538D01*
X92707682Y-46361536D01*
X92665999Y-46353244D01*
X92665999Y-46890097D01*
X92608992Y-46857184D01*
X92481825Y-46823109D01*
X92350173Y-46823109D01*
X92223006Y-46857184D01*
X92165999Y-46890097D01*
X92165999Y-46353245D01*
X92165998Y-46353244D01*
X92124315Y-46361536D01*
X92124307Y-46361538D01*
X91942327Y-46436916D01*
X91942314Y-46436923D01*
X91778536Y-46546357D01*
X91778532Y-46546360D01*
X91639250Y-46685642D01*
X91639247Y-46685646D01*
X91529813Y-46849424D01*
X91529806Y-46849437D01*
X91454429Y-47031415D01*
X91454426Y-47031427D01*
X91415999Y-47224613D01*
X91415999Y-48173109D01*
X91915999Y-48173109D01*
X91915999Y-48673109D01*
X91415999Y-48673109D01*
X91415999Y-49621604D01*
X91440455Y-49744553D01*
X91434228Y-49814145D01*
X91391364Y-49869322D01*
X91325475Y-49892566D01*
X91257478Y-49876498D01*
X91231157Y-49856425D01*
X90286818Y-48912086D01*
X90253333Y-48850763D01*
X90250499Y-48824405D01*
X90250499Y-47232560D01*
X90250498Y-47232555D01*
X90234206Y-47129693D01*
X90222170Y-47053700D01*
X90166210Y-46881471D01*
X90166210Y-46881469D01*
X90123618Y-46797879D01*
X90083995Y-46720115D01*
X90034158Y-46651520D01*
X89977557Y-46573614D01*
X89977553Y-46573609D01*
X89849498Y-46445554D01*
X89849493Y-46445550D01*
X89702996Y-46339115D01*
X89702995Y-46339114D01*
X89702993Y-46339113D01*
X89651299Y-46312773D01*
X89541638Y-46256897D01*
X89541635Y-46256896D01*
X89398300Y-46210325D01*
X89398299Y-46210324D01*
X89369410Y-46200938D01*
X89369411Y-46200938D01*
X89190550Y-46172609D01*
X89190545Y-46172609D01*
X89018849Y-46172609D01*
X89002665Y-46171015D01*
X89002647Y-46171207D01*
X88996588Y-46170610D01*
X88996587Y-46170610D01*
X88996585Y-46170610D01*
X87967688Y-46170610D01*
X87921630Y-46157085D01*
X87920002Y-46161016D01*
X87908717Y-46156341D01*
X87864822Y-46147610D01*
X87864820Y-46147610D01*
X86135180Y-46147610D01*
X86135178Y-46147610D01*
X86091282Y-46156341D01*
X86091275Y-46156344D01*
X86041496Y-46189605D01*
X86041495Y-46189606D01*
X86008234Y-46239385D01*
X86008231Y-46239392D01*
X85999500Y-46283287D01*
X85999500Y-46283290D01*
X85999500Y-48012930D01*
X85999500Y-48012932D01*
X85999499Y-48012932D01*
X86008231Y-48056827D01*
X86008232Y-48056831D01*
X86008233Y-48056832D01*
X86041496Y-48106614D01*
X86091278Y-48139877D01*
X86091281Y-48139877D01*
X86091282Y-48139878D01*
X86135177Y-48148610D01*
X87825499Y-48148610D01*
X87892538Y-48168295D01*
X87938293Y-48221099D01*
X87949499Y-48272610D01*
X87949499Y-49040800D01*
X87929814Y-49107839D01*
X87913180Y-49128481D01*
X87482962Y-49558699D01*
X87465925Y-49495117D01*
X87400099Y-49381103D01*
X87307007Y-49288011D01*
X87192993Y-49222185D01*
X87129409Y-49205147D01*
X87582737Y-48751819D01*
X87576525Y-48747306D01*
X87422259Y-48668702D01*
X87257584Y-48615195D01*
X87086571Y-48588110D01*
X86913429Y-48588110D01*
X86742415Y-48615195D01*
X86577740Y-48668702D01*
X86423480Y-48747303D01*
X86423463Y-48747313D01*
X86417261Y-48751818D01*
X86417261Y-48751819D01*
X86870590Y-49205147D01*
X86807007Y-49222185D01*
X86692993Y-49288011D01*
X86599901Y-49381103D01*
X86534075Y-49495117D01*
X86517037Y-49558700D01*
X86063709Y-49105371D01*
X86063708Y-49105371D01*
X86059203Y-49111573D01*
X86059193Y-49111590D01*
X85980592Y-49265850D01*
X85927085Y-49430525D01*
X85900000Y-49601538D01*
X85500500Y-49601538D01*
X85500500Y-39972143D01*
X89703407Y-39972143D01*
X89703407Y-40267076D01*
X89703408Y-40267093D01*
X89741903Y-40559494D01*
X89741906Y-40559507D01*
X89818242Y-40844400D01*
X89818245Y-40844410D01*
X89931111Y-41116891D01*
X89931116Y-41116902D01*
X90078581Y-41372317D01*
X90078587Y-41372325D01*
X90195184Y-41524277D01*
X90959196Y-40760265D01*
X91014374Y-40836212D01*
X91136805Y-40958643D01*
X91276882Y-41060414D01*
X91336022Y-41090547D01*
X90548738Y-41877831D01*
X90700691Y-41994429D01*
X90700699Y-41994435D01*
X90956114Y-42141900D01*
X90956125Y-42141905D01*
X91225207Y-42253363D01*
X91279610Y-42297204D01*
X91301675Y-42363498D01*
X91284396Y-42431197D01*
X91233259Y-42478808D01*
X91197153Y-42490397D01*
X91130589Y-42500940D01*
X90958363Y-42556898D01*
X90958360Y-42556899D01*
X90797002Y-42639117D01*
X90650505Y-42745552D01*
X90650500Y-42745556D01*
X90522445Y-42873611D01*
X90522441Y-42873616D01*
X90416006Y-43020113D01*
X90333788Y-43181471D01*
X90333787Y-43181474D01*
X90277829Y-43353700D01*
X90249500Y-43532559D01*
X90249500Y-43713662D01*
X90277829Y-43892521D01*
X90333787Y-44064747D01*
X90333788Y-44064750D01*
X90416006Y-44226108D01*
X90522441Y-44372605D01*
X90522445Y-44372610D01*
X90650500Y-44500665D01*
X90650505Y-44500669D01*
X90682080Y-44523609D01*
X90797006Y-44607107D01*
X90898973Y-44659062D01*
X90958360Y-44689322D01*
X90958363Y-44689323D01*
X91044476Y-44717302D01*
X91130591Y-44745282D01*
X91213429Y-44758402D01*
X91309449Y-44773611D01*
X91309454Y-44773611D01*
X93690551Y-44773611D01*
X93777259Y-44759876D01*
X93869409Y-44745282D01*
X94041639Y-44689322D01*
X94202994Y-44607107D01*
X94349501Y-44500664D01*
X94477553Y-44372612D01*
X94583996Y-44226105D01*
X94666211Y-44064750D01*
X94722171Y-43892520D01*
X94744647Y-43750613D01*
X94750500Y-43713662D01*
X94750500Y-43532559D01*
X94734019Y-43428508D01*
X94722171Y-43353702D01*
X94666211Y-43181472D01*
X94666211Y-43181471D01*
X94598748Y-43049070D01*
X94583996Y-43020117D01*
X94513907Y-42923647D01*
X94477558Y-42873616D01*
X94477554Y-42873611D01*
X94349499Y-42745556D01*
X94349494Y-42745552D01*
X94202997Y-42639117D01*
X94202996Y-42639116D01*
X94202994Y-42639115D01*
X94151300Y-42612775D01*
X94041639Y-42556899D01*
X94041636Y-42556898D01*
X93869410Y-42500940D01*
X93690551Y-42472611D01*
X93690546Y-42472611D01*
X92775686Y-42472611D01*
X92708647Y-42452926D01*
X92662892Y-42400122D01*
X92652948Y-42330964D01*
X92681973Y-42267408D01*
X92728233Y-42234050D01*
X92950688Y-42141905D01*
X92950699Y-42141900D01*
X93206114Y-41994435D01*
X93206132Y-41994423D01*
X93358074Y-41877832D01*
X93358074Y-41877830D01*
X92570791Y-41090547D01*
X92629932Y-41060414D01*
X92770009Y-40958643D01*
X92892440Y-40836212D01*
X92947617Y-40760266D01*
X93711627Y-41524277D01*
X93711629Y-41524277D01*
X93828220Y-41372335D01*
X93828232Y-41372317D01*
X93975697Y-41116902D01*
X93975702Y-41116891D01*
X94088568Y-40844410D01*
X94088571Y-40844400D01*
X94164907Y-40559507D01*
X94164910Y-40559494D01*
X94203405Y-40267093D01*
X94203407Y-40267076D01*
X94203407Y-39972143D01*
X94203405Y-39972126D01*
X94164910Y-39679725D01*
X94164907Y-39679712D01*
X94088571Y-39394819D01*
X94088568Y-39394809D01*
X93975702Y-39122328D01*
X93975697Y-39122317D01*
X93828232Y-38866902D01*
X93828226Y-38866894D01*
X93711628Y-38714941D01*
X92947616Y-39478952D01*
X92892440Y-39403008D01*
X92770009Y-39280577D01*
X92629932Y-39178806D01*
X92570790Y-39148671D01*
X93358074Y-38361387D01*
X93206122Y-38244790D01*
X93206114Y-38244784D01*
X92950699Y-38097319D01*
X92950688Y-38097314D01*
X92678207Y-37984448D01*
X92678197Y-37984445D01*
X92393304Y-37908109D01*
X92393291Y-37908106D01*
X92100890Y-37869611D01*
X92100873Y-37869610D01*
X91805941Y-37869610D01*
X91805923Y-37869611D01*
X91513522Y-37908106D01*
X91513509Y-37908109D01*
X91228616Y-37984445D01*
X91228606Y-37984448D01*
X90956125Y-38097314D01*
X90956114Y-38097319D01*
X90700699Y-38244784D01*
X90700683Y-38244795D01*
X90548738Y-38361385D01*
X90548738Y-38361387D01*
X91336022Y-39148671D01*
X91276882Y-39178806D01*
X91136805Y-39280577D01*
X91014374Y-39403008D01*
X90959196Y-39478953D01*
X90195184Y-38714941D01*
X90195182Y-38714941D01*
X90078592Y-38866886D01*
X90078581Y-38866902D01*
X89931116Y-39122317D01*
X89931111Y-39122328D01*
X89818245Y-39394809D01*
X89818242Y-39394819D01*
X89741906Y-39679712D01*
X89741903Y-39679725D01*
X89703408Y-39972126D01*
X89703407Y-39972143D01*
X85500500Y-39972143D01*
X85500500Y-31172145D01*
X89703401Y-31172145D01*
X89703401Y-31467078D01*
X89703402Y-31467095D01*
X89741897Y-31759496D01*
X89741900Y-31759509D01*
X89818236Y-32044402D01*
X89818239Y-32044412D01*
X89931105Y-32316893D01*
X89931110Y-32316904D01*
X90078575Y-32572319D01*
X90078581Y-32572327D01*
X90195178Y-32724279D01*
X90959189Y-31960267D01*
X91014368Y-32036214D01*
X91136799Y-32158645D01*
X91276876Y-32260416D01*
X91336016Y-32290549D01*
X90548732Y-33077833D01*
X90700685Y-33194431D01*
X90700693Y-33194437D01*
X90956108Y-33341902D01*
X90956119Y-33341907D01*
X91228600Y-33454773D01*
X91228610Y-33454776D01*
X91513503Y-33531112D01*
X91513516Y-33531115D01*
X91805917Y-33569610D01*
X91805935Y-33569612D01*
X92100867Y-33569612D01*
X92100884Y-33569610D01*
X92393285Y-33531115D01*
X92393298Y-33531112D01*
X92678191Y-33454776D01*
X92678201Y-33454773D01*
X92950682Y-33341907D01*
X92950693Y-33341902D01*
X93206108Y-33194437D01*
X93206126Y-33194425D01*
X93358068Y-33077834D01*
X93358068Y-33077832D01*
X92570785Y-32290549D01*
X92629926Y-32260416D01*
X92770003Y-32158645D01*
X92892434Y-32036214D01*
X92947611Y-31960268D01*
X93711621Y-32724279D01*
X93711623Y-32724279D01*
X93828214Y-32572337D01*
X93828226Y-32572319D01*
X93921271Y-32411161D01*
X97420099Y-32411161D01*
X97420099Y-34709480D01*
X97420099Y-36929360D01*
X97420099Y-36929361D01*
X97420099Y-37003061D01*
X97439174Y-37074249D01*
X97476023Y-37138073D01*
X97476025Y-37138075D01*
X97974858Y-37636908D01*
X98008343Y-37698231D01*
X98003359Y-37767923D01*
X98001738Y-37772041D01*
X97943273Y-37913187D01*
X97943270Y-37913199D01*
X97902902Y-38116142D01*
X97902902Y-38323081D01*
X97943270Y-38526024D01*
X97943272Y-38526032D01*
X98022460Y-38717208D01*
X98137426Y-38889269D01*
X98283744Y-39035587D01*
X98283747Y-39035589D01*
X98455804Y-39150553D01*
X98646982Y-39229742D01*
X98849932Y-39270111D01*
X98849936Y-39270112D01*
X98849937Y-39270112D01*
X99056868Y-39270112D01*
X99056869Y-39270111D01*
X99259822Y-39229742D01*
X99451000Y-39150553D01*
X99623057Y-39035589D01*
X99769379Y-38889267D01*
X99884343Y-38717210D01*
X99963532Y-38526032D01*
X100003902Y-38323077D01*
X100003902Y-38116147D01*
X99963532Y-37913192D01*
X99884343Y-37722014D01*
X99769379Y-37549957D01*
X99769377Y-37549954D01*
X99623059Y-37403636D01*
X99485064Y-37311432D01*
X99451000Y-37288671D01*
X99328520Y-37237938D01*
X99259822Y-37209482D01*
X99259814Y-37209480D01*
X99056871Y-37169112D01*
X99056867Y-37169112D01*
X98849937Y-37169112D01*
X98849932Y-37169112D01*
X98646989Y-37209480D01*
X98646981Y-37209482D01*
X98505830Y-37267949D01*
X98436360Y-37275418D01*
X98373881Y-37244143D01*
X98370696Y-37241069D01*
X98016218Y-36886591D01*
X97982733Y-36825268D01*
X97979899Y-36798910D01*
X97979899Y-36531104D01*
X97999584Y-36464065D01*
X98052388Y-36418310D01*
X98121546Y-36408366D01*
X98185102Y-36437391D01*
X98191580Y-36443423D01*
X98283744Y-36535587D01*
X98283747Y-36535589D01*
X98455804Y-36650553D01*
X98646982Y-36729742D01*
X98849932Y-36770111D01*
X98849936Y-36770112D01*
X98849937Y-36770112D01*
X99056868Y-36770112D01*
X99056869Y-36770111D01*
X99259822Y-36729742D01*
X99451000Y-36650553D01*
X99623057Y-36535589D01*
X99769379Y-36389267D01*
X99884343Y-36217210D01*
X99963532Y-36026032D01*
X99976748Y-35959589D01*
X99993076Y-35877507D01*
X100025461Y-35815596D01*
X100086176Y-35781022D01*
X100114693Y-35777698D01*
X100977167Y-35777698D01*
X101044206Y-35797383D01*
X101064848Y-35814017D01*
X101091567Y-35840736D01*
X101091569Y-35840737D01*
X101091573Y-35840741D01*
X101204609Y-35898336D01*
X101204613Y-35898338D01*
X101298390Y-35913190D01*
X101298396Y-35913191D01*
X102311433Y-35913190D01*
X102405219Y-35898337D01*
X102518257Y-35840741D01*
X102607965Y-35751033D01*
X102665561Y-35637995D01*
X102665561Y-35637993D01*
X102665562Y-35637992D01*
X102680414Y-35544215D01*
X102680415Y-35544210D01*
X102680414Y-35130573D01*
X102700098Y-35063535D01*
X102752902Y-35017780D01*
X102804414Y-35006574D01*
X103912953Y-35006574D01*
X103963038Y-35017139D01*
X103975041Y-35022438D01*
X103978922Y-35024152D01*
X104004048Y-35027067D01*
X105743777Y-35027066D01*
X105743792Y-35027064D01*
X105743795Y-35027064D01*
X105768898Y-35024153D01*
X105768900Y-35024152D01*
X105768904Y-35024152D01*
X105784789Y-35017137D01*
X105834872Y-35006574D01*
X106291576Y-35006574D01*
X106358615Y-35026259D01*
X106379257Y-35042893D01*
X106735528Y-35399165D01*
X106741977Y-35404113D01*
X106741415Y-35404844D01*
X106755103Y-35415346D01*
X107408380Y-36068623D01*
X107471658Y-36105156D01*
X107542235Y-36124067D01*
X107615303Y-36124067D01*
X108470855Y-36124067D01*
X108537894Y-36143752D01*
X108583649Y-36196556D01*
X108593593Y-36265714D01*
X108564568Y-36329270D01*
X108558536Y-36335748D01*
X108068535Y-36825749D01*
X108007212Y-36859234D01*
X107980854Y-36862068D01*
X106062062Y-36862068D01*
X105995023Y-36842383D01*
X105959829Y-36801767D01*
X105957616Y-36803284D01*
X105951122Y-36793804D01*
X105951122Y-36793803D01*
X105871681Y-36714362D01*
X105871679Y-36714361D01*
X105768908Y-36668983D01*
X105743781Y-36666068D01*
X104004059Y-36666068D01*
X104004033Y-36666070D01*
X103978928Y-36668981D01*
X103978924Y-36668983D01*
X103876151Y-36714361D01*
X103796710Y-36793802D01*
X103751331Y-36896574D01*
X103751331Y-36896576D01*
X103748416Y-36921699D01*
X103748416Y-37311424D01*
X103748418Y-37311450D01*
X103751329Y-37336555D01*
X103751331Y-37336559D01*
X103796709Y-37439332D01*
X103848770Y-37491393D01*
X103882255Y-37552716D01*
X103885089Y-37579074D01*
X103885089Y-38121762D01*
X103865404Y-38188801D01*
X103827251Y-38222752D01*
X103828737Y-38224834D01*
X103820375Y-38230804D01*
X103731763Y-38319415D01*
X103731761Y-38319417D01*
X103676724Y-38431999D01*
X103676723Y-38432001D01*
X103676723Y-38432003D01*
X103666089Y-38504992D01*
X103666089Y-39326264D01*
X103676723Y-39399253D01*
X103676723Y-39399254D01*
X103676724Y-39399256D01*
X103731761Y-39511838D01*
X103820378Y-39600455D01*
X103928161Y-39653146D01*
X103932964Y-39655494D01*
X104005953Y-39666128D01*
X104005959Y-39666128D01*
X104527219Y-39666128D01*
X104527225Y-39666128D01*
X104600214Y-39655494D01*
X104657707Y-39627387D01*
X104712799Y-39600455D01*
X104801413Y-39511841D01*
X104801415Y-39511839D01*
X104856455Y-39399253D01*
X104867089Y-39326264D01*
X104867089Y-38939655D01*
X111468516Y-38939655D01*
X111468516Y-39075000D01*
X112193516Y-39075000D01*
X112693516Y-39075000D01*
X113418516Y-39075000D01*
X113418516Y-38939672D01*
X113418515Y-38939655D01*
X113412114Y-38880127D01*
X113412112Y-38880120D01*
X113361870Y-38745413D01*
X113361866Y-38745406D01*
X113275706Y-38630312D01*
X113275703Y-38630309D01*
X113160609Y-38544149D01*
X113160602Y-38544145D01*
X113025895Y-38493903D01*
X113025888Y-38493901D01*
X112966360Y-38487500D01*
X112693516Y-38487500D01*
X112693516Y-39075000D01*
X112193516Y-39075000D01*
X112193516Y-38487500D01*
X111920671Y-38487500D01*
X111861143Y-38493901D01*
X111861136Y-38493903D01*
X111726429Y-38544145D01*
X111726422Y-38544149D01*
X111611328Y-38630309D01*
X111611325Y-38630312D01*
X111525165Y-38745406D01*
X111525161Y-38745413D01*
X111474919Y-38880120D01*
X111474917Y-38880127D01*
X111468516Y-38939655D01*
X104867089Y-38939655D01*
X104867089Y-38504992D01*
X104856455Y-38432003D01*
X104854107Y-38427200D01*
X104801416Y-38319417D01*
X104712803Y-38230804D01*
X104704441Y-38224834D01*
X104706047Y-38222583D01*
X104666040Y-38186025D01*
X104648089Y-38121762D01*
X104648089Y-37691067D01*
X104667774Y-37624028D01*
X104720578Y-37578273D01*
X104772089Y-37567067D01*
X105743772Y-37567067D01*
X105743780Y-37567067D01*
X105743795Y-37567065D01*
X105743798Y-37567065D01*
X105768903Y-37564154D01*
X105768904Y-37564153D01*
X105768907Y-37564153D01*
X105871681Y-37518774D01*
X105951122Y-37439333D01*
X105951124Y-37439326D01*
X105957616Y-37429852D01*
X105960018Y-37431497D01*
X105993710Y-37391608D01*
X106060495Y-37371078D01*
X106062062Y-37371068D01*
X108188255Y-37371068D01*
X108188257Y-37371068D01*
X108271568Y-37336560D01*
X108281793Y-37332325D01*
X108281793Y-37332324D01*
X108281797Y-37332323D01*
X108486735Y-37127383D01*
X108548053Y-37093902D01*
X108617745Y-37098886D01*
X108673679Y-37140757D01*
X108698096Y-37206221D01*
X108698412Y-37215067D01*
X108698412Y-37311424D01*
X108698414Y-37311451D01*
X108701325Y-37336556D01*
X108701327Y-37336560D01*
X108746705Y-37439333D01*
X108746706Y-37439334D01*
X108826147Y-37518775D01*
X108928921Y-37564154D01*
X108954047Y-37567069D01*
X110693776Y-37567068D01*
X110693791Y-37567066D01*
X110693794Y-37567066D01*
X110718899Y-37564155D01*
X110718900Y-37564154D01*
X110718903Y-37564154D01*
X110821677Y-37518775D01*
X110889266Y-37451186D01*
X110950590Y-37417702D01*
X110976947Y-37414868D01*
X111444017Y-37414868D01*
X111511056Y-37434553D01*
X111556811Y-37487357D01*
X111568017Y-37538868D01*
X111568017Y-37619018D01*
X111582870Y-37712804D01*
X111640466Y-37825842D01*
X111640468Y-37825844D01*
X111640470Y-37825847D01*
X111730168Y-37915545D01*
X111730170Y-37915546D01*
X111730174Y-37915550D01*
X111843210Y-37973145D01*
X111843214Y-37973147D01*
X111936991Y-37987999D01*
X111936997Y-37988000D01*
X112950034Y-37987999D01*
X113043820Y-37973146D01*
X113156858Y-37915550D01*
X113246566Y-37825842D01*
X113304162Y-37712804D01*
X113304162Y-37712802D01*
X113304163Y-37712801D01*
X113316183Y-37636908D01*
X113319016Y-37619019D01*
X113319015Y-36880982D01*
X113304162Y-36787196D01*
X113246566Y-36674158D01*
X113246562Y-36674154D01*
X113246561Y-36674152D01*
X113156863Y-36584454D01*
X113156860Y-36584452D01*
X113156858Y-36584450D01*
X113080033Y-36545305D01*
X113043817Y-36526852D01*
X112950040Y-36512000D01*
X111936998Y-36512000D01*
X111856035Y-36524823D01*
X111843212Y-36526854D01*
X111730174Y-36584450D01*
X111730173Y-36584451D01*
X111730168Y-36584454D01*
X111640470Y-36674152D01*
X111640467Y-36674157D01*
X111640466Y-36674158D01*
X111582870Y-36787196D01*
X111582870Y-36787197D01*
X111580340Y-36792163D01*
X111532365Y-36842959D01*
X111469855Y-36859868D01*
X111021807Y-36859868D01*
X110954768Y-36840183D01*
X110909013Y-36787379D01*
X110899069Y-36718221D01*
X110928094Y-36654665D01*
X110934125Y-36648187D01*
X110982375Y-36599936D01*
X111376723Y-36205586D01*
X111376726Y-36205585D01*
X111394162Y-36188149D01*
X111394163Y-36188149D01*
X111465755Y-36116557D01*
X111465755Y-36116555D01*
X111465757Y-36116554D01*
X111486462Y-36066564D01*
X111504500Y-36023017D01*
X111504500Y-34146559D01*
X111504501Y-34146550D01*
X111504501Y-34030872D01*
X111504501Y-34030871D01*
X111465755Y-33937331D01*
X110985728Y-33457304D01*
X110952243Y-33395981D01*
X110949409Y-33369623D01*
X110949409Y-33111709D01*
X110949409Y-33111702D01*
X110948800Y-33106450D01*
X110946496Y-33086578D01*
X110946495Y-33086576D01*
X110946495Y-33086575D01*
X110901116Y-32983801D01*
X110821675Y-32904360D01*
X110821673Y-32904359D01*
X110718902Y-32858981D01*
X110693778Y-32856066D01*
X110693775Y-32856066D01*
X110283896Y-32856066D01*
X110216857Y-32836381D01*
X110171102Y-32783577D01*
X110159896Y-32732066D01*
X110159896Y-32456216D01*
X110179581Y-32389177D01*
X110232385Y-32343422D01*
X110245575Y-32338286D01*
X110253696Y-32335647D01*
X110253697Y-32335646D01*
X110253700Y-32335646D01*
X110366738Y-32278050D01*
X110456446Y-32188342D01*
X110514042Y-32075304D01*
X110514042Y-32075302D01*
X110514043Y-32075301D01*
X110528895Y-31981524D01*
X110528896Y-31981519D01*
X110528895Y-31018482D01*
X110514042Y-30924696D01*
X110456446Y-30811658D01*
X110456442Y-30811654D01*
X110456441Y-30811652D01*
X110366743Y-30721954D01*
X110366740Y-30721952D01*
X110366738Y-30721950D01*
X110274961Y-30675187D01*
X110253697Y-30664352D01*
X110159920Y-30649500D01*
X109396878Y-30649500D01*
X109315915Y-30662323D01*
X109303092Y-30664354D01*
X109190054Y-30721950D01*
X109190053Y-30721951D01*
X109190048Y-30721954D01*
X109100350Y-30811652D01*
X109100347Y-30811657D01*
X109042748Y-30924698D01*
X109027896Y-31018475D01*
X109027896Y-31981517D01*
X109034685Y-32024380D01*
X109042750Y-32075304D01*
X109100346Y-32188342D01*
X109100348Y-32188344D01*
X109100350Y-32188347D01*
X109190048Y-32278045D01*
X109190050Y-32278046D01*
X109190054Y-32278050D01*
X109303092Y-32335646D01*
X109303096Y-32335646D01*
X109311215Y-32338285D01*
X109368890Y-32377723D01*
X109396088Y-32442082D01*
X109396896Y-32456216D01*
X109396896Y-32732066D01*
X109377211Y-32799105D01*
X109324407Y-32844860D01*
X109272896Y-32856066D01*
X108954053Y-32856066D01*
X108954027Y-32856068D01*
X108928922Y-32858979D01*
X108928918Y-32858981D01*
X108826145Y-32904359D01*
X108746704Y-32983800D01*
X108701325Y-33086572D01*
X108701325Y-33086574D01*
X108698410Y-33111697D01*
X108698410Y-33501422D01*
X108698412Y-33501448D01*
X108701323Y-33526553D01*
X108701325Y-33526557D01*
X108746703Y-33629330D01*
X108746704Y-33629331D01*
X108826145Y-33708772D01*
X108928919Y-33754151D01*
X108954045Y-33757066D01*
X110514291Y-33757065D01*
X110543731Y-33765709D01*
X110573718Y-33772233D01*
X110578733Y-33775987D01*
X110581330Y-33776750D01*
X110601972Y-33793384D01*
X110722968Y-33914380D01*
X110756453Y-33975703D01*
X110751469Y-34045395D01*
X110709597Y-34101328D01*
X110644133Y-34125745D01*
X110635287Y-34126061D01*
X108954060Y-34126061D01*
X108954034Y-34126063D01*
X108928929Y-34128974D01*
X108928925Y-34128976D01*
X108826152Y-34174354D01*
X108746711Y-34253795D01*
X108701332Y-34356567D01*
X108701332Y-34356569D01*
X108698417Y-34381692D01*
X108698417Y-34458892D01*
X108678732Y-34525931D01*
X108625928Y-34571686D01*
X108574417Y-34582892D01*
X108187882Y-34582892D01*
X108120843Y-34563207D01*
X108100201Y-34546573D01*
X106771417Y-33217789D01*
X106737932Y-33156466D01*
X106742916Y-33086774D01*
X106771413Y-33042432D01*
X107427027Y-32386817D01*
X107488350Y-32353333D01*
X107514708Y-32350499D01*
X108159913Y-32350499D01*
X108159914Y-32350499D01*
X108253700Y-32335646D01*
X108366738Y-32278050D01*
X108456446Y-32188342D01*
X108514042Y-32075304D01*
X108514042Y-32075302D01*
X108514043Y-32075301D01*
X108528895Y-31981524D01*
X108528896Y-31981519D01*
X108528895Y-31018482D01*
X108514042Y-30924696D01*
X108456446Y-30811658D01*
X108456442Y-30811654D01*
X108456441Y-30811652D01*
X108366743Y-30721954D01*
X108366740Y-30721952D01*
X108366738Y-30721950D01*
X108274961Y-30675187D01*
X108253697Y-30664352D01*
X108159920Y-30649500D01*
X107396878Y-30649500D01*
X107315915Y-30662323D01*
X107303092Y-30664354D01*
X107190054Y-30721950D01*
X107190053Y-30721951D01*
X107190048Y-30721954D01*
X107100350Y-30811652D01*
X107100347Y-30811657D01*
X107042748Y-30924698D01*
X107027896Y-31018475D01*
X107027896Y-31942910D01*
X107008211Y-32009949D01*
X106991577Y-32030591D01*
X106375580Y-32646588D01*
X106314257Y-32680073D01*
X106244565Y-32675089D01*
X106200218Y-32646588D01*
X105424017Y-31870386D01*
X105390532Y-31809063D01*
X105395516Y-31739371D01*
X105424015Y-31695025D01*
X105502223Y-31616818D01*
X105557263Y-31504232D01*
X105567897Y-31431243D01*
X105567897Y-30609971D01*
X105557263Y-30536982D01*
X105554915Y-30532179D01*
X105502224Y-30424396D01*
X105413609Y-30335781D01*
X105316838Y-30288472D01*
X105265256Y-30241344D01*
X105247299Y-30177072D01*
X105247299Y-29324142D01*
X105266984Y-29257103D01*
X105316837Y-29212743D01*
X105413612Y-29165433D01*
X105502227Y-29076818D01*
X105502228Y-29076817D01*
X105529160Y-29021725D01*
X105557267Y-28964232D01*
X105567901Y-28891243D01*
X105567901Y-28069971D01*
X105557267Y-27996982D01*
X105554919Y-27992179D01*
X105502228Y-27884396D01*
X105413611Y-27795779D01*
X105301029Y-27740742D01*
X105301027Y-27740741D01*
X105301026Y-27740741D01*
X105228037Y-27730107D01*
X104706765Y-27730107D01*
X104633776Y-27740741D01*
X104633774Y-27740741D01*
X104633772Y-27740742D01*
X104521190Y-27795779D01*
X104432573Y-27884396D01*
X104377536Y-27996978D01*
X104377535Y-27996980D01*
X104377535Y-27996982D01*
X104366901Y-28069971D01*
X104366901Y-28891243D01*
X104377535Y-28964232D01*
X104377535Y-28964233D01*
X104377536Y-28964235D01*
X104432573Y-29076817D01*
X104521187Y-29165431D01*
X104521188Y-29165431D01*
X104521190Y-29165433D01*
X104617960Y-29212741D01*
X104669542Y-29259868D01*
X104687499Y-29324141D01*
X104687499Y-30177070D01*
X104667814Y-30244109D01*
X104617960Y-30288470D01*
X104521184Y-30335781D01*
X104432569Y-30424396D01*
X104377532Y-30536978D01*
X104377531Y-30536980D01*
X104377531Y-30536982D01*
X104366897Y-30609971D01*
X104366897Y-31431243D01*
X104377531Y-31504232D01*
X104377531Y-31504233D01*
X104377532Y-31504235D01*
X104432569Y-31616817D01*
X104521184Y-31705432D01*
X104521185Y-31705432D01*
X104521186Y-31705433D01*
X104619306Y-31753401D01*
X104670887Y-31800526D01*
X104684365Y-31838883D01*
X104685397Y-31838607D01*
X104687500Y-31846455D01*
X104687500Y-31846457D01*
X104706575Y-31917644D01*
X104743424Y-31981469D01*
X105024645Y-32262691D01*
X105306838Y-32544884D01*
X105340323Y-32606207D01*
X105335339Y-32675899D01*
X105293467Y-32731832D01*
X105228003Y-32756249D01*
X105219157Y-32756565D01*
X105123914Y-32756565D01*
X105123914Y-33856564D01*
X105730393Y-33856564D01*
X105824063Y-33841729D01*
X105824069Y-33841727D01*
X105936955Y-33784208D01*
X105936964Y-33784201D01*
X106026550Y-33694615D01*
X106026553Y-33694611D01*
X106084077Y-33581715D01*
X106085207Y-33578237D01*
X106087727Y-33574549D01*
X106088509Y-33573017D01*
X106088707Y-33573117D01*
X106124642Y-33520560D01*
X106189000Y-33493359D01*
X106257846Y-33505270D01*
X106290821Y-33528869D01*
X107848720Y-35086768D01*
X107912545Y-35123617D01*
X107983732Y-35142692D01*
X107983734Y-35142692D01*
X109860765Y-35142692D01*
X109860767Y-35142692D01*
X109931954Y-35123617D01*
X109995779Y-35086768D01*
X110019168Y-35063379D01*
X110080491Y-35029894D01*
X110106849Y-35027060D01*
X110693773Y-35027060D01*
X110693781Y-35027060D01*
X110693796Y-35027058D01*
X110693799Y-35027058D01*
X110718904Y-35024147D01*
X110718904Y-35024146D01*
X110718908Y-35024146D01*
X110821415Y-34978884D01*
X110855316Y-34974445D01*
X110889147Y-34969581D01*
X110889886Y-34969918D01*
X110890692Y-34969813D01*
X110921622Y-34984411D01*
X110952703Y-34998606D01*
X110953141Y-34999289D01*
X110953877Y-34999636D01*
X110971999Y-35028632D01*
X110990477Y-35057384D01*
X110990628Y-35058439D01*
X110990908Y-35058886D01*
X110995500Y-35092319D01*
X110995500Y-35330810D01*
X110975815Y-35397849D01*
X110923011Y-35443604D01*
X110853853Y-35453548D01*
X110821414Y-35444244D01*
X110718908Y-35398983D01*
X110718904Y-35398982D01*
X110693778Y-35396067D01*
X108954056Y-35396067D01*
X108954030Y-35396069D01*
X108928925Y-35398980D01*
X108928921Y-35398982D01*
X108826148Y-35444360D01*
X108826147Y-35444361D01*
X108738582Y-35531927D01*
X108735656Y-35529001D01*
X108698550Y-35559311D01*
X108650339Y-35569067D01*
X107745076Y-35569067D01*
X107678037Y-35549382D01*
X107657395Y-35532748D01*
X107147548Y-35022901D01*
X107137046Y-35009213D01*
X107136315Y-35009775D01*
X107131367Y-35003326D01*
X106630739Y-34502699D01*
X106630738Y-34502698D01*
X106566913Y-34465849D01*
X106566914Y-34465849D01*
X106540950Y-34458892D01*
X106495726Y-34446774D01*
X106495724Y-34446774D01*
X106115809Y-34446774D01*
X106048770Y-34427089D01*
X106003015Y-34374285D01*
X105997114Y-34357970D01*
X105951119Y-34253802D01*
X105871678Y-34174361D01*
X105768905Y-34128982D01*
X105743778Y-34126067D01*
X104004056Y-34126067D01*
X104004030Y-34126069D01*
X103978925Y-34128980D01*
X103978921Y-34128982D01*
X103876148Y-34174360D01*
X103796707Y-34253801D01*
X103747560Y-34365109D01*
X103746060Y-34364446D01*
X103715075Y-34414847D01*
X103652111Y-34445135D01*
X103632017Y-34446774D01*
X102381697Y-34446774D01*
X102362298Y-34445247D01*
X102311438Y-34437191D01*
X101298397Y-34437191D01*
X101217434Y-34450014D01*
X101204611Y-34452045D01*
X101091573Y-34509641D01*
X101091572Y-34509642D01*
X101091567Y-34509645D01*
X101001869Y-34599343D01*
X101001866Y-34599348D01*
X100944267Y-34712389D01*
X100929415Y-34806166D01*
X100929415Y-34806171D01*
X100929415Y-34806172D01*
X100929415Y-35011356D01*
X100929416Y-35093898D01*
X100909732Y-35160937D01*
X100856928Y-35206692D01*
X100805416Y-35217898D01*
X99947872Y-35217898D01*
X99880833Y-35198213D01*
X99844771Y-35162790D01*
X99769379Y-35049957D01*
X99769377Y-35049954D01*
X99623059Y-34903636D01*
X99477183Y-34806166D01*
X99451000Y-34788671D01*
X99259822Y-34709482D01*
X99259814Y-34709480D01*
X99056871Y-34669112D01*
X99056867Y-34669112D01*
X98849937Y-34669112D01*
X98849932Y-34669112D01*
X98646989Y-34709480D01*
X98646981Y-34709482D01*
X98455805Y-34788670D01*
X98283744Y-34903636D01*
X98283743Y-34903637D01*
X98191580Y-34995801D01*
X98130257Y-35029286D01*
X98060565Y-35024302D01*
X98004632Y-34982430D01*
X97980215Y-34916966D01*
X97979899Y-34908120D01*
X97979899Y-34031104D01*
X97999584Y-33964065D01*
X98052388Y-33918310D01*
X98121546Y-33908366D01*
X98185102Y-33937391D01*
X98191580Y-33943423D01*
X98283744Y-34035587D01*
X98283747Y-34035589D01*
X98455804Y-34150553D01*
X98646982Y-34229742D01*
X98767936Y-34253801D01*
X98849932Y-34270111D01*
X98849936Y-34270112D01*
X98849937Y-34270112D01*
X99056868Y-34270112D01*
X99056869Y-34270111D01*
X99259822Y-34229742D01*
X99451000Y-34150553D01*
X99623057Y-34035589D01*
X99769379Y-33889267D01*
X99884343Y-33717210D01*
X99963532Y-33526032D01*
X99971587Y-33485535D01*
X100829915Y-33485535D01*
X100836316Y-33545063D01*
X100836318Y-33545070D01*
X100886560Y-33679777D01*
X100886564Y-33679784D01*
X100972724Y-33794878D01*
X100972727Y-33794881D01*
X101087821Y-33881041D01*
X101087828Y-33881045D01*
X101222535Y-33931287D01*
X101222542Y-33931289D01*
X101282070Y-33937690D01*
X101282087Y-33937691D01*
X101554915Y-33937691D01*
X102054915Y-33937691D01*
X102327743Y-33937691D01*
X102327759Y-33937690D01*
X102387287Y-33931289D01*
X102387294Y-33931287D01*
X102522001Y-33881045D01*
X102522008Y-33881041D01*
X102637102Y-33794881D01*
X102637105Y-33794878D01*
X102723265Y-33679784D01*
X102723269Y-33679777D01*
X102769224Y-33556565D01*
X103659765Y-33556565D01*
X103663747Y-33581708D01*
X103721274Y-33694611D01*
X103721277Y-33694615D01*
X103810863Y-33784201D01*
X103810867Y-33784204D01*
X103923769Y-33841731D01*
X104017428Y-33856564D01*
X104623913Y-33856564D01*
X104623914Y-33856563D01*
X104623914Y-33556565D01*
X103659765Y-33556565D01*
X102769224Y-33556565D01*
X102773511Y-33545070D01*
X102773513Y-33545064D01*
X102777687Y-33506246D01*
X102777687Y-33506244D01*
X102779914Y-33485530D01*
X102779915Y-33485518D01*
X102779915Y-33350191D01*
X102054915Y-33350191D01*
X102054915Y-33937691D01*
X101554915Y-33937691D01*
X101554915Y-33350191D01*
X100829915Y-33350191D01*
X100829915Y-33485535D01*
X99971587Y-33485535D01*
X100003902Y-33323077D01*
X100003902Y-33116147D01*
X99992050Y-33056565D01*
X103659765Y-33056565D01*
X104623914Y-33056565D01*
X104623914Y-32756565D01*
X104017434Y-32756565D01*
X103923764Y-32771400D01*
X103923758Y-32771402D01*
X103810872Y-32828921D01*
X103810863Y-32828928D01*
X103721277Y-32918514D01*
X103721274Y-32918518D01*
X103663747Y-33031421D01*
X103659765Y-33056565D01*
X99992050Y-33056565D01*
X99963532Y-32913192D01*
X99905063Y-32772038D01*
X99902926Y-32752162D01*
X99895941Y-32733433D01*
X99899268Y-32718136D01*
X99898914Y-32714846D01*
X100829915Y-32714846D01*
X100829915Y-32850191D01*
X101554915Y-32850191D01*
X102054915Y-32850191D01*
X102779915Y-32850191D01*
X102779915Y-32714863D01*
X102779914Y-32714846D01*
X102773513Y-32655318D01*
X102773511Y-32655311D01*
X102723269Y-32520604D01*
X102723265Y-32520597D01*
X102637105Y-32405503D01*
X102637102Y-32405500D01*
X102522008Y-32319340D01*
X102522001Y-32319336D01*
X102387294Y-32269094D01*
X102387287Y-32269092D01*
X102327759Y-32262691D01*
X102054915Y-32262691D01*
X102054915Y-32850191D01*
X101554915Y-32850191D01*
X101554915Y-32262691D01*
X101282070Y-32262691D01*
X101222542Y-32269092D01*
X101222535Y-32269094D01*
X101087828Y-32319336D01*
X101087821Y-32319340D01*
X100972727Y-32405500D01*
X100972724Y-32405503D01*
X100886564Y-32520597D01*
X100886560Y-32520604D01*
X100836318Y-32655311D01*
X100836316Y-32655318D01*
X100829915Y-32714846D01*
X99898914Y-32714846D01*
X99897595Y-32702571D01*
X99906543Y-32684694D01*
X99910793Y-32665160D01*
X99927479Y-32642869D01*
X99928870Y-32640092D01*
X99931920Y-32636930D01*
X100954614Y-31614233D01*
X101015937Y-31580749D01*
X101085628Y-31585733D01*
X101129976Y-31614234D01*
X101221182Y-31705440D01*
X101324968Y-31756177D01*
X101333768Y-31760479D01*
X101406757Y-31771113D01*
X101406763Y-31771113D01*
X101928023Y-31771113D01*
X101928029Y-31771113D01*
X102001018Y-31760479D01*
X102058511Y-31732372D01*
X102113603Y-31705440D01*
X102202220Y-31616823D01*
X102229152Y-31561731D01*
X102257259Y-31504238D01*
X102267893Y-31431249D01*
X102267893Y-30609977D01*
X102257259Y-30536988D01*
X102254911Y-30532185D01*
X102202220Y-30424402D01*
X102113603Y-30335785D01*
X102001021Y-30280748D01*
X102001019Y-30280747D01*
X102001018Y-30280747D01*
X101928029Y-30270113D01*
X101406757Y-30270113D01*
X101333768Y-30280747D01*
X101333766Y-30280747D01*
X101333764Y-30280748D01*
X101221182Y-30335785D01*
X101132565Y-30424402D01*
X101077528Y-30536984D01*
X101077527Y-30536986D01*
X101077527Y-30536988D01*
X101066893Y-30609977D01*
X101066893Y-30609982D01*
X101066893Y-30675187D01*
X101047208Y-30742226D01*
X101004896Y-30782572D01*
X100980532Y-30796639D01*
X99536104Y-32241068D01*
X99474781Y-32274553D01*
X99405089Y-32269569D01*
X99400981Y-32267952D01*
X99259822Y-32209482D01*
X99259814Y-32209480D01*
X99056871Y-32169112D01*
X99056867Y-32169112D01*
X98849937Y-32169112D01*
X98849932Y-32169112D01*
X98657659Y-32207357D01*
X98588067Y-32201130D01*
X98532890Y-32158266D01*
X98509646Y-32092376D01*
X98525714Y-32024380D01*
X98545783Y-31998063D01*
X101280700Y-29263146D01*
X101342021Y-29229663D01*
X101386253Y-29228125D01*
X101406761Y-29231113D01*
X101406765Y-29231113D01*
X101928027Y-29231113D01*
X101928033Y-29231113D01*
X102001022Y-29220479D01*
X102058515Y-29192372D01*
X102113607Y-29165440D01*
X102202224Y-29076823D01*
X102229156Y-29021731D01*
X102257263Y-28964238D01*
X102267897Y-28891249D01*
X102267897Y-28069977D01*
X102257263Y-27996988D01*
X102254915Y-27992185D01*
X102202224Y-27884402D01*
X102113607Y-27795785D01*
X102001025Y-27740748D01*
X102001023Y-27740747D01*
X102001022Y-27740747D01*
X101928033Y-27730113D01*
X101406761Y-27730113D01*
X101333772Y-27740747D01*
X101333770Y-27740747D01*
X101333768Y-27740748D01*
X101221186Y-27795785D01*
X101132569Y-27884402D01*
X101077532Y-27996984D01*
X101077531Y-27996986D01*
X101077531Y-27996988D01*
X101066897Y-28069977D01*
X101066897Y-28069982D01*
X101066897Y-28633913D01*
X101047212Y-28700952D01*
X101030578Y-28721594D01*
X97476025Y-32276146D01*
X97476023Y-32276149D01*
X97439175Y-32339972D01*
X97420099Y-32411161D01*
X93921271Y-32411161D01*
X93975691Y-32316904D01*
X93975696Y-32316893D01*
X94088562Y-32044412D01*
X94088565Y-32044402D01*
X94164901Y-31759509D01*
X94164904Y-31759496D01*
X94203399Y-31467095D01*
X94203401Y-31467078D01*
X94203401Y-31172145D01*
X94203399Y-31172128D01*
X94164904Y-30879727D01*
X94164901Y-30879714D01*
X94088565Y-30594821D01*
X94088562Y-30594811D01*
X93975696Y-30322330D01*
X93975691Y-30322319D01*
X93828226Y-30066904D01*
X93828220Y-30066896D01*
X93711622Y-29914943D01*
X92947610Y-30678954D01*
X92892434Y-30603010D01*
X92770003Y-30480579D01*
X92629926Y-30378808D01*
X92570784Y-30348673D01*
X93358068Y-29561389D01*
X93206116Y-29444792D01*
X93206108Y-29444786D01*
X92950693Y-29297321D01*
X92950682Y-29297316D01*
X92678201Y-29184450D01*
X92678191Y-29184447D01*
X92393298Y-29108111D01*
X92393285Y-29108108D01*
X92100884Y-29069613D01*
X92100867Y-29069612D01*
X91805935Y-29069612D01*
X91805917Y-29069613D01*
X91513516Y-29108108D01*
X91513503Y-29108111D01*
X91228610Y-29184447D01*
X91228600Y-29184450D01*
X90956119Y-29297316D01*
X90956108Y-29297321D01*
X90700693Y-29444786D01*
X90700677Y-29444797D01*
X90548732Y-29561387D01*
X90548732Y-29561389D01*
X91336016Y-30348673D01*
X91276876Y-30378808D01*
X91136799Y-30480579D01*
X91014368Y-30603010D01*
X90959190Y-30678955D01*
X90195178Y-29914943D01*
X90195176Y-29914943D01*
X90078586Y-30066888D01*
X90078575Y-30066904D01*
X89931110Y-30322319D01*
X89931105Y-30322330D01*
X89818239Y-30594811D01*
X89818236Y-30594821D01*
X89741900Y-30879714D01*
X89741897Y-30879727D01*
X89703402Y-31172128D01*
X89703401Y-31172145D01*
X85500500Y-31172145D01*
X85500500Y-26253750D01*
X85500726Y-26246263D01*
X85518271Y-25956205D01*
X85520076Y-25941340D01*
X85571780Y-25659201D01*
X85575364Y-25644663D01*
X85652096Y-25398422D01*
X85660696Y-25370822D01*
X85665998Y-25356841D01*
X85783731Y-25095249D01*
X85790679Y-25082012D01*
X85939080Y-24836526D01*
X85947567Y-24824230D01*
X86124480Y-24598417D01*
X86134395Y-24587226D01*
X86337226Y-24384395D01*
X86348417Y-24374480D01*
X86574230Y-24197567D01*
X86586526Y-24189080D01*
X86832016Y-24040676D01*
X86845249Y-24033731D01*
X87106841Y-23915998D01*
X87120822Y-23910696D01*
X87394668Y-23825362D01*
X87409197Y-23821780D01*
X87691344Y-23770075D01*
X87706201Y-23768271D01*
X87996264Y-23750726D01*
X88003751Y-23750500D01*
X88065890Y-23750500D01*
X88065892Y-23750500D01*
X88065893Y-23750499D01*
X88073948Y-23749439D01*
X88074080Y-23750448D01*
X88090434Y-23748298D01*
X116409567Y-23748298D01*
X116425920Y-23750448D01*
G37*
%TD.AperFunction*%
%TD*%
M02*
