%TF.GenerationSoftware,KiCad,Pcbnew,9.0.3*%
%TF.CreationDate,2025-07-15T20:34:28+12:00*%
%TF.ProjectId,LED_Dimmer,4c45445f-4469-46d6-9d65-722e6b696361,rev?*%
%TF.SameCoordinates,Original*%
%TF.FileFunction,Legend,Top*%
%TF.FilePolarity,Positive*%
%FSLAX46Y46*%
G04 Gerber Fmt 4.6, Leading zero omitted, Abs format (unit mm)*
G04 Created by KiCad (PCBNEW 9.0.3) date 2025-07-15 20:34:28*
%MOMM*%
%LPD*%
G01*
G04 APERTURE LIST*
%ADD10C,0.150000*%
%ADD11C,0.250000*%
%ADD12C,0.120000*%
%ADD13C,0.000000*%
G04 APERTURE END LIST*
D10*
X87122493Y-34119819D02*
X87122493Y-34834104D01*
X87122493Y-34834104D02*
X87074874Y-34976961D01*
X87074874Y-34976961D02*
X86979636Y-35072200D01*
X86979636Y-35072200D02*
X86836779Y-35119819D01*
X86836779Y-35119819D02*
X86741541Y-35119819D01*
X88074874Y-35119819D02*
X87598684Y-35119819D01*
X87598684Y-35119819D02*
X87598684Y-34119819D01*
X88979636Y-35024580D02*
X88932017Y-35072200D01*
X88932017Y-35072200D02*
X88789160Y-35119819D01*
X88789160Y-35119819D02*
X88693922Y-35119819D01*
X88693922Y-35119819D02*
X88551065Y-35072200D01*
X88551065Y-35072200D02*
X88455827Y-34976961D01*
X88455827Y-34976961D02*
X88408208Y-34881723D01*
X88408208Y-34881723D02*
X88360589Y-34691247D01*
X88360589Y-34691247D02*
X88360589Y-34548390D01*
X88360589Y-34548390D02*
X88408208Y-34357914D01*
X88408208Y-34357914D02*
X88455827Y-34262676D01*
X88455827Y-34262676D02*
X88551065Y-34167438D01*
X88551065Y-34167438D02*
X88693922Y-34119819D01*
X88693922Y-34119819D02*
X88789160Y-34119819D01*
X88789160Y-34119819D02*
X88932017Y-34167438D01*
X88932017Y-34167438D02*
X88979636Y-34215057D01*
X89693922Y-34119819D02*
X89693922Y-34834104D01*
X89693922Y-34834104D02*
X89646303Y-34976961D01*
X89646303Y-34976961D02*
X89551065Y-35072200D01*
X89551065Y-35072200D02*
X89408208Y-35119819D01*
X89408208Y-35119819D02*
X89312970Y-35119819D01*
X90646303Y-35119819D02*
X90170113Y-35119819D01*
X90170113Y-35119819D02*
X90170113Y-34119819D01*
X91551065Y-35024580D02*
X91503446Y-35072200D01*
X91503446Y-35072200D02*
X91360589Y-35119819D01*
X91360589Y-35119819D02*
X91265351Y-35119819D01*
X91265351Y-35119819D02*
X91122494Y-35072200D01*
X91122494Y-35072200D02*
X91027256Y-34976961D01*
X91027256Y-34976961D02*
X90979637Y-34881723D01*
X90979637Y-34881723D02*
X90932018Y-34691247D01*
X90932018Y-34691247D02*
X90932018Y-34548390D01*
X90932018Y-34548390D02*
X90979637Y-34357914D01*
X90979637Y-34357914D02*
X91027256Y-34262676D01*
X91027256Y-34262676D02*
X91122494Y-34167438D01*
X91122494Y-34167438D02*
X91265351Y-34119819D01*
X91265351Y-34119819D02*
X91360589Y-34119819D01*
X91360589Y-34119819D02*
X91503446Y-34167438D01*
X91503446Y-34167438D02*
X91551065Y-34215057D01*
X92265351Y-34119819D02*
X92265351Y-34834104D01*
X92265351Y-34834104D02*
X92217732Y-34976961D01*
X92217732Y-34976961D02*
X92122494Y-35072200D01*
X92122494Y-35072200D02*
X91979637Y-35119819D01*
X91979637Y-35119819D02*
X91884399Y-35119819D01*
X93217732Y-35119819D02*
X92741542Y-35119819D01*
X92741542Y-35119819D02*
X92741542Y-34119819D01*
X94122494Y-35024580D02*
X94074875Y-35072200D01*
X94074875Y-35072200D02*
X93932018Y-35119819D01*
X93932018Y-35119819D02*
X93836780Y-35119819D01*
X93836780Y-35119819D02*
X93693923Y-35072200D01*
X93693923Y-35072200D02*
X93598685Y-34976961D01*
X93598685Y-34976961D02*
X93551066Y-34881723D01*
X93551066Y-34881723D02*
X93503447Y-34691247D01*
X93503447Y-34691247D02*
X93503447Y-34548390D01*
X93503447Y-34548390D02*
X93551066Y-34357914D01*
X93551066Y-34357914D02*
X93598685Y-34262676D01*
X93598685Y-34262676D02*
X93693923Y-34167438D01*
X93693923Y-34167438D02*
X93836780Y-34119819D01*
X93836780Y-34119819D02*
X93932018Y-34119819D01*
X93932018Y-34119819D02*
X94074875Y-34167438D01*
X94074875Y-34167438D02*
X94122494Y-34215057D01*
X94836780Y-34119819D02*
X94836780Y-34834104D01*
X94836780Y-34834104D02*
X94789161Y-34976961D01*
X94789161Y-34976961D02*
X94693923Y-35072200D01*
X94693923Y-35072200D02*
X94551066Y-35119819D01*
X94551066Y-35119819D02*
X94455828Y-35119819D01*
X95789161Y-35119819D02*
X95312971Y-35119819D01*
X95312971Y-35119819D02*
X95312971Y-34119819D01*
X96693923Y-35024580D02*
X96646304Y-35072200D01*
X96646304Y-35072200D02*
X96503447Y-35119819D01*
X96503447Y-35119819D02*
X96408209Y-35119819D01*
X96408209Y-35119819D02*
X96265352Y-35072200D01*
X96265352Y-35072200D02*
X96170114Y-34976961D01*
X96170114Y-34976961D02*
X96122495Y-34881723D01*
X96122495Y-34881723D02*
X96074876Y-34691247D01*
X96074876Y-34691247D02*
X96074876Y-34548390D01*
X96074876Y-34548390D02*
X96122495Y-34357914D01*
X96122495Y-34357914D02*
X96170114Y-34262676D01*
X96170114Y-34262676D02*
X96265352Y-34167438D01*
X96265352Y-34167438D02*
X96408209Y-34119819D01*
X96408209Y-34119819D02*
X96503447Y-34119819D01*
X96503447Y-34119819D02*
X96646304Y-34167438D01*
X96646304Y-34167438D02*
X96693923Y-34215057D01*
X85693922Y-44369819D02*
X86027255Y-45369819D01*
X86027255Y-45369819D02*
X86360588Y-44369819D01*
X87265350Y-45274580D02*
X87217731Y-45322200D01*
X87217731Y-45322200D02*
X87074874Y-45369819D01*
X87074874Y-45369819D02*
X86979636Y-45369819D01*
X86979636Y-45369819D02*
X86836779Y-45322200D01*
X86836779Y-45322200D02*
X86741541Y-45226961D01*
X86741541Y-45226961D02*
X86693922Y-45131723D01*
X86693922Y-45131723D02*
X86646303Y-44941247D01*
X86646303Y-44941247D02*
X86646303Y-44798390D01*
X86646303Y-44798390D02*
X86693922Y-44607914D01*
X86693922Y-44607914D02*
X86741541Y-44512676D01*
X86741541Y-44512676D02*
X86836779Y-44417438D01*
X86836779Y-44417438D02*
X86979636Y-44369819D01*
X86979636Y-44369819D02*
X87074874Y-44369819D01*
X87074874Y-44369819D02*
X87217731Y-44417438D01*
X87217731Y-44417438D02*
X87265350Y-44465057D01*
X88265350Y-45274580D02*
X88217731Y-45322200D01*
X88217731Y-45322200D02*
X88074874Y-45369819D01*
X88074874Y-45369819D02*
X87979636Y-45369819D01*
X87979636Y-45369819D02*
X87836779Y-45322200D01*
X87836779Y-45322200D02*
X87741541Y-45226961D01*
X87741541Y-45226961D02*
X87693922Y-45131723D01*
X87693922Y-45131723D02*
X87646303Y-44941247D01*
X87646303Y-44941247D02*
X87646303Y-44798390D01*
X87646303Y-44798390D02*
X87693922Y-44607914D01*
X87693922Y-44607914D02*
X87741541Y-44512676D01*
X87741541Y-44512676D02*
X87836779Y-44417438D01*
X87836779Y-44417438D02*
X87979636Y-44369819D01*
X87979636Y-44369819D02*
X88074874Y-44369819D01*
X88074874Y-44369819D02*
X88217731Y-44417438D01*
X88217731Y-44417438D02*
X88265350Y-44465057D01*
D11*
X108637117Y-28881445D02*
X107875212Y-28881445D01*
X107875212Y-28881445D02*
X107799021Y-29643350D01*
X107799021Y-29643350D02*
X107875212Y-29567159D01*
X107875212Y-29567159D02*
X108027593Y-29490969D01*
X108027593Y-29490969D02*
X108408545Y-29490969D01*
X108408545Y-29490969D02*
X108560926Y-29567159D01*
X108560926Y-29567159D02*
X108637117Y-29643350D01*
X108637117Y-29643350D02*
X108713307Y-29795731D01*
X108713307Y-29795731D02*
X108713307Y-30176683D01*
X108713307Y-30176683D02*
X108637117Y-30329064D01*
X108637117Y-30329064D02*
X108560926Y-30405255D01*
X108560926Y-30405255D02*
X108408545Y-30481445D01*
X108408545Y-30481445D02*
X108027593Y-30481445D01*
X108027593Y-30481445D02*
X107875212Y-30405255D01*
X107875212Y-30405255D02*
X107799021Y-30329064D01*
X109399022Y-29871921D02*
X110618070Y-29871921D01*
X112218069Y-30481445D02*
X111303783Y-30481445D01*
X111760926Y-30481445D02*
X111760926Y-28881445D01*
X111760926Y-28881445D02*
X111608545Y-29110016D01*
X111608545Y-29110016D02*
X111456164Y-29262397D01*
X111456164Y-29262397D02*
X111303783Y-29338588D01*
X112827593Y-29033826D02*
X112903784Y-28957635D01*
X112903784Y-28957635D02*
X113056165Y-28881445D01*
X113056165Y-28881445D02*
X113437117Y-28881445D01*
X113437117Y-28881445D02*
X113589498Y-28957635D01*
X113589498Y-28957635D02*
X113665689Y-29033826D01*
X113665689Y-29033826D02*
X113741879Y-29186207D01*
X113741879Y-29186207D02*
X113741879Y-29338588D01*
X113741879Y-29338588D02*
X113665689Y-29567159D01*
X113665689Y-29567159D02*
X112751403Y-30481445D01*
X112751403Y-30481445D02*
X113741879Y-30481445D01*
X114199022Y-28881445D02*
X114732356Y-30481445D01*
X114732356Y-30481445D02*
X115265689Y-28881445D01*
X115875213Y-30405255D02*
X115875213Y-30481445D01*
X115875213Y-30481445D02*
X115799023Y-30633826D01*
X115799023Y-30633826D02*
X115722832Y-30710016D01*
X117322833Y-28881445D02*
X116560928Y-28881445D01*
X116560928Y-28881445D02*
X116484737Y-29643350D01*
X116484737Y-29643350D02*
X116560928Y-29567159D01*
X116560928Y-29567159D02*
X116713309Y-29490969D01*
X116713309Y-29490969D02*
X117094261Y-29490969D01*
X117094261Y-29490969D02*
X117246642Y-29567159D01*
X117246642Y-29567159D02*
X117322833Y-29643350D01*
X117322833Y-29643350D02*
X117399023Y-29795731D01*
X117399023Y-29795731D02*
X117399023Y-30176683D01*
X117399023Y-30176683D02*
X117322833Y-30329064D01*
X117322833Y-30329064D02*
X117246642Y-30405255D01*
X117246642Y-30405255D02*
X117094261Y-30481445D01*
X117094261Y-30481445D02*
X116713309Y-30481445D01*
X116713309Y-30481445D02*
X116560928Y-30405255D01*
X116560928Y-30405255D02*
X116484737Y-30329064D01*
X118008547Y-30024302D02*
X118770452Y-30024302D01*
X117856166Y-30481445D02*
X118389500Y-28881445D01*
X118389500Y-28881445D02*
X118922833Y-30481445D01*
X93990999Y-26527892D02*
X92919571Y-26527892D01*
X92919571Y-26527892D02*
X92919571Y-24277892D01*
X94741000Y-25349321D02*
X95491000Y-25349321D01*
X95812428Y-26527892D02*
X94741000Y-26527892D01*
X94741000Y-26527892D02*
X94741000Y-24277892D01*
X94741000Y-24277892D02*
X95812428Y-24277892D01*
X96776714Y-26527892D02*
X96776714Y-24277892D01*
X96776714Y-24277892D02*
X97312428Y-24277892D01*
X97312428Y-24277892D02*
X97633857Y-24385035D01*
X97633857Y-24385035D02*
X97848142Y-24599321D01*
X97848142Y-24599321D02*
X97955285Y-24813607D01*
X97955285Y-24813607D02*
X98062428Y-25242178D01*
X98062428Y-25242178D02*
X98062428Y-25563607D01*
X98062428Y-25563607D02*
X97955285Y-25992178D01*
X97955285Y-25992178D02*
X97848142Y-26206464D01*
X97848142Y-26206464D02*
X97633857Y-26420750D01*
X97633857Y-26420750D02*
X97312428Y-26527892D01*
X97312428Y-26527892D02*
X96776714Y-26527892D01*
X100741000Y-26527892D02*
X100741000Y-24277892D01*
X100741000Y-24277892D02*
X101276714Y-24277892D01*
X101276714Y-24277892D02*
X101598143Y-24385035D01*
X101598143Y-24385035D02*
X101812428Y-24599321D01*
X101812428Y-24599321D02*
X101919571Y-24813607D01*
X101919571Y-24813607D02*
X102026714Y-25242178D01*
X102026714Y-25242178D02*
X102026714Y-25563607D01*
X102026714Y-25563607D02*
X101919571Y-25992178D01*
X101919571Y-25992178D02*
X101812428Y-26206464D01*
X101812428Y-26206464D02*
X101598143Y-26420750D01*
X101598143Y-26420750D02*
X101276714Y-26527892D01*
X101276714Y-26527892D02*
X100741000Y-26527892D01*
X102991000Y-26527892D02*
X102991000Y-25027892D01*
X102991000Y-24277892D02*
X102883857Y-24385035D01*
X102883857Y-24385035D02*
X102991000Y-24492178D01*
X102991000Y-24492178D02*
X103098143Y-24385035D01*
X103098143Y-24385035D02*
X102991000Y-24277892D01*
X102991000Y-24277892D02*
X102991000Y-24492178D01*
X104062429Y-26527892D02*
X104062429Y-25027892D01*
X104062429Y-25242178D02*
X104169572Y-25135035D01*
X104169572Y-25135035D02*
X104383857Y-25027892D01*
X104383857Y-25027892D02*
X104705286Y-25027892D01*
X104705286Y-25027892D02*
X104919572Y-25135035D01*
X104919572Y-25135035D02*
X105026715Y-25349321D01*
X105026715Y-25349321D02*
X105026715Y-26527892D01*
X105026715Y-25349321D02*
X105133857Y-25135035D01*
X105133857Y-25135035D02*
X105348143Y-25027892D01*
X105348143Y-25027892D02*
X105669572Y-25027892D01*
X105669572Y-25027892D02*
X105883857Y-25135035D01*
X105883857Y-25135035D02*
X105991000Y-25349321D01*
X105991000Y-25349321D02*
X105991000Y-26527892D01*
X107062429Y-26527892D02*
X107062429Y-25027892D01*
X107062429Y-25242178D02*
X107169572Y-25135035D01*
X107169572Y-25135035D02*
X107383857Y-25027892D01*
X107383857Y-25027892D02*
X107705286Y-25027892D01*
X107705286Y-25027892D02*
X107919572Y-25135035D01*
X107919572Y-25135035D02*
X108026715Y-25349321D01*
X108026715Y-25349321D02*
X108026715Y-26527892D01*
X108026715Y-25349321D02*
X108133857Y-25135035D01*
X108133857Y-25135035D02*
X108348143Y-25027892D01*
X108348143Y-25027892D02*
X108669572Y-25027892D01*
X108669572Y-25027892D02*
X108883857Y-25135035D01*
X108883857Y-25135035D02*
X108991000Y-25349321D01*
X108991000Y-25349321D02*
X108991000Y-26527892D01*
X110919572Y-26420750D02*
X110705286Y-26527892D01*
X110705286Y-26527892D02*
X110276715Y-26527892D01*
X110276715Y-26527892D02*
X110062429Y-26420750D01*
X110062429Y-26420750D02*
X109955286Y-26206464D01*
X109955286Y-26206464D02*
X109955286Y-25349321D01*
X109955286Y-25349321D02*
X110062429Y-25135035D01*
X110062429Y-25135035D02*
X110276715Y-25027892D01*
X110276715Y-25027892D02*
X110705286Y-25027892D01*
X110705286Y-25027892D02*
X110919572Y-25135035D01*
X110919572Y-25135035D02*
X111026715Y-25349321D01*
X111026715Y-25349321D02*
X111026715Y-25563607D01*
X111026715Y-25563607D02*
X109955286Y-25777892D01*
X111991000Y-26527892D02*
X111991000Y-25027892D01*
X111991000Y-25456464D02*
X112098143Y-25242178D01*
X112098143Y-25242178D02*
X112205286Y-25135035D01*
X112205286Y-25135035D02*
X112419571Y-25027892D01*
X112419571Y-25027892D02*
X112633857Y-25027892D01*
D10*
X115943922Y-51369819D02*
X116277255Y-52369819D01*
X116277255Y-52369819D02*
X116610588Y-51369819D01*
X117515350Y-52274580D02*
X117467731Y-52322200D01*
X117467731Y-52322200D02*
X117324874Y-52369819D01*
X117324874Y-52369819D02*
X117229636Y-52369819D01*
X117229636Y-52369819D02*
X117086779Y-52322200D01*
X117086779Y-52322200D02*
X116991541Y-52226961D01*
X116991541Y-52226961D02*
X116943922Y-52131723D01*
X116943922Y-52131723D02*
X116896303Y-51941247D01*
X116896303Y-51941247D02*
X116896303Y-51798390D01*
X116896303Y-51798390D02*
X116943922Y-51607914D01*
X116943922Y-51607914D02*
X116991541Y-51512676D01*
X116991541Y-51512676D02*
X117086779Y-51417438D01*
X117086779Y-51417438D02*
X117229636Y-51369819D01*
X117229636Y-51369819D02*
X117324874Y-51369819D01*
X117324874Y-51369819D02*
X117467731Y-51417438D01*
X117467731Y-51417438D02*
X117515350Y-51465057D01*
X118515350Y-52274580D02*
X118467731Y-52322200D01*
X118467731Y-52322200D02*
X118324874Y-52369819D01*
X118324874Y-52369819D02*
X118229636Y-52369819D01*
X118229636Y-52369819D02*
X118086779Y-52322200D01*
X118086779Y-52322200D02*
X117991541Y-52226961D01*
X117991541Y-52226961D02*
X117943922Y-52131723D01*
X117943922Y-52131723D02*
X117896303Y-51941247D01*
X117896303Y-51941247D02*
X117896303Y-51798390D01*
X117896303Y-51798390D02*
X117943922Y-51607914D01*
X117943922Y-51607914D02*
X117991541Y-51512676D01*
X117991541Y-51512676D02*
X118086779Y-51417438D01*
X118086779Y-51417438D02*
X118229636Y-51369819D01*
X118229636Y-51369819D02*
X118324874Y-51369819D01*
X118324874Y-51369819D02*
X118467731Y-51417438D01*
X118467731Y-51417438D02*
X118515350Y-51465057D01*
X101620688Y-37222200D02*
X101573069Y-37269820D01*
X101573069Y-37269820D02*
X101430212Y-37317439D01*
X101430212Y-37317439D02*
X101334974Y-37317439D01*
X101334974Y-37317439D02*
X101192117Y-37269820D01*
X101192117Y-37269820D02*
X101096879Y-37174581D01*
X101096879Y-37174581D02*
X101049260Y-37079343D01*
X101049260Y-37079343D02*
X101001641Y-36888867D01*
X101001641Y-36888867D02*
X101001641Y-36746010D01*
X101001641Y-36746010D02*
X101049260Y-36555534D01*
X101049260Y-36555534D02*
X101096879Y-36460296D01*
X101096879Y-36460296D02*
X101192117Y-36365058D01*
X101192117Y-36365058D02*
X101334974Y-36317439D01*
X101334974Y-36317439D02*
X101430212Y-36317439D01*
X101430212Y-36317439D02*
X101573069Y-36365058D01*
X101573069Y-36365058D02*
X101620688Y-36412677D01*
X102001641Y-36412677D02*
X102049260Y-36365058D01*
X102049260Y-36365058D02*
X102144498Y-36317439D01*
X102144498Y-36317439D02*
X102382593Y-36317439D01*
X102382593Y-36317439D02*
X102477831Y-36365058D01*
X102477831Y-36365058D02*
X102525450Y-36412677D01*
X102525450Y-36412677D02*
X102573069Y-36507915D01*
X102573069Y-36507915D02*
X102573069Y-36603153D01*
X102573069Y-36603153D02*
X102525450Y-36746010D01*
X102525450Y-36746010D02*
X101954022Y-37317439D01*
X101954022Y-37317439D02*
X102573069Y-37317439D01*
X106494761Y-41783000D02*
X106399523Y-41735381D01*
X106399523Y-41735381D02*
X106304285Y-41640143D01*
X106304285Y-41640143D02*
X106161428Y-41497285D01*
X106161428Y-41497285D02*
X106066190Y-41449666D01*
X106066190Y-41449666D02*
X105970952Y-41449666D01*
X106018571Y-41687762D02*
X105923333Y-41640143D01*
X105923333Y-41640143D02*
X105828095Y-41544904D01*
X105828095Y-41544904D02*
X105780476Y-41354428D01*
X105780476Y-41354428D02*
X105780476Y-41021095D01*
X105780476Y-41021095D02*
X105828095Y-40830619D01*
X105828095Y-40830619D02*
X105923333Y-40735381D01*
X105923333Y-40735381D02*
X106018571Y-40687762D01*
X106018571Y-40687762D02*
X106209047Y-40687762D01*
X106209047Y-40687762D02*
X106304285Y-40735381D01*
X106304285Y-40735381D02*
X106399523Y-40830619D01*
X106399523Y-40830619D02*
X106447142Y-41021095D01*
X106447142Y-41021095D02*
X106447142Y-41354428D01*
X106447142Y-41354428D02*
X106399523Y-41544904D01*
X106399523Y-41544904D02*
X106304285Y-41640143D01*
X106304285Y-41640143D02*
X106209047Y-41687762D01*
X106209047Y-41687762D02*
X106018571Y-41687762D01*
X107399523Y-41687762D02*
X106828095Y-41687762D01*
X107113809Y-41687762D02*
X107113809Y-40687762D01*
X107113809Y-40687762D02*
X107018571Y-40830619D01*
X107018571Y-40830619D02*
X106923333Y-40925857D01*
X106923333Y-40925857D02*
X106828095Y-40973476D01*
X109249611Y-38134813D02*
X109249611Y-38944336D01*
X109249611Y-38944336D02*
X109297230Y-39039574D01*
X109297230Y-39039574D02*
X109344849Y-39087194D01*
X109344849Y-39087194D02*
X109440087Y-39134813D01*
X109440087Y-39134813D02*
X109630563Y-39134813D01*
X109630563Y-39134813D02*
X109725801Y-39087194D01*
X109725801Y-39087194D02*
X109773420Y-39039574D01*
X109773420Y-39039574D02*
X109821039Y-38944336D01*
X109821039Y-38944336D02*
X109821039Y-38134813D01*
X110821039Y-39134813D02*
X110249611Y-39134813D01*
X110535325Y-39134813D02*
X110535325Y-38134813D01*
X110535325Y-38134813D02*
X110440087Y-38277670D01*
X110440087Y-38277670D02*
X110344849Y-38372908D01*
X110344849Y-38372908D02*
X110249611Y-38420527D01*
X95594888Y-42251848D02*
X95594888Y-42966133D01*
X95594888Y-42966133D02*
X95547269Y-43108990D01*
X95547269Y-43108990D02*
X95452031Y-43204229D01*
X95452031Y-43204229D02*
X95309174Y-43251848D01*
X95309174Y-43251848D02*
X95213936Y-43251848D01*
X95832984Y-43347086D02*
X96594888Y-43347086D01*
X96832984Y-43251848D02*
X96832984Y-42251848D01*
X96832984Y-42251848D02*
X97213936Y-42251848D01*
X97213936Y-42251848D02*
X97309174Y-42299467D01*
X97309174Y-42299467D02*
X97356793Y-42347086D01*
X97356793Y-42347086D02*
X97404412Y-42442324D01*
X97404412Y-42442324D02*
X97404412Y-42585181D01*
X97404412Y-42585181D02*
X97356793Y-42680419D01*
X97356793Y-42680419D02*
X97309174Y-42728038D01*
X97309174Y-42728038D02*
X97213936Y-42775657D01*
X97213936Y-42775657D02*
X96832984Y-42775657D01*
X97785365Y-43204229D02*
X97928222Y-43251848D01*
X97928222Y-43251848D02*
X98166317Y-43251848D01*
X98166317Y-43251848D02*
X98261555Y-43204229D01*
X98261555Y-43204229D02*
X98309174Y-43156609D01*
X98309174Y-43156609D02*
X98356793Y-43061371D01*
X98356793Y-43061371D02*
X98356793Y-42966133D01*
X98356793Y-42966133D02*
X98309174Y-42870895D01*
X98309174Y-42870895D02*
X98261555Y-42823276D01*
X98261555Y-42823276D02*
X98166317Y-42775657D01*
X98166317Y-42775657D02*
X97975841Y-42728038D01*
X97975841Y-42728038D02*
X97880603Y-42680419D01*
X97880603Y-42680419D02*
X97832984Y-42632800D01*
X97832984Y-42632800D02*
X97785365Y-42537562D01*
X97785365Y-42537562D02*
X97785365Y-42442324D01*
X97785365Y-42442324D02*
X97832984Y-42347086D01*
X97832984Y-42347086D02*
X97880603Y-42299467D01*
X97880603Y-42299467D02*
X97975841Y-42251848D01*
X97975841Y-42251848D02*
X98213936Y-42251848D01*
X98213936Y-42251848D02*
X98356793Y-42299467D01*
X99309174Y-43251848D02*
X98737746Y-43251848D01*
X99023460Y-43251848D02*
X99023460Y-42251848D01*
X99023460Y-42251848D02*
X98928222Y-42394705D01*
X98928222Y-42394705D02*
X98832984Y-42489943D01*
X98832984Y-42489943D02*
X98737746Y-42537562D01*
X112208847Y-35892390D02*
X112161228Y-35940010D01*
X112161228Y-35940010D02*
X112018371Y-35987629D01*
X112018371Y-35987629D02*
X111923133Y-35987629D01*
X111923133Y-35987629D02*
X111780276Y-35940010D01*
X111780276Y-35940010D02*
X111685038Y-35844771D01*
X111685038Y-35844771D02*
X111637419Y-35749533D01*
X111637419Y-35749533D02*
X111589800Y-35559057D01*
X111589800Y-35559057D02*
X111589800Y-35416200D01*
X111589800Y-35416200D02*
X111637419Y-35225724D01*
X111637419Y-35225724D02*
X111685038Y-35130486D01*
X111685038Y-35130486D02*
X111780276Y-35035248D01*
X111780276Y-35035248D02*
X111923133Y-34987629D01*
X111923133Y-34987629D02*
X112018371Y-34987629D01*
X112018371Y-34987629D02*
X112161228Y-35035248D01*
X112161228Y-35035248D02*
X112208847Y-35082867D01*
X113161228Y-35987629D02*
X112589800Y-35987629D01*
X112875514Y-35987629D02*
X112875514Y-34987629D01*
X112875514Y-34987629D02*
X112780276Y-35130486D01*
X112780276Y-35130486D02*
X112685038Y-35225724D01*
X112685038Y-35225724D02*
X112589800Y-35273343D01*
X111763051Y-31929854D02*
X111429718Y-31453663D01*
X111191623Y-31929854D02*
X111191623Y-30929854D01*
X111191623Y-30929854D02*
X111572575Y-30929854D01*
X111572575Y-30929854D02*
X111667813Y-30977473D01*
X111667813Y-30977473D02*
X111715432Y-31025092D01*
X111715432Y-31025092D02*
X111763051Y-31120330D01*
X111763051Y-31120330D02*
X111763051Y-31263187D01*
X111763051Y-31263187D02*
X111715432Y-31358425D01*
X111715432Y-31358425D02*
X111667813Y-31406044D01*
X111667813Y-31406044D02*
X111572575Y-31453663D01*
X111572575Y-31453663D02*
X111191623Y-31453663D01*
X112715432Y-31929854D02*
X112144004Y-31929854D01*
X112429718Y-31929854D02*
X112429718Y-30929854D01*
X112429718Y-30929854D02*
X112334480Y-31072711D01*
X112334480Y-31072711D02*
X112239242Y-31167949D01*
X112239242Y-31167949D02*
X112144004Y-31215568D01*
X111424571Y-42454819D02*
X111424571Y-43169104D01*
X111424571Y-43169104D02*
X111376952Y-43311961D01*
X111376952Y-43311961D02*
X111281714Y-43407200D01*
X111281714Y-43407200D02*
X111138857Y-43454819D01*
X111138857Y-43454819D02*
X111043619Y-43454819D01*
X111662667Y-43550057D02*
X112424571Y-43550057D01*
X113138857Y-43454819D02*
X112662667Y-43454819D01*
X112662667Y-43454819D02*
X112662667Y-42454819D01*
X113472191Y-42931009D02*
X113805524Y-42931009D01*
X113948381Y-43454819D02*
X113472191Y-43454819D01*
X113472191Y-43454819D02*
X113472191Y-42454819D01*
X113472191Y-42454819D02*
X113948381Y-42454819D01*
X114376953Y-43454819D02*
X114376953Y-42454819D01*
X114376953Y-42454819D02*
X114615048Y-42454819D01*
X114615048Y-42454819D02*
X114757905Y-42502438D01*
X114757905Y-42502438D02*
X114853143Y-42597676D01*
X114853143Y-42597676D02*
X114900762Y-42692914D01*
X114900762Y-42692914D02*
X114948381Y-42883390D01*
X114948381Y-42883390D02*
X114948381Y-43026247D01*
X114948381Y-43026247D02*
X114900762Y-43216723D01*
X114900762Y-43216723D02*
X114853143Y-43311961D01*
X114853143Y-43311961D02*
X114757905Y-43407200D01*
X114757905Y-43407200D02*
X114615048Y-43454819D01*
X114615048Y-43454819D02*
X114376953Y-43454819D01*
X115900762Y-43454819D02*
X115329334Y-43454819D01*
X115615048Y-43454819D02*
X115615048Y-42454819D01*
X115615048Y-42454819D02*
X115519810Y-42597676D01*
X115519810Y-42597676D02*
X115424572Y-42692914D01*
X115424572Y-42692914D02*
X115329334Y-42740533D01*
X98761905Y-28935429D02*
X98761905Y-27935429D01*
X98761905Y-27935429D02*
X99000000Y-27935429D01*
X99000000Y-27935429D02*
X99142857Y-27983048D01*
X99142857Y-27983048D02*
X99238095Y-28078286D01*
X99238095Y-28078286D02*
X99285714Y-28173524D01*
X99285714Y-28173524D02*
X99333333Y-28364000D01*
X99333333Y-28364000D02*
X99333333Y-28506857D01*
X99333333Y-28506857D02*
X99285714Y-28697333D01*
X99285714Y-28697333D02*
X99238095Y-28792571D01*
X99238095Y-28792571D02*
X99142857Y-28887810D01*
X99142857Y-28887810D02*
X99000000Y-28935429D01*
X99000000Y-28935429D02*
X98761905Y-28935429D01*
X99714286Y-28030667D02*
X99761905Y-27983048D01*
X99761905Y-27983048D02*
X99857143Y-27935429D01*
X99857143Y-27935429D02*
X100095238Y-27935429D01*
X100095238Y-27935429D02*
X100190476Y-27983048D01*
X100190476Y-27983048D02*
X100238095Y-28030667D01*
X100238095Y-28030667D02*
X100285714Y-28125905D01*
X100285714Y-28125905D02*
X100285714Y-28221143D01*
X100285714Y-28221143D02*
X100238095Y-28364000D01*
X100238095Y-28364000D02*
X99666667Y-28935429D01*
X99666667Y-28935429D02*
X100285714Y-28935429D01*
X105511905Y-39370450D02*
X105511905Y-38370450D01*
X105511905Y-38370450D02*
X105750000Y-38370450D01*
X105750000Y-38370450D02*
X105892857Y-38418069D01*
X105892857Y-38418069D02*
X105988095Y-38513307D01*
X105988095Y-38513307D02*
X106035714Y-38608545D01*
X106035714Y-38608545D02*
X106083333Y-38799021D01*
X106083333Y-38799021D02*
X106083333Y-38941878D01*
X106083333Y-38941878D02*
X106035714Y-39132354D01*
X106035714Y-39132354D02*
X105988095Y-39227592D01*
X105988095Y-39227592D02*
X105892857Y-39322831D01*
X105892857Y-39322831D02*
X105750000Y-39370450D01*
X105750000Y-39370450D02*
X105511905Y-39370450D01*
X106416667Y-38370450D02*
X107035714Y-38370450D01*
X107035714Y-38370450D02*
X106702381Y-38751402D01*
X106702381Y-38751402D02*
X106845238Y-38751402D01*
X106845238Y-38751402D02*
X106940476Y-38799021D01*
X106940476Y-38799021D02*
X106988095Y-38846640D01*
X106988095Y-38846640D02*
X107035714Y-38941878D01*
X107035714Y-38941878D02*
X107035714Y-39179973D01*
X107035714Y-39179973D02*
X106988095Y-39275211D01*
X106988095Y-39275211D02*
X106940476Y-39322831D01*
X106940476Y-39322831D02*
X106845238Y-39370450D01*
X106845238Y-39370450D02*
X106559524Y-39370450D01*
X106559524Y-39370450D02*
X106464286Y-39322831D01*
X106464286Y-39322831D02*
X106416667Y-39275211D01*
X94880952Y-30202617D02*
X94880952Y-29202617D01*
X94880952Y-29202617D02*
X95261904Y-29202617D01*
X95261904Y-29202617D02*
X95357142Y-29250236D01*
X95357142Y-29250236D02*
X95404761Y-29297855D01*
X95404761Y-29297855D02*
X95452380Y-29393093D01*
X95452380Y-29393093D02*
X95452380Y-29535950D01*
X95452380Y-29535950D02*
X95404761Y-29631188D01*
X95404761Y-29631188D02*
X95357142Y-29678807D01*
X95357142Y-29678807D02*
X95261904Y-29726426D01*
X95261904Y-29726426D02*
X94880952Y-29726426D01*
X95738095Y-29202617D02*
X96309523Y-29202617D01*
X96023809Y-30202617D02*
X96023809Y-29202617D01*
X97166666Y-30202617D02*
X96595238Y-30202617D01*
X96880952Y-30202617D02*
X96880952Y-29202617D01*
X96880952Y-29202617D02*
X96785714Y-29345474D01*
X96785714Y-29345474D02*
X96690476Y-29440712D01*
X96690476Y-29440712D02*
X96595238Y-29488331D01*
X98769300Y-31475427D02*
X98769300Y-30475427D01*
X98769300Y-30475427D02*
X99007395Y-30475427D01*
X99007395Y-30475427D02*
X99150252Y-30523046D01*
X99150252Y-30523046D02*
X99245490Y-30618284D01*
X99245490Y-30618284D02*
X99293109Y-30713522D01*
X99293109Y-30713522D02*
X99340728Y-30903998D01*
X99340728Y-30903998D02*
X99340728Y-31046855D01*
X99340728Y-31046855D02*
X99293109Y-31237331D01*
X99293109Y-31237331D02*
X99245490Y-31332569D01*
X99245490Y-31332569D02*
X99150252Y-31427808D01*
X99150252Y-31427808D02*
X99007395Y-31475427D01*
X99007395Y-31475427D02*
X98769300Y-31475427D01*
X100293109Y-31475427D02*
X99721681Y-31475427D01*
X100007395Y-31475427D02*
X100007395Y-30475427D01*
X100007395Y-30475427D02*
X99912157Y-30618284D01*
X99912157Y-30618284D02*
X99816919Y-30713522D01*
X99816919Y-30713522D02*
X99721681Y-30761141D01*
D12*
%TO.C,C2*%
X101069915Y-34398943D02*
X101069915Y-33876439D01*
X102539915Y-34398943D02*
X102539915Y-33876439D01*
%TO.C,J2*%
X116120001Y-48428108D02*
X116120002Y-45778112D01*
X118879999Y-51078108D02*
X117499999Y-51078109D01*
X118880001Y-49698111D02*
X118879999Y-51078108D01*
X118880002Y-48428111D02*
X116120001Y-48428108D01*
X118880002Y-48428111D02*
X118880003Y-45778108D01*
X118880003Y-45778108D02*
X116120002Y-45778112D01*
%TO.C,Q1*%
X101728000Y-42248943D02*
X101727997Y-41448939D01*
X101728000Y-42248943D02*
X101727997Y-43048938D01*
X104848000Y-42248943D02*
X104848003Y-41448948D01*
X104848000Y-42248943D02*
X104848003Y-43048947D01*
X105127998Y-41188942D02*
X104798000Y-40948943D01*
X105127992Y-40708938D01*
X105127998Y-41188942D01*
G36*
X105127998Y-41188942D02*
G01*
X104798000Y-40948943D01*
X105127992Y-40708938D01*
X105127998Y-41188942D01*
G37*
%TO.C,U1*%
X107348911Y-37771564D02*
X105398915Y-37771567D01*
X107348911Y-37771564D02*
X109298913Y-37771566D01*
X107348915Y-32651570D02*
X105398913Y-32651568D01*
X107348915Y-32651570D02*
X109298911Y-32651567D01*
X104648907Y-32746569D02*
X104408913Y-32416569D01*
X104888913Y-32416567D01*
X104648907Y-32746569D01*
G36*
X104648907Y-32746569D02*
G01*
X104408913Y-32416569D01*
X104888913Y-32416567D01*
X104648907Y-32746569D01*
G37*
D13*
%TO.C,G1_F*%
G36*
X106977948Y-55999999D02*
G01*
X106977948Y-56098602D01*
X106476484Y-56098602D01*
X105975020Y-56098602D01*
X105975020Y-55999999D01*
X105975020Y-55901397D01*
X106476484Y-55901397D01*
X106977948Y-55901397D01*
X106977948Y-55999999D01*
G37*
G36*
X112568637Y-55699966D02*
G01*
X112570118Y-55898580D01*
X112768731Y-55900060D01*
X112967345Y-55901541D01*
X112967345Y-56000071D01*
X112967345Y-56098602D01*
X112767323Y-56098602D01*
X112567301Y-56098602D01*
X112567301Y-56298624D01*
X112567301Y-56498646D01*
X112468770Y-56498646D01*
X112370240Y-56498646D01*
X112368759Y-56300033D01*
X112367278Y-56101419D01*
X112168665Y-56099938D01*
X111970051Y-56098458D01*
X111970051Y-55999999D01*
X111970051Y-55901541D01*
X112168665Y-55900060D01*
X112367278Y-55898580D01*
X112368759Y-55699966D01*
X112370240Y-55501353D01*
X112468698Y-55501353D01*
X112567156Y-55501353D01*
X112568637Y-55699966D01*
G37*
G36*
X112611702Y-55009810D02*
G01*
X112712717Y-55029231D01*
X112810880Y-55058508D01*
X112905379Y-55097337D01*
X112995401Y-55145417D01*
X113080135Y-55202445D01*
X113158769Y-55268118D01*
X113230490Y-55342134D01*
X113252993Y-55368944D01*
X113307275Y-55444503D01*
X113354558Y-55527641D01*
X113394321Y-55616718D01*
X113426043Y-55710093D01*
X113449205Y-55806125D01*
X113463287Y-55903174D01*
X113467769Y-55999599D01*
X113466513Y-56042383D01*
X113455417Y-56153745D01*
X113434471Y-56259646D01*
X113403678Y-56360078D01*
X113363040Y-56455032D01*
X113312562Y-56544501D01*
X113252248Y-56628476D01*
X113182099Y-56706949D01*
X113178881Y-56710182D01*
X113100709Y-56780630D01*
X113016892Y-56841365D01*
X112927657Y-56892291D01*
X112833230Y-56933312D01*
X112733840Y-56964334D01*
X112629714Y-56985259D01*
X112521079Y-56995993D01*
X112497676Y-56996945D01*
X112463196Y-56997483D01*
X112427405Y-56997159D01*
X112394421Y-56996060D01*
X112368360Y-56994273D01*
X112367278Y-56994164D01*
X112260558Y-56977860D01*
X112158270Y-56951637D01*
X112060933Y-56915844D01*
X111969066Y-56870833D01*
X111883188Y-56816954D01*
X111803819Y-56754556D01*
X111731478Y-56683990D01*
X111666683Y-56605607D01*
X111609955Y-56519757D01*
X111578605Y-56462022D01*
X111536594Y-56366872D01*
X111504578Y-56269565D01*
X111483036Y-56171664D01*
X111477257Y-56131000D01*
X111473411Y-56098602D01*
X110701723Y-56098602D01*
X110588947Y-56098621D01*
X110486967Y-56098680D01*
X110395311Y-56098784D01*
X110313506Y-56098937D01*
X110241079Y-56099143D01*
X110177559Y-56099408D01*
X110122472Y-56099734D01*
X110075347Y-56100126D01*
X110035710Y-56100589D01*
X110003088Y-56101127D01*
X109977011Y-56101744D01*
X109957004Y-56102444D01*
X109942595Y-56103232D01*
X109933312Y-56104112D01*
X109928683Y-56105089D01*
X109927955Y-56105645D01*
X109911684Y-56156749D01*
X109895123Y-56199243D01*
X109876788Y-56235724D01*
X109855201Y-56268789D01*
X109828879Y-56301032D01*
X109798103Y-56333306D01*
X109774087Y-56356577D01*
X109754289Y-56373841D01*
X109735408Y-56387485D01*
X109714145Y-56399896D01*
X109687586Y-56413275D01*
X109646313Y-56432088D01*
X109610299Y-56445453D01*
X109575601Y-56454421D01*
X109538273Y-56460046D01*
X109501095Y-56463009D01*
X109426950Y-56462037D01*
X109356335Y-56450714D01*
X109289986Y-56429562D01*
X109228637Y-56399100D01*
X109173024Y-56359849D01*
X109123882Y-56312330D01*
X109081945Y-56257062D01*
X109047950Y-56194567D01*
X109022630Y-56125364D01*
X109022229Y-56123957D01*
X109014917Y-56088419D01*
X109010411Y-56045678D01*
X109008869Y-56002855D01*
X111691895Y-56002855D01*
X111693303Y-56056163D01*
X111697078Y-56105534D01*
X111702010Y-56140860D01*
X111723798Y-56231668D01*
X111755297Y-56317529D01*
X111795918Y-56397860D01*
X111845069Y-56472081D01*
X111902159Y-56539607D01*
X111966598Y-56599857D01*
X112037794Y-56652249D01*
X112115158Y-56696199D01*
X112198097Y-56731127D01*
X112286022Y-56756448D01*
X112336289Y-56766069D01*
X112383981Y-56771430D01*
X112438425Y-56773960D01*
X112495473Y-56773692D01*
X112550980Y-56770664D01*
X112600798Y-56764908D01*
X112607761Y-56763772D01*
X112699280Y-56742678D01*
X112785542Y-56711848D01*
X112866059Y-56671758D01*
X112940338Y-56622882D01*
X113007889Y-56565698D01*
X113068221Y-56500680D01*
X113120844Y-56428305D01*
X113165266Y-56349047D01*
X113200998Y-56263383D01*
X113227547Y-56171788D01*
X113230058Y-56160581D01*
X113234982Y-56129551D01*
X113238492Y-56090172D01*
X113240588Y-56045272D01*
X113241266Y-55997682D01*
X113240525Y-55950232D01*
X113238362Y-55905751D01*
X113234774Y-55867069D01*
X113230325Y-55839553D01*
X113206630Y-55750026D01*
X113175523Y-55668220D01*
X113136319Y-55592819D01*
X113088333Y-55522506D01*
X113031310Y-55456409D01*
X112964135Y-55394307D01*
X112890166Y-55340955D01*
X112810213Y-55296783D01*
X112725081Y-55262222D01*
X112635580Y-55237703D01*
X112612376Y-55233149D01*
X112572803Y-55227841D01*
X112525975Y-55224508D01*
X112475378Y-55223157D01*
X112424497Y-55223793D01*
X112376816Y-55226424D01*
X112335821Y-55231057D01*
X112326578Y-55232609D01*
X112233650Y-55255066D01*
X112145722Y-55287587D01*
X112062445Y-55330332D01*
X111983467Y-55383463D01*
X111963263Y-55399263D01*
X111902932Y-55454854D01*
X111848565Y-55519116D01*
X111800919Y-55590727D01*
X111760749Y-55668368D01*
X111728808Y-55750717D01*
X111705851Y-55836453D01*
X111701888Y-55856697D01*
X111696186Y-55899384D01*
X111692856Y-55949349D01*
X111691895Y-56002855D01*
X109008869Y-56002855D01*
X109008746Y-55999453D01*
X109009958Y-55953464D01*
X109014084Y-55911431D01*
X109019886Y-55881676D01*
X109043598Y-55812659D01*
X109077057Y-55748962D01*
X109119814Y-55691345D01*
X109151697Y-55658157D01*
X109200982Y-55617446D01*
X109254302Y-55585172D01*
X109314582Y-55559599D01*
X109321870Y-55557085D01*
X109345372Y-55549516D01*
X109365503Y-55544239D01*
X109385570Y-55540738D01*
X109408880Y-55538498D01*
X109438742Y-55537005D01*
X109454279Y-55536468D01*
X109510711Y-55536578D01*
X109559991Y-55541279D01*
X109605535Y-55551259D01*
X109650761Y-55567205D01*
X109685291Y-55582885D01*
X109746281Y-55618857D01*
X109800085Y-55663264D01*
X109846111Y-55715404D01*
X109883768Y-55774574D01*
X109912463Y-55840073D01*
X109919144Y-55860547D01*
X109931486Y-55901397D01*
X110702000Y-55901397D01*
X111472514Y-55901397D01*
X111479280Y-55852096D01*
X111499100Y-55748239D01*
X111529385Y-55648130D01*
X111569820Y-55552390D01*
X111620090Y-55461641D01*
X111679879Y-55376506D01*
X111748872Y-55297607D01*
X111771742Y-55274837D01*
X111850562Y-55206546D01*
X111935471Y-55147704D01*
X112026274Y-55098410D01*
X112122773Y-55058759D01*
X112224772Y-55028850D01*
X112299665Y-55013707D01*
X112404364Y-55001745D01*
X112508647Y-55000547D01*
X112611702Y-55009810D01*
G37*
G36*
X106584350Y-55005800D02*
G01*
X106689862Y-55021856D01*
X106791117Y-55047969D01*
X106887573Y-55083709D01*
X106978690Y-55128651D01*
X107063930Y-55182367D01*
X107142750Y-55244430D01*
X107214611Y-55314414D01*
X107278973Y-55391890D01*
X107335295Y-55476432D01*
X107383037Y-55567614D01*
X107421659Y-55665007D01*
X107422885Y-55668660D01*
X107442024Y-55734550D01*
X107458898Y-55810368D01*
X107471032Y-55880268D01*
X107474289Y-55901397D01*
X107975674Y-55901397D01*
X108065678Y-55901367D01*
X108144994Y-55901272D01*
X108214206Y-55901103D01*
X108273895Y-55900853D01*
X108324642Y-55900513D01*
X108367031Y-55900075D01*
X108401642Y-55899531D01*
X108429059Y-55898873D01*
X108449861Y-55898092D01*
X108464633Y-55897181D01*
X108473954Y-55896132D01*
X108478408Y-55894935D01*
X108478978Y-55894354D01*
X108480633Y-55886356D01*
X108483760Y-55869628D01*
X108487925Y-55846543D01*
X108492695Y-55819477D01*
X108493147Y-55816881D01*
X108515920Y-55718249D01*
X108548987Y-55623086D01*
X108591716Y-55532094D01*
X108643478Y-55445976D01*
X108703640Y-55365436D01*
X108771572Y-55291175D01*
X108846643Y-55223898D01*
X108928223Y-55164306D01*
X109015681Y-55113104D01*
X109108385Y-55070993D01*
X109186644Y-55044103D01*
X109268757Y-55023681D01*
X109353793Y-55009739D01*
X109438450Y-55002637D01*
X109519424Y-55002734D01*
X109548376Y-55004719D01*
X109637635Y-55015845D01*
X109720428Y-55033189D01*
X109800254Y-55057738D01*
X109880616Y-55090481D01*
X109921937Y-55110156D01*
X109989518Y-55146831D01*
X110051323Y-55187285D01*
X110110640Y-55233864D01*
X110165400Y-55283714D01*
X110187889Y-55306125D01*
X110210847Y-55330240D01*
X110233050Y-55354622D01*
X110253273Y-55377838D01*
X110270289Y-55398452D01*
X110282874Y-55415029D01*
X110289802Y-55426135D01*
X110290433Y-55430130D01*
X110285305Y-55433771D01*
X110272389Y-55442794D01*
X110253166Y-55456171D01*
X110229113Y-55472872D01*
X110201711Y-55491868D01*
X110200928Y-55492411D01*
X110113681Y-55552845D01*
X110103392Y-55539776D01*
X110051626Y-55478117D01*
X110000206Y-55425682D01*
X109947015Y-55380700D01*
X109889938Y-55341398D01*
X109826861Y-55306005D01*
X109820517Y-55302800D01*
X109759119Y-55274449D01*
X109700949Y-55253061D01*
X109642974Y-55237937D01*
X109582162Y-55228376D01*
X109515479Y-55223681D01*
X109474000Y-55222914D01*
X109424010Y-55223401D01*
X109381806Y-55225580D01*
X109343967Y-55229985D01*
X109307071Y-55237151D01*
X109267693Y-55247612D01*
X109222413Y-55261903D01*
X109220726Y-55262464D01*
X109135245Y-55296751D01*
X109055158Y-55340927D01*
X108980520Y-55394958D01*
X108911384Y-55458808D01*
X108910385Y-55459845D01*
X108849948Y-55529932D01*
X108799472Y-55604455D01*
X108758515Y-55684256D01*
X108726632Y-55770177D01*
X108706729Y-55846808D01*
X108698968Y-55895172D01*
X108694486Y-55950276D01*
X108693281Y-56008436D01*
X108695349Y-56065965D01*
X108700690Y-56119179D01*
X108706893Y-56154273D01*
X108731102Y-56243731D01*
X108762792Y-56325582D01*
X108802724Y-56401264D01*
X108851658Y-56472215D01*
X108910356Y-56539873D01*
X108911449Y-56541010D01*
X108980511Y-56604807D01*
X109055709Y-56659413D01*
X109136314Y-56704447D01*
X109221595Y-56739526D01*
X109310822Y-56764269D01*
X109352860Y-56772053D01*
X109394425Y-56776720D01*
X109442260Y-56779070D01*
X109492882Y-56779171D01*
X109542807Y-56777090D01*
X109588553Y-56772895D01*
X109626129Y-56766763D01*
X109714374Y-56742419D01*
X109798892Y-56708780D01*
X109878492Y-56666572D01*
X109951982Y-56616519D01*
X110018172Y-56559344D01*
X110075868Y-56495773D01*
X110079429Y-56491267D01*
X110096120Y-56471141D01*
X110109093Y-56457925D01*
X110117277Y-56452659D01*
X110118870Y-56452929D01*
X110125228Y-56457468D01*
X110139242Y-56467307D01*
X110159307Y-56481323D01*
X110183817Y-56498395D01*
X110207882Y-56515122D01*
X110290988Y-56572828D01*
X110256358Y-56617593D01*
X110221869Y-56658459D01*
X110180310Y-56701745D01*
X110134632Y-56744713D01*
X110087782Y-56784625D01*
X110042712Y-56818741D01*
X110031244Y-56826596D01*
X109960969Y-56870214D01*
X109892573Y-56905630D01*
X109822600Y-56934565D01*
X109795754Y-56943928D01*
X109691153Y-56973080D01*
X109586450Y-56991017D01*
X109481980Y-56997758D01*
X109378077Y-56993324D01*
X109275074Y-56977735D01*
X109173307Y-56951011D01*
X109073110Y-56913173D01*
X109040149Y-56898110D01*
X108948419Y-56848208D01*
X108863283Y-56789487D01*
X108785231Y-56722603D01*
X108714755Y-56648209D01*
X108652345Y-56566960D01*
X108598491Y-56479509D01*
X108553683Y-56386512D01*
X108518412Y-56288622D01*
X108493168Y-56186494D01*
X108488860Y-56162637D01*
X108478552Y-56101419D01*
X107976280Y-56099980D01*
X107474008Y-56098541D01*
X107471673Y-56111249D01*
X107469838Y-56121574D01*
X107466557Y-56140356D01*
X107462290Y-56164946D01*
X107457498Y-56192695D01*
X107457390Y-56193321D01*
X107434629Y-56293017D01*
X107401705Y-56388706D01*
X107359208Y-56479745D01*
X107307728Y-56565491D01*
X107247857Y-56645303D01*
X107180185Y-56718538D01*
X107105302Y-56784555D01*
X107023800Y-56842711D01*
X106936269Y-56892365D01*
X106843300Y-56932875D01*
X106749754Y-56962494D01*
X106672427Y-56979371D01*
X106591202Y-56991078D01*
X106509626Y-56997310D01*
X106431246Y-56997764D01*
X106377882Y-56994253D01*
X106271467Y-56978105D01*
X106169731Y-56952034D01*
X106073131Y-56916547D01*
X105982124Y-56872149D01*
X105897167Y-56819344D01*
X105818718Y-56758639D01*
X105747233Y-56690538D01*
X105683171Y-56615547D01*
X105626988Y-56534172D01*
X105579142Y-56446917D01*
X105540089Y-56354287D01*
X105510288Y-56256789D01*
X105490194Y-56154928D01*
X105480267Y-56049208D01*
X105479237Y-56001119D01*
X105480003Y-55985740D01*
X105701654Y-55985740D01*
X105702424Y-56038099D01*
X105705287Y-56088255D01*
X105710215Y-56132893D01*
X105714720Y-56158350D01*
X105738903Y-56249084D01*
X105770953Y-56332295D01*
X105811412Y-56409022D01*
X105860825Y-56480304D01*
X105915265Y-56542598D01*
X105983705Y-56605666D01*
X106057510Y-56658868D01*
X106136829Y-56702282D01*
X106221813Y-56735985D01*
X106312612Y-56760055D01*
X106346892Y-56766401D01*
X106380808Y-56770299D01*
X106422527Y-56772473D01*
X106469002Y-56773000D01*
X106517185Y-56771958D01*
X106564029Y-56769424D01*
X106606485Y-56765474D01*
X106641506Y-56760188D01*
X106648334Y-56758758D01*
X106740308Y-56732664D01*
X106826290Y-56697240D01*
X106905832Y-56652936D01*
X106978483Y-56600205D01*
X107043795Y-56539500D01*
X107101317Y-56471271D01*
X107150600Y-56395972D01*
X107191194Y-56314053D01*
X107222650Y-56225968D01*
X107237907Y-56165971D01*
X107244196Y-56127954D01*
X107248629Y-56082595D01*
X107251178Y-56032885D01*
X107251816Y-55981813D01*
X107250514Y-55932369D01*
X107247244Y-55887543D01*
X107241977Y-55850325D01*
X107240928Y-55845188D01*
X107215290Y-55750293D01*
X107180770Y-55662029D01*
X107137529Y-55580628D01*
X107085727Y-55506321D01*
X107025526Y-55439340D01*
X106957085Y-55379917D01*
X106884147Y-55330418D01*
X106805002Y-55289456D01*
X106720700Y-55257918D01*
X106632547Y-55235996D01*
X106541850Y-55223885D01*
X106449917Y-55221777D01*
X106358055Y-55229866D01*
X106290548Y-55242611D01*
X106201112Y-55269065D01*
X106117264Y-55305051D01*
X106039505Y-55350043D01*
X105968334Y-55403519D01*
X105904252Y-55464955D01*
X105847757Y-55533826D01*
X105799351Y-55609609D01*
X105759532Y-55691780D01*
X105728801Y-55779816D01*
X105712175Y-55848580D01*
X105706502Y-55887666D01*
X105703005Y-55934491D01*
X105701654Y-55985740D01*
X105480003Y-55985740D01*
X105484593Y-55893589D01*
X105500180Y-55789942D01*
X105525494Y-55690633D01*
X105560030Y-55596116D01*
X105603285Y-55506844D01*
X105654755Y-55423270D01*
X105713937Y-55345849D01*
X105780326Y-55275035D01*
X105853419Y-55211280D01*
X105932711Y-55155040D01*
X106017700Y-55106767D01*
X106107882Y-55066915D01*
X106202751Y-55035938D01*
X106301806Y-55014291D01*
X106404542Y-55002426D01*
X106510454Y-55000797D01*
X106584350Y-55005800D01*
G37*
D12*
%TO.C,J1*%
X85620000Y-45768110D02*
X87000000Y-45768110D01*
X85620000Y-47148110D02*
X85620000Y-45768110D01*
X85620000Y-48418110D02*
X85620000Y-51068110D01*
X85620000Y-48418110D02*
X88380000Y-48418110D01*
X85620000Y-51068110D02*
X88380000Y-51068110D01*
X88380000Y-48418110D02*
X88380000Y-51068110D01*
%TO.C,J_PS1*%
X84915999Y-43823111D02*
X99416002Y-43823111D01*
X84916001Y-53023108D02*
X84915999Y-43823111D01*
X93516000Y-53023110D02*
X84916001Y-53023108D01*
X99415999Y-53023107D02*
X98115998Y-53023113D01*
X99416002Y-43823111D02*
X99416000Y-45823106D01*
X99416003Y-51023109D02*
X99415999Y-53023107D01*
X99716003Y-43523114D02*
X98415999Y-43523110D01*
X99716004Y-45223108D02*
X99716003Y-43523114D01*
%TO.C,C1*%
X111708516Y-38548752D02*
X111708516Y-38026248D01*
X113178516Y-38548752D02*
X113178516Y-38026248D01*
%TO.C,R1*%
X109005461Y-30765001D02*
X108551331Y-30765001D01*
X109005461Y-32234999D02*
X108551331Y-32234999D01*
%TO.C,J_LED1*%
X104573999Y-51623110D02*
X104574000Y-53323108D01*
X104574000Y-53323108D02*
X105874001Y-53323111D01*
X104874000Y-53023109D02*
X104874002Y-51023110D01*
X104874001Y-45823110D02*
X104874002Y-43823110D01*
X104874002Y-43823110D02*
X106174002Y-43823108D01*
X110774001Y-43823109D02*
X119374000Y-43823109D01*
X119374000Y-43823109D02*
X119374002Y-53023108D01*
X119374002Y-53023108D02*
X104874000Y-53023109D01*
D13*
%TO.C,G1_F*%
G36*
X92499948Y-55999999D02*
G01*
X92499948Y-56098602D01*
X91998484Y-56098602D01*
X91497020Y-56098602D01*
X91497020Y-55999999D01*
X91497020Y-55901397D01*
X91998484Y-55901397D01*
X92499948Y-55901397D01*
X92499948Y-55999999D01*
G37*
G36*
X98090637Y-55699966D02*
G01*
X98092118Y-55898580D01*
X98290731Y-55900060D01*
X98489345Y-55901541D01*
X98489345Y-56000071D01*
X98489345Y-56098602D01*
X98289323Y-56098602D01*
X98089301Y-56098602D01*
X98089301Y-56298624D01*
X98089301Y-56498646D01*
X97990770Y-56498646D01*
X97892240Y-56498646D01*
X97890759Y-56300033D01*
X97889278Y-56101419D01*
X97690665Y-56099938D01*
X97492051Y-56098458D01*
X97492051Y-55999999D01*
X97492051Y-55901541D01*
X97690665Y-55900060D01*
X97889278Y-55898580D01*
X97890759Y-55699966D01*
X97892240Y-55501353D01*
X97990698Y-55501353D01*
X98089156Y-55501353D01*
X98090637Y-55699966D01*
G37*
G36*
X98133702Y-55009810D02*
G01*
X98234717Y-55029231D01*
X98332880Y-55058508D01*
X98427379Y-55097337D01*
X98517401Y-55145417D01*
X98602135Y-55202445D01*
X98680769Y-55268118D01*
X98752490Y-55342134D01*
X98774993Y-55368944D01*
X98829275Y-55444503D01*
X98876558Y-55527641D01*
X98916321Y-55616718D01*
X98948043Y-55710093D01*
X98971205Y-55806125D01*
X98985287Y-55903174D01*
X98989769Y-55999599D01*
X98988513Y-56042383D01*
X98977417Y-56153745D01*
X98956471Y-56259646D01*
X98925678Y-56360078D01*
X98885040Y-56455032D01*
X98834562Y-56544501D01*
X98774248Y-56628476D01*
X98704099Y-56706949D01*
X98700881Y-56710182D01*
X98622709Y-56780630D01*
X98538892Y-56841365D01*
X98449657Y-56892291D01*
X98355230Y-56933312D01*
X98255840Y-56964334D01*
X98151714Y-56985259D01*
X98043079Y-56995993D01*
X98019676Y-56996945D01*
X97985196Y-56997483D01*
X97949405Y-56997159D01*
X97916421Y-56996060D01*
X97890360Y-56994273D01*
X97889278Y-56994164D01*
X97782558Y-56977860D01*
X97680270Y-56951637D01*
X97582933Y-56915844D01*
X97491066Y-56870833D01*
X97405188Y-56816954D01*
X97325819Y-56754556D01*
X97253478Y-56683990D01*
X97188683Y-56605607D01*
X97131955Y-56519757D01*
X97100605Y-56462022D01*
X97058594Y-56366872D01*
X97026578Y-56269565D01*
X97005036Y-56171664D01*
X96999257Y-56131000D01*
X96995411Y-56098602D01*
X96223723Y-56098602D01*
X96110947Y-56098621D01*
X96008967Y-56098680D01*
X95917311Y-56098784D01*
X95835506Y-56098937D01*
X95763079Y-56099143D01*
X95699559Y-56099408D01*
X95644472Y-56099734D01*
X95597347Y-56100126D01*
X95557710Y-56100589D01*
X95525088Y-56101127D01*
X95499011Y-56101744D01*
X95479004Y-56102444D01*
X95464595Y-56103232D01*
X95455312Y-56104112D01*
X95450683Y-56105089D01*
X95449955Y-56105645D01*
X95433684Y-56156749D01*
X95417123Y-56199243D01*
X95398788Y-56235724D01*
X95377201Y-56268789D01*
X95350879Y-56301032D01*
X95320103Y-56333306D01*
X95296087Y-56356577D01*
X95276289Y-56373841D01*
X95257408Y-56387485D01*
X95236145Y-56399896D01*
X95209586Y-56413275D01*
X95168313Y-56432088D01*
X95132299Y-56445453D01*
X95097601Y-56454421D01*
X95060273Y-56460046D01*
X95023095Y-56463009D01*
X94948950Y-56462037D01*
X94878335Y-56450714D01*
X94811986Y-56429562D01*
X94750637Y-56399100D01*
X94695024Y-56359849D01*
X94645882Y-56312330D01*
X94603945Y-56257062D01*
X94569950Y-56194567D01*
X94544630Y-56125364D01*
X94544229Y-56123957D01*
X94536917Y-56088419D01*
X94532411Y-56045678D01*
X94530869Y-56002855D01*
X97213895Y-56002855D01*
X97215303Y-56056163D01*
X97219078Y-56105534D01*
X97224010Y-56140860D01*
X97245798Y-56231668D01*
X97277297Y-56317529D01*
X97317918Y-56397860D01*
X97367069Y-56472081D01*
X97424159Y-56539607D01*
X97488598Y-56599857D01*
X97559794Y-56652249D01*
X97637158Y-56696199D01*
X97720097Y-56731127D01*
X97808022Y-56756448D01*
X97858289Y-56766069D01*
X97905981Y-56771430D01*
X97960425Y-56773960D01*
X98017473Y-56773692D01*
X98072980Y-56770664D01*
X98122798Y-56764908D01*
X98129761Y-56763772D01*
X98221280Y-56742678D01*
X98307542Y-56711848D01*
X98388059Y-56671758D01*
X98462338Y-56622882D01*
X98529889Y-56565698D01*
X98590221Y-56500680D01*
X98642844Y-56428305D01*
X98687266Y-56349047D01*
X98722998Y-56263383D01*
X98749547Y-56171788D01*
X98752058Y-56160581D01*
X98756982Y-56129551D01*
X98760492Y-56090172D01*
X98762588Y-56045272D01*
X98763266Y-55997682D01*
X98762525Y-55950232D01*
X98760362Y-55905751D01*
X98756774Y-55867069D01*
X98752325Y-55839553D01*
X98728630Y-55750026D01*
X98697523Y-55668220D01*
X98658319Y-55592819D01*
X98610333Y-55522506D01*
X98553310Y-55456409D01*
X98486135Y-55394307D01*
X98412166Y-55340955D01*
X98332213Y-55296783D01*
X98247081Y-55262222D01*
X98157580Y-55237703D01*
X98134376Y-55233149D01*
X98094803Y-55227841D01*
X98047975Y-55224508D01*
X97997378Y-55223157D01*
X97946497Y-55223793D01*
X97898816Y-55226424D01*
X97857821Y-55231057D01*
X97848578Y-55232609D01*
X97755650Y-55255066D01*
X97667722Y-55287587D01*
X97584445Y-55330332D01*
X97505467Y-55383463D01*
X97485263Y-55399263D01*
X97424932Y-55454854D01*
X97370565Y-55519116D01*
X97322919Y-55590727D01*
X97282749Y-55668368D01*
X97250808Y-55750717D01*
X97227851Y-55836453D01*
X97223888Y-55856697D01*
X97218186Y-55899384D01*
X97214856Y-55949349D01*
X97213895Y-56002855D01*
X94530869Y-56002855D01*
X94530746Y-55999453D01*
X94531958Y-55953464D01*
X94536084Y-55911431D01*
X94541886Y-55881676D01*
X94565598Y-55812659D01*
X94599057Y-55748962D01*
X94641814Y-55691345D01*
X94673697Y-55658157D01*
X94722982Y-55617446D01*
X94776302Y-55585172D01*
X94836582Y-55559599D01*
X94843870Y-55557085D01*
X94867372Y-55549516D01*
X94887503Y-55544239D01*
X94907570Y-55540738D01*
X94930880Y-55538498D01*
X94960742Y-55537005D01*
X94976279Y-55536468D01*
X95032711Y-55536578D01*
X95081991Y-55541279D01*
X95127535Y-55551259D01*
X95172761Y-55567205D01*
X95207291Y-55582885D01*
X95268281Y-55618857D01*
X95322085Y-55663264D01*
X95368111Y-55715404D01*
X95405768Y-55774574D01*
X95434463Y-55840073D01*
X95441144Y-55860547D01*
X95453486Y-55901397D01*
X96224000Y-55901397D01*
X96994514Y-55901397D01*
X97001280Y-55852096D01*
X97021100Y-55748239D01*
X97051385Y-55648130D01*
X97091820Y-55552390D01*
X97142090Y-55461641D01*
X97201879Y-55376506D01*
X97270872Y-55297607D01*
X97293742Y-55274837D01*
X97372562Y-55206546D01*
X97457471Y-55147704D01*
X97548274Y-55098410D01*
X97644773Y-55058759D01*
X97746772Y-55028850D01*
X97821665Y-55013707D01*
X97926364Y-55001745D01*
X98030647Y-55000547D01*
X98133702Y-55009810D01*
G37*
G36*
X92106350Y-55005800D02*
G01*
X92211862Y-55021856D01*
X92313117Y-55047969D01*
X92409573Y-55083709D01*
X92500690Y-55128651D01*
X92585930Y-55182367D01*
X92664750Y-55244430D01*
X92736611Y-55314414D01*
X92800973Y-55391890D01*
X92857295Y-55476432D01*
X92905037Y-55567614D01*
X92943659Y-55665007D01*
X92944885Y-55668660D01*
X92964024Y-55734550D01*
X92980898Y-55810368D01*
X92993032Y-55880268D01*
X92996289Y-55901397D01*
X93497674Y-55901397D01*
X93587678Y-55901367D01*
X93666994Y-55901272D01*
X93736206Y-55901103D01*
X93795895Y-55900853D01*
X93846642Y-55900513D01*
X93889031Y-55900075D01*
X93923642Y-55899531D01*
X93951059Y-55898873D01*
X93971861Y-55898092D01*
X93986633Y-55897181D01*
X93995954Y-55896132D01*
X94000408Y-55894935D01*
X94000978Y-55894354D01*
X94002633Y-55886356D01*
X94005760Y-55869628D01*
X94009925Y-55846543D01*
X94014695Y-55819477D01*
X94015147Y-55816881D01*
X94037920Y-55718249D01*
X94070987Y-55623086D01*
X94113716Y-55532094D01*
X94165478Y-55445976D01*
X94225640Y-55365436D01*
X94293572Y-55291175D01*
X94368643Y-55223898D01*
X94450223Y-55164306D01*
X94537681Y-55113104D01*
X94630385Y-55070993D01*
X94708644Y-55044103D01*
X94790757Y-55023681D01*
X94875793Y-55009739D01*
X94960450Y-55002637D01*
X95041424Y-55002734D01*
X95070376Y-55004719D01*
X95159635Y-55015845D01*
X95242428Y-55033189D01*
X95322254Y-55057738D01*
X95402616Y-55090481D01*
X95443937Y-55110156D01*
X95511518Y-55146831D01*
X95573323Y-55187285D01*
X95632640Y-55233864D01*
X95687400Y-55283714D01*
X95709889Y-55306125D01*
X95732847Y-55330240D01*
X95755050Y-55354622D01*
X95775273Y-55377838D01*
X95792289Y-55398452D01*
X95804874Y-55415029D01*
X95811802Y-55426135D01*
X95812433Y-55430130D01*
X95807305Y-55433771D01*
X95794389Y-55442794D01*
X95775166Y-55456171D01*
X95751113Y-55472872D01*
X95723711Y-55491868D01*
X95722928Y-55492411D01*
X95635681Y-55552845D01*
X95625392Y-55539776D01*
X95573626Y-55478117D01*
X95522206Y-55425682D01*
X95469015Y-55380700D01*
X95411938Y-55341398D01*
X95348861Y-55306005D01*
X95342517Y-55302800D01*
X95281119Y-55274449D01*
X95222949Y-55253061D01*
X95164974Y-55237937D01*
X95104162Y-55228376D01*
X95037479Y-55223681D01*
X94996000Y-55222914D01*
X94946010Y-55223401D01*
X94903806Y-55225580D01*
X94865967Y-55229985D01*
X94829071Y-55237151D01*
X94789693Y-55247612D01*
X94744413Y-55261903D01*
X94742726Y-55262464D01*
X94657245Y-55296751D01*
X94577158Y-55340927D01*
X94502520Y-55394958D01*
X94433384Y-55458808D01*
X94432385Y-55459845D01*
X94371948Y-55529932D01*
X94321472Y-55604455D01*
X94280515Y-55684256D01*
X94248632Y-55770177D01*
X94228729Y-55846808D01*
X94220968Y-55895172D01*
X94216486Y-55950276D01*
X94215281Y-56008436D01*
X94217349Y-56065965D01*
X94222690Y-56119179D01*
X94228893Y-56154273D01*
X94253102Y-56243731D01*
X94284792Y-56325582D01*
X94324724Y-56401264D01*
X94373658Y-56472215D01*
X94432356Y-56539873D01*
X94433449Y-56541010D01*
X94502511Y-56604807D01*
X94577709Y-56659413D01*
X94658314Y-56704447D01*
X94743595Y-56739526D01*
X94832822Y-56764269D01*
X94874860Y-56772053D01*
X94916425Y-56776720D01*
X94964260Y-56779070D01*
X95014882Y-56779171D01*
X95064807Y-56777090D01*
X95110553Y-56772895D01*
X95148129Y-56766763D01*
X95236374Y-56742419D01*
X95320892Y-56708780D01*
X95400492Y-56666572D01*
X95473982Y-56616519D01*
X95540172Y-56559344D01*
X95597868Y-56495773D01*
X95601429Y-56491267D01*
X95618120Y-56471141D01*
X95631093Y-56457925D01*
X95639277Y-56452659D01*
X95640870Y-56452929D01*
X95647228Y-56457468D01*
X95661242Y-56467307D01*
X95681307Y-56481323D01*
X95705817Y-56498395D01*
X95729882Y-56515122D01*
X95812988Y-56572828D01*
X95778358Y-56617593D01*
X95743869Y-56658459D01*
X95702310Y-56701745D01*
X95656632Y-56744713D01*
X95609782Y-56784625D01*
X95564712Y-56818741D01*
X95553244Y-56826596D01*
X95482969Y-56870214D01*
X95414573Y-56905630D01*
X95344600Y-56934565D01*
X95317754Y-56943928D01*
X95213153Y-56973080D01*
X95108450Y-56991017D01*
X95003980Y-56997758D01*
X94900077Y-56993324D01*
X94797074Y-56977735D01*
X94695307Y-56951011D01*
X94595110Y-56913173D01*
X94562149Y-56898110D01*
X94470419Y-56848208D01*
X94385283Y-56789487D01*
X94307231Y-56722603D01*
X94236755Y-56648209D01*
X94174345Y-56566960D01*
X94120491Y-56479509D01*
X94075683Y-56386512D01*
X94040412Y-56288622D01*
X94015168Y-56186494D01*
X94010860Y-56162637D01*
X94000552Y-56101419D01*
X93498280Y-56099980D01*
X92996008Y-56098541D01*
X92993673Y-56111249D01*
X92991838Y-56121574D01*
X92988557Y-56140356D01*
X92984290Y-56164946D01*
X92979498Y-56192695D01*
X92979390Y-56193321D01*
X92956629Y-56293017D01*
X92923705Y-56388706D01*
X92881208Y-56479745D01*
X92829728Y-56565491D01*
X92769857Y-56645303D01*
X92702185Y-56718538D01*
X92627302Y-56784555D01*
X92545800Y-56842711D01*
X92458269Y-56892365D01*
X92365300Y-56932875D01*
X92271754Y-56962494D01*
X92194427Y-56979371D01*
X92113202Y-56991078D01*
X92031626Y-56997310D01*
X91953246Y-56997764D01*
X91899882Y-56994253D01*
X91793467Y-56978105D01*
X91691731Y-56952034D01*
X91595131Y-56916547D01*
X91504124Y-56872149D01*
X91419167Y-56819344D01*
X91340718Y-56758639D01*
X91269233Y-56690538D01*
X91205171Y-56615547D01*
X91148988Y-56534172D01*
X91101142Y-56446917D01*
X91062089Y-56354287D01*
X91032288Y-56256789D01*
X91012194Y-56154928D01*
X91002267Y-56049208D01*
X91001237Y-56001119D01*
X91002003Y-55985740D01*
X91223654Y-55985740D01*
X91224424Y-56038099D01*
X91227287Y-56088255D01*
X91232215Y-56132893D01*
X91236720Y-56158350D01*
X91260903Y-56249084D01*
X91292953Y-56332295D01*
X91333412Y-56409022D01*
X91382825Y-56480304D01*
X91437265Y-56542598D01*
X91505705Y-56605666D01*
X91579510Y-56658868D01*
X91658829Y-56702282D01*
X91743813Y-56735985D01*
X91834612Y-56760055D01*
X91868892Y-56766401D01*
X91902808Y-56770299D01*
X91944527Y-56772473D01*
X91991002Y-56773000D01*
X92039185Y-56771958D01*
X92086029Y-56769424D01*
X92128485Y-56765474D01*
X92163506Y-56760188D01*
X92170334Y-56758758D01*
X92262308Y-56732664D01*
X92348290Y-56697240D01*
X92427832Y-56652936D01*
X92500483Y-56600205D01*
X92565795Y-56539500D01*
X92623317Y-56471271D01*
X92672600Y-56395972D01*
X92713194Y-56314053D01*
X92744650Y-56225968D01*
X92759907Y-56165971D01*
X92766196Y-56127954D01*
X92770629Y-56082595D01*
X92773178Y-56032885D01*
X92773816Y-55981813D01*
X92772514Y-55932369D01*
X92769244Y-55887543D01*
X92763977Y-55850325D01*
X92762928Y-55845188D01*
X92737290Y-55750293D01*
X92702770Y-55662029D01*
X92659529Y-55580628D01*
X92607727Y-55506321D01*
X92547526Y-55439340D01*
X92479085Y-55379917D01*
X92406147Y-55330418D01*
X92327002Y-55289456D01*
X92242700Y-55257918D01*
X92154547Y-55235996D01*
X92063850Y-55223885D01*
X91971917Y-55221777D01*
X91880055Y-55229866D01*
X91812548Y-55242611D01*
X91723112Y-55269065D01*
X91639264Y-55305051D01*
X91561505Y-55350043D01*
X91490334Y-55403519D01*
X91426252Y-55464955D01*
X91369757Y-55533826D01*
X91321351Y-55609609D01*
X91281532Y-55691780D01*
X91250801Y-55779816D01*
X91234175Y-55848580D01*
X91228502Y-55887666D01*
X91225005Y-55934491D01*
X91223654Y-55985740D01*
X91002003Y-55985740D01*
X91006593Y-55893589D01*
X91022180Y-55789942D01*
X91047494Y-55690633D01*
X91082030Y-55596116D01*
X91125285Y-55506844D01*
X91176755Y-55423270D01*
X91235937Y-55345849D01*
X91302326Y-55275035D01*
X91375419Y-55211280D01*
X91454711Y-55155040D01*
X91539700Y-55106767D01*
X91629882Y-55066915D01*
X91724751Y-55035938D01*
X91823806Y-55014291D01*
X91926542Y-55002426D01*
X92032454Y-55000797D01*
X92106350Y-55005800D01*
G37*
D12*
%TO.C,D2*%
X105677395Y-27480612D02*
X101667398Y-27480611D01*
X105677397Y-29480610D02*
X101667398Y-29480611D01*
X105677397Y-29480610D02*
X105677395Y-27480612D01*
%TO.C,D3*%
X104976585Y-37915630D02*
X100966586Y-37915632D01*
X104976586Y-39915631D02*
X100966586Y-39915632D01*
X104976586Y-39915631D02*
X104976585Y-37915630D01*
%TO.C,PT1*%
X85843398Y-30759613D02*
X89588402Y-30759612D01*
X85843403Y-40679617D02*
X85843398Y-30759613D01*
X89588402Y-40679612D02*
X85843403Y-40679617D01*
X94318402Y-30759612D02*
X98063399Y-30759612D01*
X98063397Y-36415610D02*
X98063402Y-37523612D01*
X98063399Y-30759612D02*
X98063402Y-32523616D01*
X98063401Y-38915611D02*
X98063403Y-40679616D01*
X98063402Y-33915609D02*
X98063402Y-35023617D01*
X98063403Y-40679616D02*
X94318405Y-40679616D01*
%TO.C,D1*%
X100957397Y-30020610D02*
X100957400Y-32020607D01*
X100957397Y-30020610D02*
X104967396Y-30020611D01*
X100957400Y-32020607D02*
X104967396Y-32020611D01*
%TD*%
M02*
