%TF.GenerationSoftware,KiCad,Pcbnew,9.0.3*%
%TF.CreationDate,2025-07-15T20:34:28+12:00*%
%TF.ProjectId,LED_Dimmer,4c45445f-4469-46d6-9d65-722e6b696361,rev?*%
%TF.SameCoordinates,Original*%
%TF.FileFunction,Soldermask,Top*%
%TF.FilePolarity,Negative*%
%FSLAX46Y46*%
G04 Gerber Fmt 4.6, Leading zero omitted, Abs format (unit mm)*
G04 Created by KiCad (PCBNEW 9.0.3) date 2025-07-15 20:34:28*
%MOMM*%
%LPD*%
G01*
G04 APERTURE LIST*
G04 APERTURE END LIST*
G36*
X88429199Y-53840070D02*
G01*
X88707167Y-53914552D01*
X88973035Y-54024678D01*
X89222255Y-54168565D01*
X89450561Y-54343750D01*
X89654048Y-54547237D01*
X89829233Y-54775543D01*
X89973120Y-55024763D01*
X90083246Y-55290631D01*
X90157728Y-55568599D01*
X90195290Y-55853911D01*
X90195290Y-56141685D01*
X90157728Y-56426997D01*
X90083246Y-56704965D01*
X89973120Y-56970833D01*
X89829233Y-57220053D01*
X89654048Y-57448359D01*
X89450561Y-57651846D01*
X89222255Y-57827031D01*
X88973035Y-57970918D01*
X88707167Y-58081044D01*
X88429199Y-58155526D01*
X88143887Y-58193088D01*
X87856113Y-58193088D01*
X87570801Y-58155526D01*
X87292833Y-58081044D01*
X87026965Y-57970918D01*
X86777745Y-57827031D01*
X86549439Y-57651846D01*
X86345952Y-57448359D01*
X86170767Y-57220053D01*
X86026880Y-56970833D01*
X85916754Y-56704965D01*
X85842272Y-56426997D01*
X85804710Y-56141685D01*
X85804710Y-55853911D01*
X85842272Y-55568599D01*
X85916754Y-55290631D01*
X86026880Y-55024763D01*
X86170767Y-54775543D01*
X86345952Y-54547237D01*
X86549439Y-54343750D01*
X86777745Y-54168565D01*
X87026965Y-54024678D01*
X87292833Y-53914552D01*
X87570801Y-53840070D01*
X87856113Y-53802508D01*
X88143887Y-53802508D01*
X88429199Y-53840070D01*
G37*
G36*
X116929199Y-53840070D02*
G01*
X117207167Y-53914552D01*
X117473035Y-54024678D01*
X117722255Y-54168565D01*
X117950561Y-54343750D01*
X118154048Y-54547237D01*
X118329233Y-54775543D01*
X118473120Y-55024763D01*
X118583246Y-55290631D01*
X118657728Y-55568599D01*
X118695290Y-55853911D01*
X118695290Y-56141685D01*
X118657728Y-56426997D01*
X118583246Y-56704965D01*
X118473120Y-56970833D01*
X118329233Y-57220053D01*
X118154048Y-57448359D01*
X117950561Y-57651846D01*
X117722255Y-57827031D01*
X117473035Y-57970918D01*
X117207167Y-58081044D01*
X116929199Y-58155526D01*
X116643887Y-58193088D01*
X116356113Y-58193088D01*
X116070801Y-58155526D01*
X115792833Y-58081044D01*
X115526965Y-57970918D01*
X115277745Y-57827031D01*
X115049439Y-57651846D01*
X114845952Y-57448359D01*
X114670767Y-57220053D01*
X114526880Y-56970833D01*
X114416754Y-56704965D01*
X114342272Y-56426997D01*
X114304710Y-56141685D01*
X114304710Y-55853911D01*
X114342272Y-55568599D01*
X114416754Y-55290631D01*
X114526880Y-55024763D01*
X114670767Y-54775543D01*
X114845952Y-54547237D01*
X115049439Y-54343750D01*
X115277745Y-54168565D01*
X115526965Y-54024678D01*
X115792833Y-53914552D01*
X116070801Y-53840070D01*
X116356113Y-53802508D01*
X116643887Y-53802508D01*
X116929199Y-53840070D01*
G37*
G36*
X112698017Y-52227923D02*
G01*
X112890285Y-52266168D01*
X113071397Y-52341187D01*
X113234393Y-52450098D01*
X113373010Y-52588715D01*
X113481921Y-52751711D01*
X113556940Y-52932823D01*
X113595185Y-53125091D01*
X113595185Y-53321125D01*
X113556940Y-53513393D01*
X113481921Y-53694505D01*
X113373010Y-53857501D01*
X113234393Y-53996118D01*
X113071397Y-54105029D01*
X112890285Y-54180048D01*
X112698017Y-54218293D01*
X112600000Y-54223108D01*
X112598522Y-54223108D01*
X110401478Y-54223108D01*
X110400000Y-54223108D01*
X110301983Y-54218293D01*
X110109715Y-54180048D01*
X109928603Y-54105029D01*
X109765607Y-53996118D01*
X109626990Y-53857501D01*
X109518079Y-53694505D01*
X109443060Y-53513393D01*
X109404815Y-53321125D01*
X109404815Y-53125091D01*
X109443060Y-52932823D01*
X109518079Y-52751711D01*
X109626990Y-52588715D01*
X109765607Y-52450098D01*
X109928603Y-52341187D01*
X110109715Y-52266168D01*
X110301983Y-52227923D01*
X110400000Y-52223108D01*
X112600000Y-52223108D01*
X112698017Y-52227923D01*
G37*
G36*
X96989513Y-52476721D02*
G01*
X97133714Y-52505405D01*
X97269548Y-52561669D01*
X97391795Y-52643352D01*
X97495758Y-52747315D01*
X97577441Y-52869562D01*
X97633705Y-53005396D01*
X97662389Y-53149597D01*
X97662389Y-53296623D01*
X97633705Y-53440824D01*
X97577441Y-53576658D01*
X97495758Y-53698905D01*
X97391795Y-53802868D01*
X97269548Y-53884551D01*
X97133714Y-53940815D01*
X96989513Y-53969499D01*
X96916000Y-53973110D01*
X96914522Y-53973110D01*
X94717478Y-53973110D01*
X94716000Y-53973110D01*
X94642487Y-53969499D01*
X94498286Y-53940815D01*
X94362452Y-53884551D01*
X94240205Y-53802868D01*
X94136242Y-53698905D01*
X94054559Y-53576658D01*
X93998295Y-53440824D01*
X93969611Y-53296623D01*
X93969611Y-53149597D01*
X93998295Y-53005396D01*
X94054559Y-52869562D01*
X94136242Y-52747315D01*
X94240205Y-52643352D01*
X94362452Y-52561669D01*
X94498286Y-52505405D01*
X94642487Y-52476721D01*
X94716000Y-52473110D01*
X96916000Y-52473110D01*
X96989513Y-52476721D01*
G37*
G36*
X96400000Y-50723110D02*
G01*
X94400000Y-50723110D01*
X94400000Y-46123110D01*
X96400000Y-46123110D01*
X96400000Y-50723110D01*
G37*
G36*
X109600000Y-50723109D02*
G01*
X107600000Y-50723109D01*
X107600000Y-46123109D01*
X109600000Y-46123109D01*
X109600000Y-50723109D01*
G37*
G36*
X118350001Y-50548109D02*
G01*
X116650001Y-50548109D01*
X116650001Y-48848109D01*
X118350001Y-48848109D01*
X118350001Y-50548109D01*
G37*
G36*
X87246742Y-48874711D02*
G01*
X87400687Y-48938477D01*
X87539234Y-49031051D01*
X87657059Y-49148876D01*
X87749633Y-49287423D01*
X87813399Y-49441368D01*
X87845907Y-49604795D01*
X87845907Y-49771425D01*
X87813399Y-49934852D01*
X87749633Y-50088797D01*
X87657059Y-50227344D01*
X87539234Y-50345169D01*
X87400687Y-50437743D01*
X87246742Y-50501509D01*
X87083315Y-50534017D01*
X86916685Y-50534017D01*
X86753258Y-50501509D01*
X86599313Y-50437743D01*
X86460766Y-50345169D01*
X86342941Y-50227344D01*
X86250367Y-50088797D01*
X86186601Y-49934852D01*
X86154093Y-49771425D01*
X86154093Y-49604795D01*
X86186601Y-49441368D01*
X86250367Y-49287423D01*
X86342941Y-49148876D01*
X86460766Y-49031051D01*
X86599313Y-48938477D01*
X86753258Y-48874711D01*
X86916685Y-48842203D01*
X87083315Y-48842203D01*
X87246742Y-48874711D01*
G37*
G36*
X115190286Y-46366170D02*
G01*
X115371398Y-46441189D01*
X115534394Y-46550100D01*
X115673011Y-46688717D01*
X115781922Y-46851713D01*
X115856941Y-47032825D01*
X115895186Y-47225093D01*
X115900001Y-47323110D01*
X115900001Y-49523110D01*
X115895186Y-49621127D01*
X115856941Y-49813395D01*
X115781922Y-49994507D01*
X115673011Y-50157503D01*
X115534394Y-50296120D01*
X115371398Y-50405031D01*
X115190286Y-50480050D01*
X114998018Y-50518295D01*
X114801984Y-50518295D01*
X114609716Y-50480050D01*
X114428604Y-50405031D01*
X114265608Y-50296120D01*
X114126991Y-50157503D01*
X114018080Y-49994507D01*
X113943061Y-49813395D01*
X113904816Y-49621127D01*
X113900001Y-49523110D01*
X113900001Y-47323110D01*
X113904816Y-47225093D01*
X113943061Y-47032825D01*
X114018080Y-46851713D01*
X114126991Y-46688717D01*
X114265608Y-46550100D01*
X114428604Y-46441189D01*
X114609716Y-46366170D01*
X114801984Y-46327925D01*
X114998018Y-46327925D01*
X115190286Y-46366170D01*
G37*
G36*
X89390284Y-46366169D02*
G01*
X89571396Y-46441188D01*
X89734392Y-46550099D01*
X89873009Y-46688716D01*
X89981920Y-46851712D01*
X90056939Y-47032824D01*
X90095184Y-47225092D01*
X90099999Y-47323109D01*
X90099999Y-49523109D01*
X90095184Y-49621126D01*
X90056939Y-49813394D01*
X89981920Y-49994506D01*
X89873009Y-50157502D01*
X89734392Y-50296119D01*
X89571396Y-50405030D01*
X89390284Y-50480049D01*
X89198016Y-50518294D01*
X89001982Y-50518294D01*
X88809714Y-50480049D01*
X88628602Y-50405030D01*
X88465606Y-50296119D01*
X88326989Y-50157502D01*
X88218078Y-49994506D01*
X88143059Y-49813394D01*
X88104814Y-49621126D01*
X88099999Y-49523109D01*
X88099999Y-47323109D01*
X88104814Y-47225092D01*
X88143059Y-47032824D01*
X88218078Y-46851712D01*
X88326989Y-46688716D01*
X88465606Y-46550099D01*
X88628602Y-46441188D01*
X88809714Y-46366169D01*
X89001982Y-46327924D01*
X89198016Y-46327924D01*
X89390284Y-46366169D01*
G37*
G36*
X99466000Y-50473110D02*
G01*
X97966000Y-50473110D01*
X97966000Y-46373110D01*
X99466000Y-46373110D01*
X99466000Y-50473110D01*
G37*
G36*
X106324001Y-50473109D02*
G01*
X104824001Y-50473109D01*
X104824001Y-46373109D01*
X106324001Y-46373109D01*
X106324001Y-50473109D01*
G37*
G36*
X112091716Y-46605405D02*
G01*
X112227550Y-46661669D01*
X112349797Y-46743352D01*
X112453760Y-46847315D01*
X112535443Y-46969562D01*
X112591707Y-47105396D01*
X112620391Y-47249597D01*
X112624002Y-47323110D01*
X112624002Y-49523110D01*
X112620391Y-49596623D01*
X112591707Y-49740824D01*
X112535443Y-49876658D01*
X112453760Y-49998905D01*
X112349797Y-50102868D01*
X112227550Y-50184551D01*
X112091716Y-50240815D01*
X111947515Y-50269499D01*
X111800489Y-50269499D01*
X111656288Y-50240815D01*
X111520454Y-50184551D01*
X111398207Y-50102868D01*
X111294244Y-49998905D01*
X111212561Y-49876658D01*
X111156297Y-49740824D01*
X111127613Y-49596623D01*
X111124002Y-49523110D01*
X111124002Y-47323110D01*
X111127613Y-47249597D01*
X111156297Y-47105396D01*
X111212561Y-46969562D01*
X111294244Y-46847315D01*
X111398207Y-46743352D01*
X111520454Y-46661669D01*
X111656288Y-46605405D01*
X111800489Y-46576721D01*
X111947515Y-46576721D01*
X112091716Y-46605405D01*
G37*
G36*
X92633713Y-46605404D02*
G01*
X92769547Y-46661668D01*
X92891794Y-46743351D01*
X92995757Y-46847314D01*
X93077440Y-46969561D01*
X93133704Y-47105395D01*
X93162388Y-47249596D01*
X93165999Y-47323109D01*
X93165999Y-49523109D01*
X93162388Y-49596622D01*
X93133704Y-49740823D01*
X93077440Y-49876657D01*
X92995757Y-49998904D01*
X92891794Y-50102867D01*
X92769547Y-50184550D01*
X92633713Y-50240814D01*
X92489512Y-50269498D01*
X92342486Y-50269498D01*
X92198285Y-50240814D01*
X92062451Y-50184550D01*
X91940204Y-50102867D01*
X91836241Y-49998904D01*
X91754558Y-49876657D01*
X91698294Y-49740823D01*
X91669610Y-49596622D01*
X91665999Y-49523109D01*
X91665999Y-47323109D01*
X91669610Y-47249596D01*
X91698294Y-47105395D01*
X91754558Y-46969561D01*
X91836241Y-46847314D01*
X91940204Y-46743351D01*
X92062451Y-46661668D01*
X92198285Y-46605404D01*
X92342486Y-46576720D01*
X92489512Y-46576720D01*
X92633713Y-46605404D01*
G37*
G36*
X117746743Y-46344710D02*
G01*
X117900688Y-46408476D01*
X118039235Y-46501050D01*
X118157060Y-46618875D01*
X118249634Y-46757422D01*
X118313400Y-46911367D01*
X118345908Y-47074794D01*
X118345908Y-47241424D01*
X118313400Y-47404851D01*
X118249634Y-47558796D01*
X118157060Y-47697343D01*
X118039235Y-47815168D01*
X117900688Y-47907742D01*
X117746743Y-47971508D01*
X117583316Y-48004016D01*
X117416686Y-48004016D01*
X117253259Y-47971508D01*
X117099314Y-47907742D01*
X116960767Y-47815168D01*
X116842942Y-47697343D01*
X116750368Y-47558796D01*
X116686602Y-47404851D01*
X116654094Y-47241424D01*
X116654094Y-47074794D01*
X116686602Y-46911367D01*
X116750368Y-46757422D01*
X116842942Y-46618875D01*
X116960767Y-46501050D01*
X117099314Y-46408476D01*
X117253259Y-46344710D01*
X117416686Y-46312202D01*
X117583316Y-46312202D01*
X117746743Y-46344710D01*
G37*
G36*
X87850000Y-47998110D02*
G01*
X86150000Y-47998110D01*
X86150000Y-46298110D01*
X87850000Y-46298110D01*
X87850000Y-47998110D01*
G37*
G36*
X93698017Y-42627926D02*
G01*
X93890285Y-42666171D01*
X94071397Y-42741190D01*
X94234393Y-42850101D01*
X94373010Y-42988718D01*
X94481921Y-43151714D01*
X94556940Y-43332826D01*
X94595185Y-43525094D01*
X94595185Y-43721128D01*
X94556940Y-43913396D01*
X94481921Y-44094508D01*
X94373010Y-44257504D01*
X94234393Y-44396121D01*
X94071397Y-44505032D01*
X93890285Y-44580051D01*
X93698017Y-44618296D01*
X93600000Y-44623111D01*
X93598522Y-44623111D01*
X91401478Y-44623111D01*
X91400000Y-44623111D01*
X91301983Y-44618296D01*
X91109715Y-44580051D01*
X90928603Y-44505032D01*
X90765607Y-44396121D01*
X90626990Y-44257504D01*
X90518079Y-44094508D01*
X90443060Y-43913396D01*
X90404815Y-43721128D01*
X90404815Y-43525094D01*
X90443060Y-43332826D01*
X90518079Y-43151714D01*
X90626990Y-42988718D01*
X90765607Y-42850101D01*
X90928603Y-42741190D01*
X91109715Y-42666171D01*
X91301983Y-42627926D01*
X91400000Y-42623111D01*
X93600000Y-42623111D01*
X93698017Y-42627926D01*
G37*
G36*
X109647514Y-42876720D02*
G01*
X109791715Y-42905404D01*
X109927549Y-42961668D01*
X110049796Y-43043351D01*
X110153759Y-43147314D01*
X110235442Y-43269561D01*
X110291706Y-43405395D01*
X110320390Y-43549596D01*
X110320390Y-43696622D01*
X110291706Y-43840823D01*
X110235442Y-43976657D01*
X110153759Y-44098904D01*
X110049796Y-44202867D01*
X109927549Y-44284550D01*
X109791715Y-44340814D01*
X109647514Y-44369498D01*
X109574001Y-44373109D01*
X109572523Y-44373109D01*
X107375479Y-44373109D01*
X107374001Y-44373109D01*
X107300488Y-44369498D01*
X107156287Y-44340814D01*
X107020453Y-44284550D01*
X106898206Y-44202867D01*
X106794243Y-44098904D01*
X106712560Y-43976657D01*
X106656296Y-43840823D01*
X106627612Y-43696622D01*
X106627612Y-43549596D01*
X106656296Y-43405395D01*
X106712560Y-43269561D01*
X106794243Y-43147314D01*
X106898206Y-43043351D01*
X107020453Y-42961668D01*
X107156287Y-42905404D01*
X107300488Y-42876720D01*
X107374001Y-42873109D01*
X109574001Y-42873109D01*
X109647514Y-42876720D01*
G37*
G36*
X103495403Y-42735360D02*
G01*
X103544066Y-42767876D01*
X103576582Y-42816539D01*
X103588000Y-42873942D01*
X103588000Y-43898942D01*
X103576582Y-43956345D01*
X103544066Y-44005008D01*
X103495403Y-44037524D01*
X103438000Y-44048942D01*
X103138000Y-44048942D01*
X103080597Y-44037524D01*
X103031934Y-44005008D01*
X102999418Y-43956345D01*
X102988000Y-43898942D01*
X102988000Y-42873942D01*
X102999418Y-42816539D01*
X103031934Y-42767876D01*
X103080597Y-42735360D01*
X103138000Y-42723942D01*
X103438000Y-42723942D01*
X103495403Y-42735360D01*
G37*
G36*
X92343588Y-38158039D02*
G01*
X92596286Y-38225750D01*
X92837984Y-38325865D01*
X93064547Y-38456671D01*
X93272099Y-38615930D01*
X93457087Y-38800918D01*
X93616346Y-39008470D01*
X93747152Y-39235033D01*
X93847267Y-39476731D01*
X93914978Y-39729429D01*
X93949125Y-39988804D01*
X93949125Y-40250416D01*
X93914978Y-40509791D01*
X93847267Y-40762489D01*
X93747152Y-41004187D01*
X93616346Y-41230750D01*
X93457087Y-41438302D01*
X93272099Y-41623290D01*
X93064547Y-41782549D01*
X92837984Y-41913355D01*
X92596286Y-42013470D01*
X92343588Y-42081181D01*
X92084213Y-42115328D01*
X91822601Y-42115328D01*
X91563226Y-42081181D01*
X91310528Y-42013470D01*
X91068830Y-41913355D01*
X90842267Y-41782549D01*
X90634715Y-41623290D01*
X90449727Y-41438302D01*
X90290468Y-41230750D01*
X90159662Y-41004187D01*
X90059547Y-40762489D01*
X89991836Y-40509791D01*
X89957689Y-40250416D01*
X89957689Y-39988804D01*
X89991836Y-39729429D01*
X90059547Y-39476731D01*
X90159662Y-39235033D01*
X90290468Y-39008470D01*
X90449727Y-38800918D01*
X90634715Y-38615930D01*
X90842267Y-38456671D01*
X91068830Y-38325865D01*
X91310528Y-38225750D01*
X91563226Y-38158039D01*
X91822601Y-38123892D01*
X92084213Y-38123892D01*
X92343588Y-38158039D01*
G37*
G36*
X104445401Y-40460361D02*
G01*
X104494064Y-40492877D01*
X104526580Y-40541540D01*
X104537998Y-40598943D01*
X104537998Y-41623943D01*
X104526580Y-41681346D01*
X104494064Y-41730009D01*
X104445401Y-41762525D01*
X104387998Y-41773943D01*
X104087998Y-41773943D01*
X104030595Y-41762525D01*
X103981932Y-41730009D01*
X103949416Y-41681346D01*
X103937998Y-41623943D01*
X103937998Y-40598943D01*
X103949416Y-40541540D01*
X103981932Y-40492877D01*
X104030595Y-40460361D01*
X104087998Y-40448943D01*
X104387998Y-40448943D01*
X104445401Y-40460361D01*
G37*
G36*
X102545401Y-40460359D02*
G01*
X102594064Y-40492875D01*
X102626580Y-40541538D01*
X102637998Y-40598941D01*
X102637998Y-41623941D01*
X102626580Y-41681344D01*
X102594064Y-41730007D01*
X102545401Y-41762523D01*
X102487998Y-41773941D01*
X102187998Y-41773941D01*
X102130595Y-41762523D01*
X102081932Y-41730007D01*
X102049416Y-41681344D01*
X102037998Y-41623941D01*
X102037998Y-40598941D01*
X102049416Y-40541538D01*
X102081932Y-40492875D01*
X102130595Y-40460359D01*
X102187998Y-40448941D01*
X102487998Y-40448941D01*
X102545401Y-40460359D01*
G37*
G36*
X112923366Y-38738464D02*
G01*
X112973556Y-38744287D01*
X112990705Y-38751859D01*
X113014187Y-38756530D01*
X113039326Y-38773327D01*
X113059212Y-38782108D01*
X113072793Y-38795689D01*
X113095293Y-38810723D01*
X113110326Y-38833222D01*
X113123907Y-38846803D01*
X113132686Y-38866686D01*
X113149486Y-38891829D01*
X113154157Y-38915312D01*
X113161728Y-38932459D01*
X113167549Y-38982639D01*
X113168516Y-38987500D01*
X113168516Y-39662500D01*
X113167548Y-39667363D01*
X113161728Y-39717540D01*
X113154157Y-39734685D01*
X113149486Y-39758171D01*
X113132685Y-39783315D01*
X113123907Y-39803196D01*
X113110328Y-39816774D01*
X113095293Y-39839277D01*
X113072790Y-39854312D01*
X113059212Y-39867891D01*
X113039331Y-39876669D01*
X113014187Y-39893470D01*
X112990701Y-39898141D01*
X112973556Y-39905712D01*
X112923377Y-39911532D01*
X112918516Y-39912500D01*
X111968516Y-39912500D01*
X111963654Y-39911532D01*
X111913475Y-39905712D01*
X111896328Y-39898141D01*
X111872845Y-39893470D01*
X111847702Y-39876670D01*
X111827819Y-39867891D01*
X111814238Y-39854310D01*
X111791739Y-39839277D01*
X111776705Y-39816777D01*
X111763124Y-39803196D01*
X111754343Y-39783310D01*
X111737546Y-39758171D01*
X111732875Y-39734689D01*
X111725303Y-39717540D01*
X111719480Y-39667349D01*
X111718516Y-39662500D01*
X111718516Y-38987500D01*
X111719480Y-38982650D01*
X111725303Y-38932459D01*
X111732875Y-38915308D01*
X111737546Y-38891829D01*
X111754342Y-38866691D01*
X111763124Y-38846803D01*
X111776707Y-38833219D01*
X111791739Y-38810723D01*
X111814235Y-38795691D01*
X111827819Y-38782108D01*
X111847707Y-38773326D01*
X111872845Y-38756530D01*
X111896324Y-38751859D01*
X111913475Y-38744287D01*
X111963667Y-38738464D01*
X111968516Y-38737500D01*
X112918516Y-38737500D01*
X112923366Y-38738464D01*
G37*
G36*
X101196437Y-38316598D02*
G01*
X101240904Y-38321757D01*
X101256097Y-38328465D01*
X101277691Y-38332761D01*
X101300809Y-38348208D01*
X101318154Y-38355867D01*
X101329999Y-38367712D01*
X101350686Y-38381535D01*
X101364508Y-38402221D01*
X101376353Y-38414066D01*
X101384010Y-38431408D01*
X101399460Y-38454530D01*
X101403755Y-38476125D01*
X101410463Y-38491316D01*
X101415620Y-38535773D01*
X101416587Y-38540634D01*
X101416587Y-39290634D01*
X101415619Y-39295496D01*
X101410463Y-39339951D01*
X101403755Y-39355140D01*
X101399460Y-39376738D01*
X101384009Y-39399861D01*
X101376353Y-39417201D01*
X101364510Y-39429043D01*
X101350686Y-39449733D01*
X101329996Y-39463557D01*
X101318154Y-39475400D01*
X101300814Y-39483056D01*
X101277691Y-39498507D01*
X101256093Y-39502802D01*
X101240904Y-39509510D01*
X101196448Y-39514666D01*
X101191587Y-39515634D01*
X100741587Y-39515634D01*
X100736725Y-39514667D01*
X100692269Y-39509510D01*
X100677078Y-39502802D01*
X100655483Y-39498507D01*
X100632361Y-39483057D01*
X100615019Y-39475400D01*
X100603174Y-39463555D01*
X100582488Y-39449733D01*
X100568665Y-39429046D01*
X100556820Y-39417201D01*
X100549161Y-39399856D01*
X100533714Y-39376738D01*
X100529418Y-39355144D01*
X100522710Y-39339951D01*
X100517551Y-39295483D01*
X100516587Y-39290634D01*
X100516587Y-38540634D01*
X100517551Y-38535784D01*
X100522710Y-38491316D01*
X100529419Y-38476121D01*
X100533714Y-38454530D01*
X100549160Y-38431413D01*
X100556820Y-38414066D01*
X100568667Y-38402218D01*
X100582488Y-38381535D01*
X100603171Y-38367714D01*
X100615019Y-38355867D01*
X100632366Y-38348207D01*
X100655483Y-38332761D01*
X100677074Y-38328466D01*
X100692269Y-38321757D01*
X100736738Y-38316598D01*
X100741587Y-38315634D01*
X101191587Y-38315634D01*
X101196437Y-38316598D01*
G37*
G36*
X104496439Y-38316592D02*
G01*
X104540906Y-38321751D01*
X104556099Y-38328459D01*
X104577693Y-38332755D01*
X104600811Y-38348202D01*
X104618156Y-38355861D01*
X104630001Y-38367706D01*
X104650688Y-38381529D01*
X104664510Y-38402215D01*
X104676355Y-38414060D01*
X104684012Y-38431402D01*
X104699462Y-38454524D01*
X104703757Y-38476119D01*
X104710465Y-38491310D01*
X104715622Y-38535767D01*
X104716589Y-38540628D01*
X104716589Y-39290628D01*
X104715621Y-39295490D01*
X104710465Y-39339945D01*
X104703757Y-39355134D01*
X104699462Y-39376732D01*
X104684011Y-39399855D01*
X104676355Y-39417195D01*
X104664512Y-39429037D01*
X104650688Y-39449727D01*
X104629998Y-39463551D01*
X104618156Y-39475394D01*
X104600816Y-39483050D01*
X104577693Y-39498501D01*
X104556095Y-39502796D01*
X104540906Y-39509504D01*
X104496450Y-39514660D01*
X104491589Y-39515628D01*
X104041589Y-39515628D01*
X104036727Y-39514661D01*
X103992271Y-39509504D01*
X103977080Y-39502796D01*
X103955485Y-39498501D01*
X103932363Y-39483051D01*
X103915021Y-39475394D01*
X103903176Y-39463549D01*
X103882490Y-39449727D01*
X103868667Y-39429040D01*
X103856822Y-39417195D01*
X103849163Y-39399850D01*
X103833716Y-39376732D01*
X103829420Y-39355138D01*
X103822712Y-39339945D01*
X103817553Y-39295477D01*
X103816589Y-39290628D01*
X103816589Y-38540628D01*
X103817553Y-38535778D01*
X103822712Y-38491310D01*
X103829421Y-38476115D01*
X103833716Y-38454524D01*
X103849162Y-38431407D01*
X103856822Y-38414060D01*
X103868669Y-38402212D01*
X103882490Y-38381529D01*
X103903173Y-38367708D01*
X103915021Y-38355861D01*
X103932368Y-38348201D01*
X103955485Y-38332755D01*
X103977076Y-38328460D01*
X103992271Y-38321751D01*
X104036740Y-38316592D01*
X104041589Y-38315628D01*
X104491589Y-38315628D01*
X104496439Y-38316592D01*
G37*
G36*
X99214658Y-37358366D02*
G01*
X99377659Y-37425883D01*
X99524356Y-37523903D01*
X99649111Y-37648658D01*
X99747131Y-37795355D01*
X99814648Y-37958356D01*
X99849068Y-38131397D01*
X99849068Y-38307827D01*
X99814648Y-38480868D01*
X99747131Y-38643869D01*
X99649111Y-38790566D01*
X99524356Y-38915321D01*
X99377659Y-39013341D01*
X99214658Y-39080858D01*
X99041617Y-39115278D01*
X98865187Y-39115278D01*
X98692146Y-39080858D01*
X98529145Y-39013341D01*
X98382448Y-38915321D01*
X98257693Y-38790566D01*
X98159673Y-38643869D01*
X98092156Y-38480868D01*
X98057736Y-38307827D01*
X98057736Y-38131397D01*
X98092156Y-37958356D01*
X98159673Y-37795355D01*
X98257693Y-37648658D01*
X98382448Y-37523903D01*
X98529145Y-37425883D01*
X98692146Y-37358366D01*
X98865187Y-37323946D01*
X99041617Y-37323946D01*
X99214658Y-37358366D01*
G37*
G36*
X112923366Y-36663464D02*
G01*
X112973556Y-36669287D01*
X112990705Y-36676859D01*
X113014187Y-36681530D01*
X113039326Y-36698327D01*
X113059212Y-36707108D01*
X113072793Y-36720689D01*
X113095293Y-36735723D01*
X113110326Y-36758222D01*
X113123907Y-36771803D01*
X113132686Y-36791686D01*
X113149486Y-36816829D01*
X113154157Y-36840312D01*
X113161728Y-36857459D01*
X113167549Y-36907639D01*
X113168516Y-36912500D01*
X113168516Y-37587500D01*
X113167548Y-37592363D01*
X113161728Y-37642540D01*
X113154157Y-37659685D01*
X113149486Y-37683171D01*
X113132685Y-37708315D01*
X113123907Y-37728196D01*
X113110328Y-37741774D01*
X113095293Y-37764277D01*
X113072790Y-37779312D01*
X113059212Y-37792891D01*
X113039331Y-37801669D01*
X113014187Y-37818470D01*
X112990701Y-37823141D01*
X112973556Y-37830712D01*
X112923377Y-37836532D01*
X112918516Y-37837500D01*
X111968516Y-37837500D01*
X111963654Y-37836532D01*
X111913475Y-37830712D01*
X111896328Y-37823141D01*
X111872845Y-37818470D01*
X111847702Y-37801670D01*
X111827819Y-37792891D01*
X111814238Y-37779310D01*
X111791739Y-37764277D01*
X111776705Y-37741777D01*
X111763124Y-37728196D01*
X111754343Y-37708310D01*
X111737546Y-37683171D01*
X111732875Y-37659689D01*
X111725303Y-37642540D01*
X111719480Y-37592349D01*
X111718516Y-37587500D01*
X111718516Y-36912500D01*
X111719480Y-36907650D01*
X111725303Y-36857459D01*
X111732875Y-36840308D01*
X111737546Y-36816829D01*
X111754342Y-36791691D01*
X111763124Y-36771803D01*
X111776707Y-36758219D01*
X111791739Y-36735723D01*
X111814235Y-36720691D01*
X111827819Y-36707108D01*
X111847707Y-36698326D01*
X111872845Y-36681530D01*
X111896324Y-36676859D01*
X111913475Y-36669287D01*
X111963667Y-36663464D01*
X111968516Y-36662500D01*
X112918516Y-36662500D01*
X112923366Y-36663464D01*
G37*
G36*
X110706315Y-36827987D02*
G01*
X110754978Y-36860503D01*
X110787494Y-36909166D01*
X110798912Y-36966569D01*
X110798912Y-37266569D01*
X110787494Y-37323972D01*
X110754978Y-37372635D01*
X110706315Y-37405151D01*
X110648912Y-37416569D01*
X108998912Y-37416569D01*
X108941509Y-37405151D01*
X108892846Y-37372635D01*
X108860330Y-37323972D01*
X108848912Y-37266569D01*
X108848912Y-36966569D01*
X108860330Y-36909166D01*
X108892846Y-36860503D01*
X108941509Y-36827987D01*
X108998912Y-36816569D01*
X110648912Y-36816569D01*
X110706315Y-36827987D01*
G37*
G36*
X105756319Y-36827986D02*
G01*
X105804982Y-36860502D01*
X105837498Y-36909165D01*
X105848916Y-36966568D01*
X105848916Y-37266568D01*
X105837498Y-37323971D01*
X105804982Y-37372634D01*
X105756319Y-37405150D01*
X105698916Y-37416568D01*
X104048916Y-37416568D01*
X103991513Y-37405150D01*
X103942850Y-37372634D01*
X103910334Y-37323971D01*
X103898916Y-37266568D01*
X103898916Y-36966568D01*
X103910334Y-36909165D01*
X103942850Y-36860502D01*
X103991513Y-36827986D01*
X104048916Y-36816568D01*
X105698916Y-36816568D01*
X105756319Y-36827986D01*
G37*
G36*
X99214658Y-34858366D02*
G01*
X99377659Y-34925883D01*
X99524356Y-35023903D01*
X99649111Y-35148658D01*
X99747131Y-35295355D01*
X99814648Y-35458356D01*
X99849068Y-35631397D01*
X99849068Y-35807827D01*
X99814648Y-35980868D01*
X99747131Y-36143869D01*
X99649111Y-36290566D01*
X99524356Y-36415321D01*
X99377659Y-36513341D01*
X99214658Y-36580858D01*
X99041617Y-36615278D01*
X98865187Y-36615278D01*
X98692146Y-36580858D01*
X98529145Y-36513341D01*
X98382448Y-36415321D01*
X98257693Y-36290566D01*
X98159673Y-36143869D01*
X98092156Y-35980868D01*
X98057736Y-35807827D01*
X98057736Y-35631397D01*
X98092156Y-35458356D01*
X98159673Y-35295355D01*
X98257693Y-35148658D01*
X98382448Y-35023903D01*
X98529145Y-34925883D01*
X98692146Y-34858366D01*
X98865187Y-34823946D01*
X99041617Y-34823946D01*
X99214658Y-34858366D01*
G37*
G36*
X105756312Y-35557991D02*
G01*
X105804975Y-35590507D01*
X105837491Y-35639170D01*
X105848909Y-35696573D01*
X105848909Y-35996573D01*
X105837491Y-36053976D01*
X105804975Y-36102639D01*
X105756312Y-36135155D01*
X105698909Y-36146573D01*
X104048909Y-36146573D01*
X103991506Y-36135155D01*
X103942843Y-36102639D01*
X103910327Y-36053976D01*
X103898909Y-35996573D01*
X103898909Y-35696573D01*
X103910327Y-35639170D01*
X103942843Y-35590507D01*
X103991506Y-35557991D01*
X104048909Y-35546573D01*
X105698909Y-35546573D01*
X105756312Y-35557991D01*
G37*
G36*
X110706316Y-35557985D02*
G01*
X110754979Y-35590501D01*
X110787495Y-35639164D01*
X110798913Y-35696567D01*
X110798913Y-35996567D01*
X110787495Y-36053970D01*
X110754979Y-36102633D01*
X110706316Y-36135149D01*
X110648913Y-36146567D01*
X108998913Y-36146567D01*
X108941510Y-36135149D01*
X108892847Y-36102633D01*
X108860331Y-36053970D01*
X108848913Y-35996567D01*
X108848913Y-35696567D01*
X108860331Y-35639164D01*
X108892847Y-35590501D01*
X108941510Y-35557985D01*
X108998913Y-35546567D01*
X110648913Y-35546567D01*
X110706316Y-35557985D01*
G37*
G36*
X102284765Y-34588655D02*
G01*
X102334955Y-34594478D01*
X102352104Y-34602050D01*
X102375586Y-34606721D01*
X102400725Y-34623518D01*
X102420611Y-34632299D01*
X102434192Y-34645880D01*
X102456692Y-34660914D01*
X102471725Y-34683413D01*
X102485306Y-34696994D01*
X102494085Y-34716877D01*
X102510885Y-34742020D01*
X102515556Y-34765503D01*
X102523127Y-34782650D01*
X102528948Y-34832830D01*
X102529915Y-34837691D01*
X102529915Y-35512691D01*
X102528947Y-35517554D01*
X102523127Y-35567731D01*
X102515556Y-35584876D01*
X102510885Y-35608362D01*
X102494084Y-35633506D01*
X102485306Y-35653387D01*
X102471727Y-35666965D01*
X102456692Y-35689468D01*
X102434189Y-35704503D01*
X102420611Y-35718082D01*
X102400730Y-35726860D01*
X102375586Y-35743661D01*
X102352100Y-35748332D01*
X102334955Y-35755903D01*
X102284776Y-35761723D01*
X102279915Y-35762691D01*
X101329915Y-35762691D01*
X101325053Y-35761723D01*
X101274874Y-35755903D01*
X101257727Y-35748332D01*
X101234244Y-35743661D01*
X101209101Y-35726861D01*
X101189218Y-35718082D01*
X101175637Y-35704501D01*
X101153138Y-35689468D01*
X101138104Y-35666968D01*
X101124523Y-35653387D01*
X101115742Y-35633501D01*
X101098945Y-35608362D01*
X101094274Y-35584880D01*
X101086702Y-35567731D01*
X101080879Y-35517540D01*
X101079915Y-35512691D01*
X101079915Y-34837691D01*
X101080879Y-34832841D01*
X101086702Y-34782650D01*
X101094274Y-34765499D01*
X101098945Y-34742020D01*
X101115741Y-34716882D01*
X101124523Y-34696994D01*
X101138106Y-34683410D01*
X101153138Y-34660914D01*
X101175634Y-34645882D01*
X101189218Y-34632299D01*
X101209106Y-34623517D01*
X101234244Y-34606721D01*
X101257723Y-34602050D01*
X101274874Y-34594478D01*
X101325066Y-34588655D01*
X101329915Y-34587691D01*
X102279915Y-34587691D01*
X102284765Y-34588655D01*
G37*
G36*
X105756316Y-34287985D02*
G01*
X105804979Y-34320501D01*
X105837495Y-34369164D01*
X105848913Y-34426567D01*
X105848913Y-34726567D01*
X105837495Y-34783970D01*
X105804979Y-34832633D01*
X105756316Y-34865149D01*
X105698913Y-34876567D01*
X104048913Y-34876567D01*
X103991510Y-34865149D01*
X103942847Y-34832633D01*
X103910331Y-34783970D01*
X103898913Y-34726567D01*
X103898913Y-34426567D01*
X103910331Y-34369164D01*
X103942847Y-34320501D01*
X103991510Y-34287985D01*
X104048913Y-34276567D01*
X105698913Y-34276567D01*
X105756316Y-34287985D01*
G37*
G36*
X110706320Y-34287979D02*
G01*
X110754983Y-34320495D01*
X110787499Y-34369158D01*
X110798917Y-34426561D01*
X110798917Y-34726561D01*
X110787499Y-34783964D01*
X110754983Y-34832627D01*
X110706320Y-34865143D01*
X110648917Y-34876561D01*
X108998917Y-34876561D01*
X108941514Y-34865143D01*
X108892851Y-34832627D01*
X108860335Y-34783964D01*
X108848917Y-34726561D01*
X108848917Y-34426561D01*
X108860335Y-34369158D01*
X108892851Y-34320495D01*
X108941514Y-34287979D01*
X108998917Y-34276561D01*
X110648917Y-34276561D01*
X110706320Y-34287979D01*
G37*
G36*
X99214658Y-32358366D02*
G01*
X99377659Y-32425883D01*
X99524356Y-32523903D01*
X99649111Y-32648658D01*
X99747131Y-32795355D01*
X99814648Y-32958356D01*
X99849068Y-33131397D01*
X99849068Y-33307827D01*
X99814648Y-33480868D01*
X99747131Y-33643869D01*
X99649111Y-33790566D01*
X99524356Y-33915321D01*
X99377659Y-34013341D01*
X99214658Y-34080858D01*
X99041617Y-34115278D01*
X98865187Y-34115278D01*
X98692146Y-34080858D01*
X98529145Y-34013341D01*
X98382448Y-33915321D01*
X98257693Y-33790566D01*
X98159673Y-33643869D01*
X98092156Y-33480868D01*
X98057736Y-33307827D01*
X98057736Y-33131397D01*
X98092156Y-32958356D01*
X98159673Y-32795355D01*
X98257693Y-32648658D01*
X98382448Y-32523903D01*
X98529145Y-32425883D01*
X98692146Y-32358366D01*
X98865187Y-32323946D01*
X99041617Y-32323946D01*
X99214658Y-32358366D01*
G37*
G36*
X102284765Y-32513655D02*
G01*
X102334955Y-32519478D01*
X102352104Y-32527050D01*
X102375586Y-32531721D01*
X102400725Y-32548518D01*
X102420611Y-32557299D01*
X102434192Y-32570880D01*
X102456692Y-32585914D01*
X102471725Y-32608413D01*
X102485306Y-32621994D01*
X102494085Y-32641877D01*
X102510885Y-32667020D01*
X102515556Y-32690503D01*
X102523127Y-32707650D01*
X102528948Y-32757830D01*
X102529915Y-32762691D01*
X102529915Y-33437691D01*
X102528947Y-33442554D01*
X102523127Y-33492731D01*
X102515556Y-33509876D01*
X102510885Y-33533362D01*
X102494084Y-33558506D01*
X102485306Y-33578387D01*
X102471727Y-33591965D01*
X102456692Y-33614468D01*
X102434189Y-33629503D01*
X102420611Y-33643082D01*
X102400730Y-33651860D01*
X102375586Y-33668661D01*
X102352100Y-33673332D01*
X102334955Y-33680903D01*
X102284776Y-33686723D01*
X102279915Y-33687691D01*
X101329915Y-33687691D01*
X101325053Y-33686723D01*
X101274874Y-33680903D01*
X101257727Y-33673332D01*
X101234244Y-33668661D01*
X101209101Y-33651861D01*
X101189218Y-33643082D01*
X101175637Y-33629501D01*
X101153138Y-33614468D01*
X101138104Y-33591968D01*
X101124523Y-33578387D01*
X101115742Y-33558501D01*
X101098945Y-33533362D01*
X101094274Y-33509880D01*
X101086702Y-33492731D01*
X101080879Y-33442540D01*
X101079915Y-33437691D01*
X101079915Y-32762691D01*
X101080879Y-32757841D01*
X101086702Y-32707650D01*
X101094274Y-32690499D01*
X101098945Y-32667020D01*
X101115741Y-32641882D01*
X101124523Y-32621994D01*
X101138106Y-32608410D01*
X101153138Y-32585914D01*
X101175634Y-32570882D01*
X101189218Y-32557299D01*
X101209106Y-32548517D01*
X101234244Y-32531721D01*
X101257723Y-32527050D01*
X101274874Y-32519478D01*
X101325066Y-32513655D01*
X101329915Y-32512691D01*
X102279915Y-32512691D01*
X102284765Y-32513655D01*
G37*
G36*
X110706313Y-33017984D02*
G01*
X110754976Y-33050500D01*
X110787492Y-33099163D01*
X110798910Y-33156566D01*
X110798910Y-33456566D01*
X110787492Y-33513969D01*
X110754976Y-33562632D01*
X110706313Y-33595148D01*
X110648910Y-33606566D01*
X108998910Y-33606566D01*
X108941507Y-33595148D01*
X108892844Y-33562632D01*
X108860328Y-33513969D01*
X108848910Y-33456566D01*
X108848910Y-33156566D01*
X108860328Y-33099163D01*
X108892844Y-33050500D01*
X108941507Y-33017984D01*
X108998910Y-33006566D01*
X110648910Y-33006566D01*
X110706313Y-33017984D01*
G37*
G36*
X105756317Y-33017983D02*
G01*
X105804980Y-33050499D01*
X105837496Y-33099162D01*
X105848914Y-33156565D01*
X105848914Y-33456565D01*
X105837496Y-33513968D01*
X105804980Y-33562631D01*
X105756317Y-33595147D01*
X105698914Y-33606565D01*
X104048914Y-33606565D01*
X103991511Y-33595147D01*
X103942848Y-33562631D01*
X103910332Y-33513968D01*
X103898914Y-33456565D01*
X103898914Y-33156565D01*
X103910332Y-33099162D01*
X103942848Y-33050499D01*
X103991511Y-33017983D01*
X104048914Y-33006565D01*
X105698914Y-33006565D01*
X105756317Y-33017983D01*
G37*
G36*
X92343582Y-29358041D02*
G01*
X92596280Y-29425752D01*
X92837978Y-29525867D01*
X93064541Y-29656673D01*
X93272093Y-29815932D01*
X93457081Y-30000920D01*
X93616340Y-30208472D01*
X93747146Y-30435035D01*
X93847261Y-30676733D01*
X93914972Y-30929431D01*
X93949119Y-31188806D01*
X93949119Y-31450418D01*
X93914972Y-31709793D01*
X93847261Y-31962491D01*
X93747146Y-32204189D01*
X93616340Y-32430752D01*
X93457081Y-32638304D01*
X93272093Y-32823292D01*
X93064541Y-32982551D01*
X92837978Y-33113357D01*
X92596280Y-33213472D01*
X92343582Y-33281183D01*
X92084207Y-33315330D01*
X91822595Y-33315330D01*
X91563220Y-33281183D01*
X91310522Y-33213472D01*
X91068824Y-33113357D01*
X90842261Y-32982551D01*
X90634709Y-32823292D01*
X90449721Y-32638304D01*
X90290462Y-32430752D01*
X90159656Y-32204189D01*
X90059541Y-31962491D01*
X89991830Y-31709793D01*
X89957683Y-31450418D01*
X89957683Y-31188806D01*
X89991830Y-30929431D01*
X90059541Y-30676733D01*
X90159656Y-30435035D01*
X90290462Y-30208472D01*
X90449721Y-30000920D01*
X90634709Y-29815932D01*
X90842261Y-29656673D01*
X91068824Y-29525867D01*
X91310522Y-29425752D01*
X91563220Y-29358041D01*
X91822595Y-29323894D01*
X92084207Y-29323894D01*
X92343582Y-29358041D01*
G37*
G36*
X108133246Y-30800964D02*
G01*
X108183436Y-30806787D01*
X108200585Y-30814359D01*
X108224067Y-30819030D01*
X108249206Y-30835827D01*
X108269092Y-30844608D01*
X108282673Y-30858189D01*
X108305173Y-30873223D01*
X108320206Y-30895722D01*
X108333787Y-30909303D01*
X108342566Y-30929186D01*
X108359366Y-30954329D01*
X108364037Y-30977812D01*
X108371608Y-30994959D01*
X108377429Y-31045139D01*
X108378396Y-31050000D01*
X108378396Y-31950000D01*
X108377428Y-31954863D01*
X108371608Y-32005040D01*
X108364037Y-32022185D01*
X108359366Y-32045671D01*
X108342565Y-32070815D01*
X108333787Y-32090696D01*
X108320208Y-32104274D01*
X108305173Y-32126777D01*
X108282670Y-32141812D01*
X108269092Y-32155391D01*
X108249211Y-32164169D01*
X108224067Y-32180970D01*
X108200581Y-32185641D01*
X108183436Y-32193212D01*
X108133257Y-32199032D01*
X108128396Y-32200000D01*
X107428396Y-32200000D01*
X107423534Y-32199032D01*
X107373355Y-32193212D01*
X107356208Y-32185641D01*
X107332725Y-32180970D01*
X107307582Y-32164170D01*
X107287699Y-32155391D01*
X107274118Y-32141810D01*
X107251619Y-32126777D01*
X107236585Y-32104277D01*
X107223004Y-32090696D01*
X107214223Y-32070810D01*
X107197426Y-32045671D01*
X107192755Y-32022189D01*
X107185183Y-32005040D01*
X107179360Y-31954849D01*
X107178396Y-31950000D01*
X107178396Y-31050000D01*
X107179360Y-31045150D01*
X107185183Y-30994959D01*
X107192755Y-30977808D01*
X107197426Y-30954329D01*
X107214222Y-30929191D01*
X107223004Y-30909303D01*
X107236587Y-30895719D01*
X107251619Y-30873223D01*
X107274115Y-30858191D01*
X107287699Y-30844608D01*
X107307587Y-30835826D01*
X107332725Y-30819030D01*
X107356204Y-30814359D01*
X107373355Y-30806787D01*
X107423547Y-30800964D01*
X107428396Y-30800000D01*
X108128396Y-30800000D01*
X108133246Y-30800964D01*
G37*
G36*
X110133246Y-30800964D02*
G01*
X110183436Y-30806787D01*
X110200585Y-30814359D01*
X110224067Y-30819030D01*
X110249206Y-30835827D01*
X110269092Y-30844608D01*
X110282673Y-30858189D01*
X110305173Y-30873223D01*
X110320206Y-30895722D01*
X110333787Y-30909303D01*
X110342566Y-30929186D01*
X110359366Y-30954329D01*
X110364037Y-30977812D01*
X110371608Y-30994959D01*
X110377429Y-31045139D01*
X110378396Y-31050000D01*
X110378396Y-31950000D01*
X110377428Y-31954863D01*
X110371608Y-32005040D01*
X110364037Y-32022185D01*
X110359366Y-32045671D01*
X110342565Y-32070815D01*
X110333787Y-32090696D01*
X110320208Y-32104274D01*
X110305173Y-32126777D01*
X110282670Y-32141812D01*
X110269092Y-32155391D01*
X110249211Y-32164169D01*
X110224067Y-32180970D01*
X110200581Y-32185641D01*
X110183436Y-32193212D01*
X110133257Y-32199032D01*
X110128396Y-32200000D01*
X109428396Y-32200000D01*
X109423534Y-32199032D01*
X109373355Y-32193212D01*
X109356208Y-32185641D01*
X109332725Y-32180970D01*
X109307582Y-32164170D01*
X109287699Y-32155391D01*
X109274118Y-32141810D01*
X109251619Y-32126777D01*
X109236585Y-32104277D01*
X109223004Y-32090696D01*
X109214223Y-32070810D01*
X109197426Y-32045671D01*
X109192755Y-32022189D01*
X109185183Y-32005040D01*
X109179360Y-31954849D01*
X109178396Y-31950000D01*
X109178396Y-31050000D01*
X109179360Y-31045150D01*
X109185183Y-30994959D01*
X109192755Y-30977808D01*
X109197426Y-30954329D01*
X109214222Y-30929191D01*
X109223004Y-30909303D01*
X109236587Y-30895719D01*
X109251619Y-30873223D01*
X109274115Y-30858191D01*
X109287699Y-30844608D01*
X109307587Y-30835826D01*
X109332725Y-30819030D01*
X109356204Y-30814359D01*
X109373355Y-30806787D01*
X109423547Y-30800964D01*
X109428396Y-30800000D01*
X110128396Y-30800000D01*
X110133246Y-30800964D01*
G37*
G36*
X101897243Y-30421577D02*
G01*
X101941710Y-30426736D01*
X101956903Y-30433444D01*
X101978497Y-30437740D01*
X102001615Y-30453187D01*
X102018960Y-30460846D01*
X102030805Y-30472691D01*
X102051492Y-30486514D01*
X102065314Y-30507200D01*
X102077159Y-30519045D01*
X102084816Y-30536387D01*
X102100266Y-30559509D01*
X102104561Y-30581104D01*
X102111269Y-30596295D01*
X102116426Y-30640752D01*
X102117393Y-30645613D01*
X102117393Y-31395613D01*
X102116425Y-31400475D01*
X102111269Y-31444930D01*
X102104561Y-31460119D01*
X102100266Y-31481717D01*
X102084815Y-31504840D01*
X102077159Y-31522180D01*
X102065316Y-31534022D01*
X102051492Y-31554712D01*
X102030802Y-31568536D01*
X102018960Y-31580379D01*
X102001620Y-31588035D01*
X101978497Y-31603486D01*
X101956899Y-31607781D01*
X101941710Y-31614489D01*
X101897254Y-31619645D01*
X101892393Y-31620613D01*
X101442393Y-31620613D01*
X101437531Y-31619646D01*
X101393075Y-31614489D01*
X101377884Y-31607781D01*
X101356289Y-31603486D01*
X101333167Y-31588036D01*
X101315825Y-31580379D01*
X101303980Y-31568534D01*
X101283294Y-31554712D01*
X101269471Y-31534025D01*
X101257626Y-31522180D01*
X101249967Y-31504835D01*
X101234520Y-31481717D01*
X101230224Y-31460123D01*
X101223516Y-31444930D01*
X101218357Y-31400462D01*
X101217393Y-31395613D01*
X101217393Y-30645613D01*
X101218357Y-30640763D01*
X101223516Y-30596295D01*
X101230225Y-30581100D01*
X101234520Y-30559509D01*
X101249966Y-30536392D01*
X101257626Y-30519045D01*
X101269473Y-30507197D01*
X101283294Y-30486514D01*
X101303977Y-30472693D01*
X101315825Y-30460846D01*
X101333172Y-30453186D01*
X101356289Y-30437740D01*
X101377880Y-30433445D01*
X101393075Y-30426736D01*
X101437544Y-30421577D01*
X101442393Y-30420613D01*
X101892393Y-30420613D01*
X101897243Y-30421577D01*
G37*
G36*
X105197247Y-30421571D02*
G01*
X105241714Y-30426730D01*
X105256907Y-30433438D01*
X105278501Y-30437734D01*
X105301619Y-30453181D01*
X105318964Y-30460840D01*
X105330809Y-30472685D01*
X105351496Y-30486508D01*
X105365318Y-30507194D01*
X105377163Y-30519039D01*
X105384820Y-30536381D01*
X105400270Y-30559503D01*
X105404565Y-30581098D01*
X105411273Y-30596289D01*
X105416430Y-30640746D01*
X105417397Y-30645607D01*
X105417397Y-31395607D01*
X105416429Y-31400469D01*
X105411273Y-31444924D01*
X105404565Y-31460113D01*
X105400270Y-31481711D01*
X105384819Y-31504834D01*
X105377163Y-31522174D01*
X105365320Y-31534016D01*
X105351496Y-31554706D01*
X105330806Y-31568530D01*
X105318964Y-31580373D01*
X105301624Y-31588029D01*
X105278501Y-31603480D01*
X105256903Y-31607775D01*
X105241714Y-31614483D01*
X105197258Y-31619639D01*
X105192397Y-31620607D01*
X104742397Y-31620607D01*
X104737535Y-31619640D01*
X104693079Y-31614483D01*
X104677888Y-31607775D01*
X104656293Y-31603480D01*
X104633171Y-31588030D01*
X104615829Y-31580373D01*
X104603984Y-31568528D01*
X104583298Y-31554706D01*
X104569475Y-31534019D01*
X104557630Y-31522174D01*
X104549971Y-31504829D01*
X104534524Y-31481711D01*
X104530228Y-31460117D01*
X104523520Y-31444924D01*
X104518361Y-31400456D01*
X104517397Y-31395607D01*
X104517397Y-30645607D01*
X104518361Y-30640757D01*
X104523520Y-30596289D01*
X104530229Y-30581094D01*
X104534524Y-30559503D01*
X104549970Y-30536386D01*
X104557630Y-30519039D01*
X104569477Y-30507191D01*
X104583298Y-30486508D01*
X104603981Y-30472687D01*
X104615829Y-30460840D01*
X104633176Y-30453180D01*
X104656293Y-30437734D01*
X104677884Y-30433439D01*
X104693079Y-30426730D01*
X104737548Y-30421571D01*
X104742397Y-30420607D01*
X105192397Y-30420607D01*
X105197247Y-30421571D01*
G37*
G36*
X101897247Y-27881577D02*
G01*
X101941714Y-27886736D01*
X101956907Y-27893444D01*
X101978501Y-27897740D01*
X102001619Y-27913187D01*
X102018964Y-27920846D01*
X102030809Y-27932691D01*
X102051496Y-27946514D01*
X102065318Y-27967200D01*
X102077163Y-27979045D01*
X102084820Y-27996387D01*
X102100270Y-28019509D01*
X102104565Y-28041104D01*
X102111273Y-28056295D01*
X102116430Y-28100752D01*
X102117397Y-28105613D01*
X102117397Y-28855613D01*
X102116429Y-28860475D01*
X102111273Y-28904930D01*
X102104565Y-28920119D01*
X102100270Y-28941717D01*
X102084819Y-28964840D01*
X102077163Y-28982180D01*
X102065320Y-28994022D01*
X102051496Y-29014712D01*
X102030806Y-29028536D01*
X102018964Y-29040379D01*
X102001624Y-29048035D01*
X101978501Y-29063486D01*
X101956903Y-29067781D01*
X101941714Y-29074489D01*
X101897258Y-29079645D01*
X101892397Y-29080613D01*
X101442397Y-29080613D01*
X101437535Y-29079646D01*
X101393079Y-29074489D01*
X101377888Y-29067781D01*
X101356293Y-29063486D01*
X101333171Y-29048036D01*
X101315829Y-29040379D01*
X101303984Y-29028534D01*
X101283298Y-29014712D01*
X101269475Y-28994025D01*
X101257630Y-28982180D01*
X101249971Y-28964835D01*
X101234524Y-28941717D01*
X101230228Y-28920123D01*
X101223520Y-28904930D01*
X101218361Y-28860462D01*
X101217397Y-28855613D01*
X101217397Y-28105613D01*
X101218361Y-28100763D01*
X101223520Y-28056295D01*
X101230229Y-28041100D01*
X101234524Y-28019509D01*
X101249970Y-27996392D01*
X101257630Y-27979045D01*
X101269477Y-27967197D01*
X101283298Y-27946514D01*
X101303981Y-27932693D01*
X101315829Y-27920846D01*
X101333176Y-27913186D01*
X101356293Y-27897740D01*
X101377884Y-27893445D01*
X101393079Y-27886736D01*
X101437548Y-27881577D01*
X101442397Y-27880613D01*
X101892397Y-27880613D01*
X101897247Y-27881577D01*
G37*
G36*
X105197251Y-27881571D02*
G01*
X105241718Y-27886730D01*
X105256911Y-27893438D01*
X105278505Y-27897734D01*
X105301623Y-27913181D01*
X105318968Y-27920840D01*
X105330813Y-27932685D01*
X105351500Y-27946508D01*
X105365322Y-27967194D01*
X105377167Y-27979039D01*
X105384824Y-27996381D01*
X105400274Y-28019503D01*
X105404569Y-28041098D01*
X105411277Y-28056289D01*
X105416434Y-28100746D01*
X105417401Y-28105607D01*
X105417401Y-28855607D01*
X105416433Y-28860469D01*
X105411277Y-28904924D01*
X105404569Y-28920113D01*
X105400274Y-28941711D01*
X105384823Y-28964834D01*
X105377167Y-28982174D01*
X105365324Y-28994016D01*
X105351500Y-29014706D01*
X105330810Y-29028530D01*
X105318968Y-29040373D01*
X105301628Y-29048029D01*
X105278505Y-29063480D01*
X105256907Y-29067775D01*
X105241718Y-29074483D01*
X105197262Y-29079639D01*
X105192401Y-29080607D01*
X104742401Y-29080607D01*
X104737539Y-29079640D01*
X104693083Y-29074483D01*
X104677892Y-29067775D01*
X104656297Y-29063480D01*
X104633175Y-29048030D01*
X104615833Y-29040373D01*
X104603988Y-29028528D01*
X104583302Y-29014706D01*
X104569479Y-28994019D01*
X104557634Y-28982174D01*
X104549975Y-28964829D01*
X104534528Y-28941711D01*
X104530232Y-28920117D01*
X104523524Y-28904924D01*
X104518365Y-28860456D01*
X104517401Y-28855607D01*
X104517401Y-28105607D01*
X104518365Y-28100757D01*
X104523524Y-28056289D01*
X104530233Y-28041094D01*
X104534528Y-28019503D01*
X104549974Y-27996386D01*
X104557634Y-27979039D01*
X104569481Y-27967191D01*
X104583302Y-27946508D01*
X104603985Y-27932687D01*
X104615833Y-27920840D01*
X104633180Y-27913180D01*
X104656297Y-27897734D01*
X104677888Y-27893439D01*
X104693083Y-27886730D01*
X104737552Y-27881571D01*
X104742401Y-27880607D01*
X105192401Y-27880607D01*
X105197251Y-27881571D01*
G37*
G36*
X88429199Y-24090070D02*
G01*
X88707167Y-24164552D01*
X88973035Y-24274678D01*
X89222255Y-24418565D01*
X89450561Y-24593750D01*
X89654048Y-24797237D01*
X89829233Y-25025543D01*
X89973120Y-25274763D01*
X90083246Y-25540631D01*
X90157728Y-25818599D01*
X90195290Y-26103911D01*
X90195290Y-26391685D01*
X90157728Y-26676997D01*
X90083246Y-26954965D01*
X89973120Y-27220833D01*
X89829233Y-27470053D01*
X89654048Y-27698359D01*
X89450561Y-27901846D01*
X89222255Y-28077031D01*
X88973035Y-28220918D01*
X88707167Y-28331044D01*
X88429199Y-28405526D01*
X88143887Y-28443088D01*
X87856113Y-28443088D01*
X87570801Y-28405526D01*
X87292833Y-28331044D01*
X87026965Y-28220918D01*
X86777745Y-28077031D01*
X86549439Y-27901846D01*
X86345952Y-27698359D01*
X86170767Y-27470053D01*
X86026880Y-27220833D01*
X85916754Y-26954965D01*
X85842272Y-26676997D01*
X85804710Y-26391685D01*
X85804710Y-26103911D01*
X85842272Y-25818599D01*
X85916754Y-25540631D01*
X86026880Y-25274763D01*
X86170767Y-25025543D01*
X86345952Y-24797237D01*
X86549439Y-24593750D01*
X86777745Y-24418565D01*
X87026965Y-24274678D01*
X87292833Y-24164552D01*
X87570801Y-24090070D01*
X87856113Y-24052508D01*
X88143887Y-24052508D01*
X88429199Y-24090070D01*
G37*
G36*
X116929199Y-24090070D02*
G01*
X117207167Y-24164552D01*
X117473035Y-24274678D01*
X117722255Y-24418565D01*
X117950561Y-24593750D01*
X118154048Y-24797237D01*
X118329233Y-25025543D01*
X118473120Y-25274763D01*
X118583246Y-25540631D01*
X118657728Y-25818599D01*
X118695290Y-26103911D01*
X118695290Y-26391685D01*
X118657728Y-26676997D01*
X118583246Y-26954965D01*
X118473120Y-27220833D01*
X118329233Y-27470053D01*
X118154048Y-27698359D01*
X117950561Y-27901846D01*
X117722255Y-28077031D01*
X117473035Y-28220918D01*
X117207167Y-28331044D01*
X116929199Y-28405526D01*
X116643887Y-28443088D01*
X116356113Y-28443088D01*
X116070801Y-28405526D01*
X115792833Y-28331044D01*
X115526965Y-28220918D01*
X115277745Y-28077031D01*
X115049439Y-27901846D01*
X114845952Y-27698359D01*
X114670767Y-27470053D01*
X114526880Y-27220833D01*
X114416754Y-26954965D01*
X114342272Y-26676997D01*
X114304710Y-26391685D01*
X114304710Y-26103911D01*
X114342272Y-25818599D01*
X114416754Y-25540631D01*
X114526880Y-25274763D01*
X114670767Y-25025543D01*
X114845952Y-24797237D01*
X115049439Y-24593750D01*
X115277745Y-24418565D01*
X115526965Y-24274678D01*
X115792833Y-24164552D01*
X116070801Y-24090070D01*
X116356113Y-24052508D01*
X116643887Y-24052508D01*
X116929199Y-24090070D01*
G37*
M02*
