M48
; DRILL file {KiCad 9.0.3} date 2025-07-15T20:34:14+1200
; FORMAT={-:-/ absolute / metric / decimal}
; #@! TF.CreationDate,2025-07-15T20:34:14+12:00
; #@! TF.GenerationSoftware,Kicad,Pcbnew,9.0.3
; #@! TF.FileFunction,Plated,1,2,PTH
FMAT,2
METRIC
; #@! TA.AperFunction,Plated,PTH,ViaDrill
T1C0.300
; #@! TA.AperFunction,Plated,PTH,ComponentDrill
T2C1.000
; #@! TA.AperFunction,Plated,PTH,ComponentDrill
T3C2.200
%
G90
G05
T1
X87.0Y-30.0
X87.0Y-33.0
X87.0Y-36.0
X87.0Y-39.0
X87.0Y-42.0
X87.0Y-45.0
X87.0Y-51.0
X90.0Y-36.0
X90.0Y-45.0
X90.0Y-51.0
X90.0Y-54.0
X90.66Y-48.408
X92.408Y-45.596
X93.0Y-27.0
X93.0Y-36.0
X93.0Y-54.0
X93.0Y-57.0
X96.0Y-27.0
X96.0Y-30.0
X96.0Y-33.0
X96.0Y-36.0
X96.0Y-39.0
X96.0Y-42.0
X96.0Y-45.0
X96.0Y-57.0
X99.0Y-27.0
X99.0Y-30.0
X99.0Y-54.0
X99.0Y-57.0
X100.28Y-34.256
X102.0Y-27.0
X102.0Y-43.382
X102.0Y-44.668
X102.0Y-51.0
X102.0Y-54.0
X102.0Y-57.0
X103.191Y-33.097
X103.288Y-44.668
X104.75Y-43.418
X104.75Y-44.668
X104.865Y-32.568
X105.0Y-27.0
X105.0Y-54.0
X105.0Y-57.0
X108.0Y-27.0
X108.0Y-30.0
X108.0Y-39.0
X108.0Y-54.0
X108.0Y-57.0
X111.0Y-27.0
X111.0Y-30.0
X111.0Y-39.0
X111.0Y-57.0
X112.444Y-40.5
X114.0Y-30.0
X114.0Y-33.0
X114.0Y-36.0
X114.0Y-39.0
X114.0Y-42.0
X114.0Y-54.0
X114.0Y-57.0
X117.0Y-30.0
X117.0Y-33.0
X117.0Y-36.0
X117.0Y-39.0
X117.0Y-42.0
T2
X87.0Y-47.148
X87.0Y-49.688
X98.953Y-33.22
X98.953Y-35.72
X98.953Y-38.22
X117.5Y-47.158
X117.5Y-49.698
T3
X88.0Y-26.248
X88.0Y-55.998
X116.5Y-26.248
X116.5Y-55.998
T2
G00X89.1Y-49.523
M15
G01X89.1Y-47.323
M16
G05
G00X92.416Y-47.323
M15
G01X92.416Y-49.523
M16
G05
G00X91.4Y-43.623
M15
G01X93.6Y-43.623
M16
G05
G00X95.4Y-49.723
M15
G01X95.4Y-47.123
M16
G05
G00X96.916Y-53.223
M15
G01X94.716Y-53.223
M16
G05
G00X98.716Y-47.123
M15
G01X98.716Y-49.723
M16
G05
G00X105.574Y-49.723
M15
G01X105.574Y-47.123
M16
G05
G00X107.374Y-43.623
M15
G01X109.574Y-43.623
M16
G05
G00X108.6Y-47.123
M15
G01X108.6Y-49.723
M16
G05
G00X112.6Y-53.223
M15
G01X110.4Y-53.223
M16
G05
G00X111.874Y-49.523
M15
G01X111.874Y-47.323
M16
G05
G00X114.9Y-47.323
M15
G01X114.9Y-49.523
M16
G05
T3
G00X92.053Y-31.32
M15
G01X91.853Y-31.32
M16
G05
G00X92.053Y-40.12
M15
G01X91.853Y-40.12
M16
G05
M30
