%TF.GenerationSoftware,KiCad,Pcbnew,9.0.3*%
%TF.CreationDate,2025-07-15T20:34:28+12:00*%
%TF.ProjectId,LED_Dimmer,4c45445f-4469-46d6-9d65-722e6b696361,rev?*%
%TF.SameCoordinates,Original*%
%TF.FileFunction,Legend,Bot*%
%TF.FilePolarity,Positive*%
%FSLAX46Y46*%
G04 Gerber Fmt 4.6, Leading zero omitted, Abs format (unit mm)*
G04 Created by KiCad (PCBNEW 9.0.3) date 2025-07-15 20:34:28*
%MOMM*%
%LPD*%
G01*
G04 APERTURE LIST*
%ADD10C,0.150000*%
%ADD11C,0.120000*%
%ADD12C,0.000000*%
G04 APERTURE END LIST*
D10*
X98975841Y-42251848D02*
X98975841Y-42966133D01*
X98975841Y-42966133D02*
X99023460Y-43108990D01*
X99023460Y-43108990D02*
X99118698Y-43204229D01*
X99118698Y-43204229D02*
X99261555Y-43251848D01*
X99261555Y-43251848D02*
X99356793Y-43251848D01*
X98737746Y-43347086D02*
X97975841Y-43347086D01*
X97737745Y-43251848D02*
X97737745Y-42251848D01*
X97737745Y-42251848D02*
X97356793Y-42251848D01*
X97356793Y-42251848D02*
X97261555Y-42299467D01*
X97261555Y-42299467D02*
X97213936Y-42347086D01*
X97213936Y-42347086D02*
X97166317Y-42442324D01*
X97166317Y-42442324D02*
X97166317Y-42585181D01*
X97166317Y-42585181D02*
X97213936Y-42680419D01*
X97213936Y-42680419D02*
X97261555Y-42728038D01*
X97261555Y-42728038D02*
X97356793Y-42775657D01*
X97356793Y-42775657D02*
X97737745Y-42775657D01*
X96785364Y-43204229D02*
X96642507Y-43251848D01*
X96642507Y-43251848D02*
X96404412Y-43251848D01*
X96404412Y-43251848D02*
X96309174Y-43204229D01*
X96309174Y-43204229D02*
X96261555Y-43156609D01*
X96261555Y-43156609D02*
X96213936Y-43061371D01*
X96213936Y-43061371D02*
X96213936Y-42966133D01*
X96213936Y-42966133D02*
X96261555Y-42870895D01*
X96261555Y-42870895D02*
X96309174Y-42823276D01*
X96309174Y-42823276D02*
X96404412Y-42775657D01*
X96404412Y-42775657D02*
X96594888Y-42728038D01*
X96594888Y-42728038D02*
X96690126Y-42680419D01*
X96690126Y-42680419D02*
X96737745Y-42632800D01*
X96737745Y-42632800D02*
X96785364Y-42537562D01*
X96785364Y-42537562D02*
X96785364Y-42442324D01*
X96785364Y-42442324D02*
X96737745Y-42347086D01*
X96737745Y-42347086D02*
X96690126Y-42299467D01*
X96690126Y-42299467D02*
X96594888Y-42251848D01*
X96594888Y-42251848D02*
X96356793Y-42251848D01*
X96356793Y-42251848D02*
X96213936Y-42299467D01*
X95832983Y-42347086D02*
X95785364Y-42299467D01*
X95785364Y-42299467D02*
X95690126Y-42251848D01*
X95690126Y-42251848D02*
X95452031Y-42251848D01*
X95452031Y-42251848D02*
X95356793Y-42299467D01*
X95356793Y-42299467D02*
X95309174Y-42347086D01*
X95309174Y-42347086D02*
X95261555Y-42442324D01*
X95261555Y-42442324D02*
X95261555Y-42537562D01*
X95261555Y-42537562D02*
X95309174Y-42680419D01*
X95309174Y-42680419D02*
X95880602Y-43251848D01*
X95880602Y-43251848D02*
X95261555Y-43251848D01*
X115821428Y-42454819D02*
X115821428Y-43169104D01*
X115821428Y-43169104D02*
X115869047Y-43311961D01*
X115869047Y-43311961D02*
X115964285Y-43407200D01*
X115964285Y-43407200D02*
X116107142Y-43454819D01*
X116107142Y-43454819D02*
X116202380Y-43454819D01*
X115583333Y-43550057D02*
X114821428Y-43550057D01*
X114107142Y-43454819D02*
X114583332Y-43454819D01*
X114583332Y-43454819D02*
X114583332Y-42454819D01*
X113773808Y-42931009D02*
X113440475Y-42931009D01*
X113297618Y-43454819D02*
X113773808Y-43454819D01*
X113773808Y-43454819D02*
X113773808Y-42454819D01*
X113773808Y-42454819D02*
X113297618Y-42454819D01*
X112869046Y-43454819D02*
X112869046Y-42454819D01*
X112869046Y-42454819D02*
X112630951Y-42454819D01*
X112630951Y-42454819D02*
X112488094Y-42502438D01*
X112488094Y-42502438D02*
X112392856Y-42597676D01*
X112392856Y-42597676D02*
X112345237Y-42692914D01*
X112345237Y-42692914D02*
X112297618Y-42883390D01*
X112297618Y-42883390D02*
X112297618Y-43026247D01*
X112297618Y-43026247D02*
X112345237Y-43216723D01*
X112345237Y-43216723D02*
X112392856Y-43311961D01*
X112392856Y-43311961D02*
X112488094Y-43407200D01*
X112488094Y-43407200D02*
X112630951Y-43454819D01*
X112630951Y-43454819D02*
X112869046Y-43454819D01*
X111916665Y-42550057D02*
X111869046Y-42502438D01*
X111869046Y-42502438D02*
X111773808Y-42454819D01*
X111773808Y-42454819D02*
X111535713Y-42454819D01*
X111535713Y-42454819D02*
X111440475Y-42502438D01*
X111440475Y-42502438D02*
X111392856Y-42550057D01*
X111392856Y-42550057D02*
X111345237Y-42645295D01*
X111345237Y-42645295D02*
X111345237Y-42740533D01*
X111345237Y-42740533D02*
X111392856Y-42883390D01*
X111392856Y-42883390D02*
X111964284Y-43454819D01*
X111964284Y-43454819D02*
X111345237Y-43454819D01*
D11*
%TO.C,J_PS2*%
X81599999Y-43823111D02*
X81600001Y-53023108D01*
X81600001Y-53023108D02*
X96099999Y-53023107D01*
X90200000Y-43823110D02*
X81599999Y-43823111D01*
X96099999Y-53023107D02*
X96100003Y-51023109D01*
X96100000Y-45823106D02*
X96100002Y-43823111D01*
X96100002Y-43823111D02*
X94800001Y-43823109D01*
X96399997Y-51623110D02*
X96399998Y-53323111D01*
X96399998Y-53323111D02*
X95099998Y-53323113D01*
%TO.C,J_LED2*%
X107600001Y-43523108D02*
X108900001Y-43523109D01*
X107600001Y-45223110D02*
X107600001Y-43523108D01*
X107899999Y-53023109D02*
X109199999Y-53023110D01*
X107900001Y-43823110D02*
X107900000Y-45823110D01*
X107900001Y-51023110D02*
X107899999Y-53023109D01*
X113800000Y-53023109D02*
X122400001Y-53023108D01*
X122399999Y-43823109D02*
X107900001Y-43823110D01*
X122400001Y-53023108D02*
X122399999Y-43823109D01*
D12*
%TO.C,G2_R*%
G36*
X106977949Y-55999999D02*
G01*
X106977949Y-56098602D01*
X106479302Y-56098602D01*
X105980655Y-56098602D01*
X105980655Y-55999999D01*
X105980655Y-55901397D01*
X106479302Y-55901397D01*
X106977949Y-55901397D01*
X106977949Y-55999999D01*
G37*
G36*
X112572935Y-55701375D02*
G01*
X112572935Y-55901397D01*
X112772958Y-55901397D01*
X112972980Y-55901397D01*
X112972980Y-55999999D01*
X112972980Y-56098602D01*
X112772958Y-56098602D01*
X112572935Y-56098602D01*
X112572935Y-56298624D01*
X112572935Y-56498646D01*
X112471516Y-56498646D01*
X112370096Y-56498646D01*
X112370096Y-56298624D01*
X112370096Y-56098602D01*
X112170074Y-56098602D01*
X111970052Y-56098602D01*
X111970052Y-55999999D01*
X111970052Y-55901397D01*
X112170074Y-55901397D01*
X112370096Y-55901397D01*
X112370096Y-55701375D01*
X112370096Y-55501353D01*
X112471516Y-55501353D01*
X112572935Y-55501353D01*
X112572935Y-55701375D01*
G37*
G36*
X109937589Y-56045678D02*
G01*
X109933083Y-56088419D01*
X109925771Y-56123957D01*
X109925370Y-56125364D01*
X109900050Y-56194567D01*
X109866055Y-56257062D01*
X109824118Y-56312330D01*
X109774976Y-56359849D01*
X109719363Y-56399100D01*
X109658014Y-56429562D01*
X109591665Y-56450714D01*
X109521050Y-56462037D01*
X109446905Y-56463009D01*
X109409727Y-56460046D01*
X109372399Y-56454421D01*
X109337701Y-56445453D01*
X109301687Y-56432088D01*
X109260414Y-56413275D01*
X109233855Y-56399896D01*
X109212592Y-56387485D01*
X109193711Y-56373841D01*
X109173913Y-56356577D01*
X109149897Y-56333306D01*
X109119121Y-56301032D01*
X109092799Y-56268789D01*
X109071212Y-56235724D01*
X109052877Y-56199243D01*
X109036316Y-56156749D01*
X109020045Y-56105645D01*
X109019317Y-56105089D01*
X109014688Y-56104112D01*
X109005405Y-56103232D01*
X108990996Y-56102444D01*
X108970989Y-56101744D01*
X108944912Y-56101127D01*
X108912290Y-56100589D01*
X108872653Y-56100126D01*
X108825528Y-56099734D01*
X108770441Y-56099408D01*
X108706921Y-56099143D01*
X108634494Y-56098937D01*
X108552689Y-56098784D01*
X108461033Y-56098680D01*
X108359053Y-56098621D01*
X108246277Y-56098602D01*
X107474589Y-56098602D01*
X107470743Y-56131000D01*
X107464964Y-56171664D01*
X107443422Y-56269565D01*
X107411406Y-56366872D01*
X107369395Y-56462022D01*
X107338045Y-56519757D01*
X107281317Y-56605607D01*
X107216522Y-56683990D01*
X107144181Y-56754556D01*
X107064812Y-56816954D01*
X106978934Y-56870833D01*
X106887067Y-56915844D01*
X106789730Y-56951637D01*
X106687442Y-56977860D01*
X106580722Y-56994164D01*
X106579640Y-56994273D01*
X106553579Y-56996060D01*
X106520595Y-56997159D01*
X106484804Y-56997483D01*
X106450324Y-56996945D01*
X106426921Y-56995993D01*
X106318286Y-56985259D01*
X106214160Y-56964334D01*
X106114770Y-56933312D01*
X106020343Y-56892291D01*
X105931108Y-56841365D01*
X105847291Y-56780630D01*
X105769119Y-56710182D01*
X105765901Y-56706949D01*
X105695752Y-56628476D01*
X105635438Y-56544501D01*
X105584960Y-56455032D01*
X105544322Y-56360078D01*
X105513529Y-56259646D01*
X105492583Y-56153745D01*
X105481487Y-56042383D01*
X105480231Y-55999599D01*
X105480320Y-55997682D01*
X105706734Y-55997682D01*
X105707412Y-56045272D01*
X105709508Y-56090172D01*
X105713018Y-56129551D01*
X105717942Y-56160581D01*
X105720453Y-56171788D01*
X105747002Y-56263383D01*
X105782734Y-56349047D01*
X105827156Y-56428305D01*
X105879779Y-56500680D01*
X105940111Y-56565698D01*
X106007662Y-56622882D01*
X106081941Y-56671758D01*
X106162458Y-56711848D01*
X106248720Y-56742678D01*
X106340239Y-56763772D01*
X106347202Y-56764908D01*
X106397020Y-56770664D01*
X106452527Y-56773692D01*
X106509575Y-56773960D01*
X106564019Y-56771430D01*
X106611711Y-56766069D01*
X106661978Y-56756448D01*
X106749903Y-56731127D01*
X106832842Y-56696199D01*
X106910206Y-56652249D01*
X106981402Y-56599857D01*
X107045841Y-56539607D01*
X107102931Y-56472081D01*
X107152082Y-56397860D01*
X107192703Y-56317529D01*
X107224202Y-56231668D01*
X107245990Y-56140860D01*
X107250922Y-56105534D01*
X107254697Y-56056163D01*
X107256105Y-56002855D01*
X107255144Y-55949349D01*
X107251814Y-55899384D01*
X107246112Y-55856697D01*
X107242149Y-55836453D01*
X107219192Y-55750717D01*
X107187251Y-55668368D01*
X107147081Y-55590727D01*
X107099435Y-55519116D01*
X107045068Y-55454854D01*
X106984737Y-55399263D01*
X106964533Y-55383463D01*
X106885555Y-55330332D01*
X106802278Y-55287587D01*
X106714350Y-55255066D01*
X106621422Y-55232609D01*
X106612179Y-55231057D01*
X106571184Y-55226424D01*
X106523503Y-55223793D01*
X106472622Y-55223157D01*
X106422025Y-55224508D01*
X106375197Y-55227841D01*
X106335624Y-55233149D01*
X106312420Y-55237703D01*
X106222919Y-55262222D01*
X106137787Y-55296783D01*
X106057834Y-55340955D01*
X105983865Y-55394307D01*
X105916690Y-55456409D01*
X105859667Y-55522506D01*
X105811681Y-55592819D01*
X105772477Y-55668220D01*
X105741370Y-55750026D01*
X105717675Y-55839553D01*
X105713226Y-55867069D01*
X105709638Y-55905751D01*
X105707475Y-55950232D01*
X105706734Y-55997682D01*
X105480320Y-55997682D01*
X105484713Y-55903174D01*
X105498795Y-55806125D01*
X105521957Y-55710093D01*
X105553679Y-55616718D01*
X105593442Y-55527641D01*
X105640725Y-55444503D01*
X105695007Y-55368944D01*
X105717510Y-55342134D01*
X105789231Y-55268118D01*
X105867865Y-55202445D01*
X105952599Y-55145417D01*
X106042621Y-55097337D01*
X106137120Y-55058508D01*
X106235283Y-55029231D01*
X106336298Y-55009810D01*
X106439353Y-55000547D01*
X106543636Y-55001745D01*
X106648335Y-55013707D01*
X106723228Y-55028850D01*
X106825227Y-55058759D01*
X106921726Y-55098410D01*
X107012529Y-55147704D01*
X107097438Y-55206546D01*
X107176258Y-55274837D01*
X107199128Y-55297607D01*
X107268121Y-55376506D01*
X107327910Y-55461641D01*
X107378180Y-55552390D01*
X107418615Y-55648130D01*
X107448900Y-55748239D01*
X107468720Y-55852096D01*
X107475486Y-55901397D01*
X108246000Y-55901397D01*
X109016514Y-55901397D01*
X109028856Y-55860547D01*
X109035537Y-55840073D01*
X109064232Y-55774574D01*
X109101889Y-55715404D01*
X109147915Y-55663264D01*
X109201719Y-55618857D01*
X109262709Y-55582885D01*
X109297239Y-55567205D01*
X109342465Y-55551259D01*
X109388009Y-55541279D01*
X109437289Y-55536578D01*
X109493721Y-55536468D01*
X109509258Y-55537005D01*
X109539120Y-55538498D01*
X109562430Y-55540738D01*
X109582497Y-55544239D01*
X109602628Y-55549516D01*
X109626130Y-55557085D01*
X109633418Y-55559599D01*
X109693698Y-55585172D01*
X109747018Y-55617446D01*
X109796303Y-55658157D01*
X109828186Y-55691345D01*
X109870943Y-55748962D01*
X109904402Y-55812659D01*
X109928114Y-55881676D01*
X109933916Y-55911431D01*
X109938042Y-55953464D01*
X109939254Y-55999453D01*
X109939131Y-56002855D01*
X109937589Y-56045678D01*
G37*
G36*
X113468763Y-56001119D02*
G01*
X113467733Y-56049208D01*
X113457806Y-56154928D01*
X113437712Y-56256789D01*
X113407911Y-56354287D01*
X113368858Y-56446917D01*
X113321012Y-56534172D01*
X113264829Y-56615547D01*
X113200767Y-56690538D01*
X113129282Y-56758639D01*
X113050833Y-56819344D01*
X112965876Y-56872149D01*
X112874869Y-56916547D01*
X112778269Y-56952034D01*
X112676533Y-56978105D01*
X112570118Y-56994253D01*
X112516754Y-56997764D01*
X112438374Y-56997310D01*
X112356798Y-56991078D01*
X112275573Y-56979371D01*
X112198246Y-56962494D01*
X112104700Y-56932875D01*
X112011731Y-56892365D01*
X111924200Y-56842711D01*
X111842698Y-56784555D01*
X111767815Y-56718538D01*
X111700143Y-56645303D01*
X111640272Y-56565491D01*
X111588792Y-56479745D01*
X111546295Y-56388706D01*
X111513371Y-56293017D01*
X111490610Y-56193321D01*
X111490502Y-56192695D01*
X111485710Y-56164946D01*
X111481443Y-56140356D01*
X111478162Y-56121574D01*
X111476327Y-56111249D01*
X111473992Y-56098541D01*
X110971720Y-56099980D01*
X110469448Y-56101419D01*
X110459140Y-56162637D01*
X110454832Y-56186494D01*
X110429588Y-56288622D01*
X110394317Y-56386512D01*
X110349509Y-56479509D01*
X110295655Y-56566960D01*
X110233245Y-56648209D01*
X110162769Y-56722603D01*
X110084717Y-56789487D01*
X109999581Y-56848208D01*
X109907851Y-56898110D01*
X109874890Y-56913173D01*
X109774693Y-56951011D01*
X109672926Y-56977735D01*
X109569923Y-56993324D01*
X109466020Y-56997758D01*
X109361550Y-56991017D01*
X109256847Y-56973080D01*
X109152246Y-56943928D01*
X109125400Y-56934565D01*
X109055427Y-56905630D01*
X108987031Y-56870214D01*
X108916756Y-56826596D01*
X108905288Y-56818741D01*
X108860218Y-56784625D01*
X108813368Y-56744713D01*
X108767690Y-56701745D01*
X108726131Y-56658459D01*
X108691642Y-56617593D01*
X108657012Y-56572828D01*
X108740118Y-56515122D01*
X108764183Y-56498395D01*
X108788693Y-56481323D01*
X108808758Y-56467307D01*
X108822772Y-56457468D01*
X108829130Y-56452929D01*
X108830723Y-56452659D01*
X108838907Y-56457925D01*
X108851880Y-56471141D01*
X108868571Y-56491267D01*
X108872132Y-56495773D01*
X108929828Y-56559344D01*
X108996018Y-56616519D01*
X109069508Y-56666572D01*
X109149108Y-56708780D01*
X109233626Y-56742419D01*
X109321871Y-56766763D01*
X109359447Y-56772895D01*
X109405193Y-56777090D01*
X109455118Y-56779171D01*
X109505740Y-56779070D01*
X109553575Y-56776720D01*
X109595140Y-56772053D01*
X109637178Y-56764269D01*
X109726405Y-56739526D01*
X109811686Y-56704447D01*
X109892291Y-56659413D01*
X109967489Y-56604807D01*
X110036551Y-56541010D01*
X110037644Y-56539873D01*
X110096342Y-56472215D01*
X110145276Y-56401264D01*
X110185208Y-56325582D01*
X110216898Y-56243731D01*
X110241107Y-56154273D01*
X110247310Y-56119179D01*
X110252651Y-56065965D01*
X110254719Y-56008436D01*
X110254167Y-55981813D01*
X111696184Y-55981813D01*
X111696822Y-56032885D01*
X111699371Y-56082595D01*
X111703804Y-56127954D01*
X111710093Y-56165971D01*
X111725350Y-56225968D01*
X111756806Y-56314053D01*
X111797400Y-56395972D01*
X111846683Y-56471271D01*
X111904205Y-56539500D01*
X111969517Y-56600205D01*
X112042168Y-56652936D01*
X112121710Y-56697240D01*
X112207692Y-56732664D01*
X112299666Y-56758758D01*
X112306494Y-56760188D01*
X112341515Y-56765474D01*
X112383971Y-56769424D01*
X112430815Y-56771958D01*
X112478998Y-56773000D01*
X112525473Y-56772473D01*
X112567192Y-56770299D01*
X112601108Y-56766401D01*
X112635388Y-56760055D01*
X112726187Y-56735985D01*
X112811171Y-56702282D01*
X112890490Y-56658868D01*
X112964295Y-56605666D01*
X113032735Y-56542598D01*
X113087175Y-56480304D01*
X113136588Y-56409022D01*
X113177047Y-56332295D01*
X113209097Y-56249084D01*
X113233280Y-56158350D01*
X113237785Y-56132893D01*
X113242713Y-56088255D01*
X113245576Y-56038099D01*
X113246346Y-55985740D01*
X113244995Y-55934491D01*
X113241498Y-55887666D01*
X113235825Y-55848580D01*
X113219199Y-55779816D01*
X113188468Y-55691780D01*
X113148649Y-55609609D01*
X113100243Y-55533826D01*
X113043748Y-55464955D01*
X112979666Y-55403519D01*
X112908495Y-55350043D01*
X112830736Y-55305051D01*
X112746888Y-55269065D01*
X112657452Y-55242611D01*
X112589945Y-55229866D01*
X112498083Y-55221777D01*
X112406150Y-55223885D01*
X112315453Y-55235996D01*
X112227300Y-55257918D01*
X112142998Y-55289456D01*
X112063853Y-55330418D01*
X111990915Y-55379917D01*
X111922474Y-55439340D01*
X111862273Y-55506321D01*
X111810471Y-55580628D01*
X111767230Y-55662029D01*
X111732710Y-55750293D01*
X111707072Y-55845188D01*
X111706023Y-55850325D01*
X111700756Y-55887543D01*
X111697486Y-55932369D01*
X111696184Y-55981813D01*
X110254167Y-55981813D01*
X110253514Y-55950276D01*
X110249032Y-55895172D01*
X110241271Y-55846808D01*
X110221368Y-55770177D01*
X110189485Y-55684256D01*
X110148528Y-55604455D01*
X110098052Y-55529932D01*
X110037615Y-55459845D01*
X110036616Y-55458808D01*
X109967480Y-55394958D01*
X109892842Y-55340927D01*
X109812755Y-55296751D01*
X109727274Y-55262464D01*
X109725587Y-55261903D01*
X109680307Y-55247612D01*
X109640929Y-55237151D01*
X109604033Y-55229985D01*
X109566194Y-55225580D01*
X109523990Y-55223401D01*
X109474000Y-55222914D01*
X109432521Y-55223681D01*
X109365838Y-55228376D01*
X109305026Y-55237937D01*
X109247051Y-55253061D01*
X109188881Y-55274449D01*
X109127483Y-55302800D01*
X109121139Y-55306005D01*
X109058062Y-55341398D01*
X109000985Y-55380700D01*
X108947794Y-55425682D01*
X108896374Y-55478117D01*
X108844608Y-55539776D01*
X108834319Y-55552845D01*
X108747072Y-55492411D01*
X108746289Y-55491868D01*
X108718887Y-55472872D01*
X108694834Y-55456171D01*
X108675611Y-55442794D01*
X108662695Y-55433771D01*
X108657567Y-55430130D01*
X108658198Y-55426135D01*
X108665126Y-55415029D01*
X108677711Y-55398452D01*
X108694727Y-55377838D01*
X108714950Y-55354622D01*
X108737153Y-55330240D01*
X108760111Y-55306125D01*
X108782600Y-55283714D01*
X108837360Y-55233864D01*
X108896677Y-55187285D01*
X108958482Y-55146831D01*
X109026063Y-55110156D01*
X109067384Y-55090481D01*
X109147746Y-55057738D01*
X109227572Y-55033189D01*
X109310365Y-55015845D01*
X109399624Y-55004719D01*
X109428576Y-55002734D01*
X109509550Y-55002637D01*
X109594207Y-55009739D01*
X109679243Y-55023681D01*
X109761356Y-55044103D01*
X109839615Y-55070993D01*
X109932319Y-55113104D01*
X110019777Y-55164306D01*
X110101357Y-55223898D01*
X110176428Y-55291175D01*
X110244360Y-55365436D01*
X110304522Y-55445976D01*
X110356284Y-55532094D01*
X110399013Y-55623086D01*
X110432080Y-55718249D01*
X110454853Y-55816881D01*
X110455305Y-55819477D01*
X110460075Y-55846543D01*
X110464240Y-55869628D01*
X110467367Y-55886356D01*
X110469022Y-55894354D01*
X110469592Y-55894935D01*
X110474046Y-55896132D01*
X110483367Y-55897181D01*
X110498139Y-55898092D01*
X110518941Y-55898873D01*
X110546358Y-55899531D01*
X110580969Y-55900075D01*
X110623358Y-55900513D01*
X110674105Y-55900853D01*
X110733794Y-55901103D01*
X110803006Y-55901272D01*
X110882322Y-55901367D01*
X110972326Y-55901397D01*
X111473711Y-55901397D01*
X111476968Y-55880268D01*
X111489102Y-55810368D01*
X111505976Y-55734550D01*
X111525115Y-55668660D01*
X111526341Y-55665007D01*
X111564963Y-55567614D01*
X111612705Y-55476432D01*
X111669027Y-55391890D01*
X111733389Y-55314414D01*
X111805250Y-55244430D01*
X111884070Y-55182367D01*
X111969310Y-55128651D01*
X112060427Y-55083709D01*
X112156883Y-55047969D01*
X112258138Y-55021856D01*
X112363650Y-55005800D01*
X112437546Y-55000797D01*
X112543458Y-55002426D01*
X112646194Y-55014291D01*
X112745249Y-55035938D01*
X112840118Y-55066915D01*
X112930300Y-55106767D01*
X113015289Y-55155040D01*
X113094581Y-55211280D01*
X113167674Y-55275035D01*
X113234063Y-55345849D01*
X113293245Y-55423270D01*
X113344715Y-55506844D01*
X113387970Y-55596116D01*
X113422506Y-55690633D01*
X113447820Y-55789942D01*
X113463407Y-55893589D01*
X113467997Y-55985740D01*
X113468763Y-56001119D01*
G37*
%TO.C,G1_R*%
G36*
X92499949Y-55999999D02*
G01*
X92499949Y-56098602D01*
X92001302Y-56098602D01*
X91502655Y-56098602D01*
X91502655Y-55999999D01*
X91502655Y-55901397D01*
X92001302Y-55901397D01*
X92499949Y-55901397D01*
X92499949Y-55999999D01*
G37*
G36*
X98094935Y-55701375D02*
G01*
X98094935Y-55901397D01*
X98294958Y-55901397D01*
X98494980Y-55901397D01*
X98494980Y-55999999D01*
X98494980Y-56098602D01*
X98294958Y-56098602D01*
X98094935Y-56098602D01*
X98094935Y-56298624D01*
X98094935Y-56498646D01*
X97993516Y-56498646D01*
X97892096Y-56498646D01*
X97892096Y-56298624D01*
X97892096Y-56098602D01*
X97692074Y-56098602D01*
X97492052Y-56098602D01*
X97492052Y-55999999D01*
X97492052Y-55901397D01*
X97692074Y-55901397D01*
X97892096Y-55901397D01*
X97892096Y-55701375D01*
X97892096Y-55501353D01*
X97993516Y-55501353D01*
X98094935Y-55501353D01*
X98094935Y-55701375D01*
G37*
G36*
X95459589Y-56045678D02*
G01*
X95455083Y-56088419D01*
X95447771Y-56123957D01*
X95447370Y-56125364D01*
X95422050Y-56194567D01*
X95388055Y-56257062D01*
X95346118Y-56312330D01*
X95296976Y-56359849D01*
X95241363Y-56399100D01*
X95180014Y-56429562D01*
X95113665Y-56450714D01*
X95043050Y-56462037D01*
X94968905Y-56463009D01*
X94931727Y-56460046D01*
X94894399Y-56454421D01*
X94859701Y-56445453D01*
X94823687Y-56432088D01*
X94782414Y-56413275D01*
X94755855Y-56399896D01*
X94734592Y-56387485D01*
X94715711Y-56373841D01*
X94695913Y-56356577D01*
X94671897Y-56333306D01*
X94641121Y-56301032D01*
X94614799Y-56268789D01*
X94593212Y-56235724D01*
X94574877Y-56199243D01*
X94558316Y-56156749D01*
X94542045Y-56105645D01*
X94541317Y-56105089D01*
X94536688Y-56104112D01*
X94527405Y-56103232D01*
X94512996Y-56102444D01*
X94492989Y-56101744D01*
X94466912Y-56101127D01*
X94434290Y-56100589D01*
X94394653Y-56100126D01*
X94347528Y-56099734D01*
X94292441Y-56099408D01*
X94228921Y-56099143D01*
X94156494Y-56098937D01*
X94074689Y-56098784D01*
X93983033Y-56098680D01*
X93881053Y-56098621D01*
X93768277Y-56098602D01*
X92996589Y-56098602D01*
X92992743Y-56131000D01*
X92986964Y-56171664D01*
X92965422Y-56269565D01*
X92933406Y-56366872D01*
X92891395Y-56462022D01*
X92860045Y-56519757D01*
X92803317Y-56605607D01*
X92738522Y-56683990D01*
X92666181Y-56754556D01*
X92586812Y-56816954D01*
X92500934Y-56870833D01*
X92409067Y-56915844D01*
X92311730Y-56951637D01*
X92209442Y-56977860D01*
X92102722Y-56994164D01*
X92101640Y-56994273D01*
X92075579Y-56996060D01*
X92042595Y-56997159D01*
X92006804Y-56997483D01*
X91972324Y-56996945D01*
X91948921Y-56995993D01*
X91840286Y-56985259D01*
X91736160Y-56964334D01*
X91636770Y-56933312D01*
X91542343Y-56892291D01*
X91453108Y-56841365D01*
X91369291Y-56780630D01*
X91291119Y-56710182D01*
X91287901Y-56706949D01*
X91217752Y-56628476D01*
X91157438Y-56544501D01*
X91106960Y-56455032D01*
X91066322Y-56360078D01*
X91035529Y-56259646D01*
X91014583Y-56153745D01*
X91003487Y-56042383D01*
X91002231Y-55999599D01*
X91002320Y-55997682D01*
X91228734Y-55997682D01*
X91229412Y-56045272D01*
X91231508Y-56090172D01*
X91235018Y-56129551D01*
X91239942Y-56160581D01*
X91242453Y-56171788D01*
X91269002Y-56263383D01*
X91304734Y-56349047D01*
X91349156Y-56428305D01*
X91401779Y-56500680D01*
X91462111Y-56565698D01*
X91529662Y-56622882D01*
X91603941Y-56671758D01*
X91684458Y-56711848D01*
X91770720Y-56742678D01*
X91862239Y-56763772D01*
X91869202Y-56764908D01*
X91919020Y-56770664D01*
X91974527Y-56773692D01*
X92031575Y-56773960D01*
X92086019Y-56771430D01*
X92133711Y-56766069D01*
X92183978Y-56756448D01*
X92271903Y-56731127D01*
X92354842Y-56696199D01*
X92432206Y-56652249D01*
X92503402Y-56599857D01*
X92567841Y-56539607D01*
X92624931Y-56472081D01*
X92674082Y-56397860D01*
X92714703Y-56317529D01*
X92746202Y-56231668D01*
X92767990Y-56140860D01*
X92772922Y-56105534D01*
X92776697Y-56056163D01*
X92778105Y-56002855D01*
X92777144Y-55949349D01*
X92773814Y-55899384D01*
X92768112Y-55856697D01*
X92764149Y-55836453D01*
X92741192Y-55750717D01*
X92709251Y-55668368D01*
X92669081Y-55590727D01*
X92621435Y-55519116D01*
X92567068Y-55454854D01*
X92506737Y-55399263D01*
X92486533Y-55383463D01*
X92407555Y-55330332D01*
X92324278Y-55287587D01*
X92236350Y-55255066D01*
X92143422Y-55232609D01*
X92134179Y-55231057D01*
X92093184Y-55226424D01*
X92045503Y-55223793D01*
X91994622Y-55223157D01*
X91944025Y-55224508D01*
X91897197Y-55227841D01*
X91857624Y-55233149D01*
X91834420Y-55237703D01*
X91744919Y-55262222D01*
X91659787Y-55296783D01*
X91579834Y-55340955D01*
X91505865Y-55394307D01*
X91438690Y-55456409D01*
X91381667Y-55522506D01*
X91333681Y-55592819D01*
X91294477Y-55668220D01*
X91263370Y-55750026D01*
X91239675Y-55839553D01*
X91235226Y-55867069D01*
X91231638Y-55905751D01*
X91229475Y-55950232D01*
X91228734Y-55997682D01*
X91002320Y-55997682D01*
X91006713Y-55903174D01*
X91020795Y-55806125D01*
X91043957Y-55710093D01*
X91075679Y-55616718D01*
X91115442Y-55527641D01*
X91162725Y-55444503D01*
X91217007Y-55368944D01*
X91239510Y-55342134D01*
X91311231Y-55268118D01*
X91389865Y-55202445D01*
X91474599Y-55145417D01*
X91564621Y-55097337D01*
X91659120Y-55058508D01*
X91757283Y-55029231D01*
X91858298Y-55009810D01*
X91961353Y-55000547D01*
X92065636Y-55001745D01*
X92170335Y-55013707D01*
X92245228Y-55028850D01*
X92347227Y-55058759D01*
X92443726Y-55098410D01*
X92534529Y-55147704D01*
X92619438Y-55206546D01*
X92698258Y-55274837D01*
X92721128Y-55297607D01*
X92790121Y-55376506D01*
X92849910Y-55461641D01*
X92900180Y-55552390D01*
X92940615Y-55648130D01*
X92970900Y-55748239D01*
X92990720Y-55852096D01*
X92997486Y-55901397D01*
X93768000Y-55901397D01*
X94538514Y-55901397D01*
X94550856Y-55860547D01*
X94557537Y-55840073D01*
X94586232Y-55774574D01*
X94623889Y-55715404D01*
X94669915Y-55663264D01*
X94723719Y-55618857D01*
X94784709Y-55582885D01*
X94819239Y-55567205D01*
X94864465Y-55551259D01*
X94910009Y-55541279D01*
X94959289Y-55536578D01*
X95015721Y-55536468D01*
X95031258Y-55537005D01*
X95061120Y-55538498D01*
X95084430Y-55540738D01*
X95104497Y-55544239D01*
X95124628Y-55549516D01*
X95148130Y-55557085D01*
X95155418Y-55559599D01*
X95215698Y-55585172D01*
X95269018Y-55617446D01*
X95318303Y-55658157D01*
X95350186Y-55691345D01*
X95392943Y-55748962D01*
X95426402Y-55812659D01*
X95450114Y-55881676D01*
X95455916Y-55911431D01*
X95460042Y-55953464D01*
X95461254Y-55999453D01*
X95461131Y-56002855D01*
X95459589Y-56045678D01*
G37*
G36*
X98990763Y-56001119D02*
G01*
X98989733Y-56049208D01*
X98979806Y-56154928D01*
X98959712Y-56256789D01*
X98929911Y-56354287D01*
X98890858Y-56446917D01*
X98843012Y-56534172D01*
X98786829Y-56615547D01*
X98722767Y-56690538D01*
X98651282Y-56758639D01*
X98572833Y-56819344D01*
X98487876Y-56872149D01*
X98396869Y-56916547D01*
X98300269Y-56952034D01*
X98198533Y-56978105D01*
X98092118Y-56994253D01*
X98038754Y-56997764D01*
X97960374Y-56997310D01*
X97878798Y-56991078D01*
X97797573Y-56979371D01*
X97720246Y-56962494D01*
X97626700Y-56932875D01*
X97533731Y-56892365D01*
X97446200Y-56842711D01*
X97364698Y-56784555D01*
X97289815Y-56718538D01*
X97222143Y-56645303D01*
X97162272Y-56565491D01*
X97110792Y-56479745D01*
X97068295Y-56388706D01*
X97035371Y-56293017D01*
X97012610Y-56193321D01*
X97012502Y-56192695D01*
X97007710Y-56164946D01*
X97003443Y-56140356D01*
X97000162Y-56121574D01*
X96998327Y-56111249D01*
X96995992Y-56098541D01*
X96493720Y-56099980D01*
X95991448Y-56101419D01*
X95981140Y-56162637D01*
X95976832Y-56186494D01*
X95951588Y-56288622D01*
X95916317Y-56386512D01*
X95871509Y-56479509D01*
X95817655Y-56566960D01*
X95755245Y-56648209D01*
X95684769Y-56722603D01*
X95606717Y-56789487D01*
X95521581Y-56848208D01*
X95429851Y-56898110D01*
X95396890Y-56913173D01*
X95296693Y-56951011D01*
X95194926Y-56977735D01*
X95091923Y-56993324D01*
X94988020Y-56997758D01*
X94883550Y-56991017D01*
X94778847Y-56973080D01*
X94674246Y-56943928D01*
X94647400Y-56934565D01*
X94577427Y-56905630D01*
X94509031Y-56870214D01*
X94438756Y-56826596D01*
X94427288Y-56818741D01*
X94382218Y-56784625D01*
X94335368Y-56744713D01*
X94289690Y-56701745D01*
X94248131Y-56658459D01*
X94213642Y-56617593D01*
X94179012Y-56572828D01*
X94262118Y-56515122D01*
X94286183Y-56498395D01*
X94310693Y-56481323D01*
X94330758Y-56467307D01*
X94344772Y-56457468D01*
X94351130Y-56452929D01*
X94352723Y-56452659D01*
X94360907Y-56457925D01*
X94373880Y-56471141D01*
X94390571Y-56491267D01*
X94394132Y-56495773D01*
X94451828Y-56559344D01*
X94518018Y-56616519D01*
X94591508Y-56666572D01*
X94671108Y-56708780D01*
X94755626Y-56742419D01*
X94843871Y-56766763D01*
X94881447Y-56772895D01*
X94927193Y-56777090D01*
X94977118Y-56779171D01*
X95027740Y-56779070D01*
X95075575Y-56776720D01*
X95117140Y-56772053D01*
X95159178Y-56764269D01*
X95248405Y-56739526D01*
X95333686Y-56704447D01*
X95414291Y-56659413D01*
X95489489Y-56604807D01*
X95558551Y-56541010D01*
X95559644Y-56539873D01*
X95618342Y-56472215D01*
X95667276Y-56401264D01*
X95707208Y-56325582D01*
X95738898Y-56243731D01*
X95763107Y-56154273D01*
X95769310Y-56119179D01*
X95774651Y-56065965D01*
X95776719Y-56008436D01*
X95776167Y-55981813D01*
X97218184Y-55981813D01*
X97218822Y-56032885D01*
X97221371Y-56082595D01*
X97225804Y-56127954D01*
X97232093Y-56165971D01*
X97247350Y-56225968D01*
X97278806Y-56314053D01*
X97319400Y-56395972D01*
X97368683Y-56471271D01*
X97426205Y-56539500D01*
X97491517Y-56600205D01*
X97564168Y-56652936D01*
X97643710Y-56697240D01*
X97729692Y-56732664D01*
X97821666Y-56758758D01*
X97828494Y-56760188D01*
X97863515Y-56765474D01*
X97905971Y-56769424D01*
X97952815Y-56771958D01*
X98000998Y-56773000D01*
X98047473Y-56772473D01*
X98089192Y-56770299D01*
X98123108Y-56766401D01*
X98157388Y-56760055D01*
X98248187Y-56735985D01*
X98333171Y-56702282D01*
X98412490Y-56658868D01*
X98486295Y-56605666D01*
X98554735Y-56542598D01*
X98609175Y-56480304D01*
X98658588Y-56409022D01*
X98699047Y-56332295D01*
X98731097Y-56249084D01*
X98755280Y-56158350D01*
X98759785Y-56132893D01*
X98764713Y-56088255D01*
X98767576Y-56038099D01*
X98768346Y-55985740D01*
X98766995Y-55934491D01*
X98763498Y-55887666D01*
X98757825Y-55848580D01*
X98741199Y-55779816D01*
X98710468Y-55691780D01*
X98670649Y-55609609D01*
X98622243Y-55533826D01*
X98565748Y-55464955D01*
X98501666Y-55403519D01*
X98430495Y-55350043D01*
X98352736Y-55305051D01*
X98268888Y-55269065D01*
X98179452Y-55242611D01*
X98111945Y-55229866D01*
X98020083Y-55221777D01*
X97928150Y-55223885D01*
X97837453Y-55235996D01*
X97749300Y-55257918D01*
X97664998Y-55289456D01*
X97585853Y-55330418D01*
X97512915Y-55379917D01*
X97444474Y-55439340D01*
X97384273Y-55506321D01*
X97332471Y-55580628D01*
X97289230Y-55662029D01*
X97254710Y-55750293D01*
X97229072Y-55845188D01*
X97228023Y-55850325D01*
X97222756Y-55887543D01*
X97219486Y-55932369D01*
X97218184Y-55981813D01*
X95776167Y-55981813D01*
X95775514Y-55950276D01*
X95771032Y-55895172D01*
X95763271Y-55846808D01*
X95743368Y-55770177D01*
X95711485Y-55684256D01*
X95670528Y-55604455D01*
X95620052Y-55529932D01*
X95559615Y-55459845D01*
X95558616Y-55458808D01*
X95489480Y-55394958D01*
X95414842Y-55340927D01*
X95334755Y-55296751D01*
X95249274Y-55262464D01*
X95247587Y-55261903D01*
X95202307Y-55247612D01*
X95162929Y-55237151D01*
X95126033Y-55229985D01*
X95088194Y-55225580D01*
X95045990Y-55223401D01*
X94996000Y-55222914D01*
X94954521Y-55223681D01*
X94887838Y-55228376D01*
X94827026Y-55237937D01*
X94769051Y-55253061D01*
X94710881Y-55274449D01*
X94649483Y-55302800D01*
X94643139Y-55306005D01*
X94580062Y-55341398D01*
X94522985Y-55380700D01*
X94469794Y-55425682D01*
X94418374Y-55478117D01*
X94366608Y-55539776D01*
X94356319Y-55552845D01*
X94269072Y-55492411D01*
X94268289Y-55491868D01*
X94240887Y-55472872D01*
X94216834Y-55456171D01*
X94197611Y-55442794D01*
X94184695Y-55433771D01*
X94179567Y-55430130D01*
X94180198Y-55426135D01*
X94187126Y-55415029D01*
X94199711Y-55398452D01*
X94216727Y-55377838D01*
X94236950Y-55354622D01*
X94259153Y-55330240D01*
X94282111Y-55306125D01*
X94304600Y-55283714D01*
X94359360Y-55233864D01*
X94418677Y-55187285D01*
X94480482Y-55146831D01*
X94548063Y-55110156D01*
X94589384Y-55090481D01*
X94669746Y-55057738D01*
X94749572Y-55033189D01*
X94832365Y-55015845D01*
X94921624Y-55004719D01*
X94950576Y-55002734D01*
X95031550Y-55002637D01*
X95116207Y-55009739D01*
X95201243Y-55023681D01*
X95283356Y-55044103D01*
X95361615Y-55070993D01*
X95454319Y-55113104D01*
X95541777Y-55164306D01*
X95623357Y-55223898D01*
X95698428Y-55291175D01*
X95766360Y-55365436D01*
X95826522Y-55445976D01*
X95878284Y-55532094D01*
X95921013Y-55623086D01*
X95954080Y-55718249D01*
X95976853Y-55816881D01*
X95977305Y-55819477D01*
X95982075Y-55846543D01*
X95986240Y-55869628D01*
X95989367Y-55886356D01*
X95991022Y-55894354D01*
X95991592Y-55894935D01*
X95996046Y-55896132D01*
X96005367Y-55897181D01*
X96020139Y-55898092D01*
X96040941Y-55898873D01*
X96068358Y-55899531D01*
X96102969Y-55900075D01*
X96145358Y-55900513D01*
X96196105Y-55900853D01*
X96255794Y-55901103D01*
X96325006Y-55901272D01*
X96404322Y-55901367D01*
X96494326Y-55901397D01*
X96995711Y-55901397D01*
X96998968Y-55880268D01*
X97011102Y-55810368D01*
X97027976Y-55734550D01*
X97047115Y-55668660D01*
X97048341Y-55665007D01*
X97086963Y-55567614D01*
X97134705Y-55476432D01*
X97191027Y-55391890D01*
X97255389Y-55314414D01*
X97327250Y-55244430D01*
X97406070Y-55182367D01*
X97491310Y-55128651D01*
X97582427Y-55083709D01*
X97678883Y-55047969D01*
X97780138Y-55021856D01*
X97885650Y-55005800D01*
X97959546Y-55000797D01*
X98065458Y-55002426D01*
X98168194Y-55014291D01*
X98267249Y-55035938D01*
X98362118Y-55066915D01*
X98452300Y-55106767D01*
X98537289Y-55155040D01*
X98616581Y-55211280D01*
X98689674Y-55275035D01*
X98756063Y-55345849D01*
X98815245Y-55423270D01*
X98866715Y-55506844D01*
X98909970Y-55596116D01*
X98944506Y-55690633D01*
X98969820Y-55789942D01*
X98985407Y-55893589D01*
X98989997Y-55985740D01*
X98990763Y-56001119D01*
G37*
%TD*%
M02*
